<?xml version="1.0" encoding="UTF-8"?>
<!DOCTYPE svg PUBLIC "-//W3C//DTD SVG 1.1//EN" "http://www.w3.org/Graphics/SVG/1.1/DTD/svg11.dtd">
<!-- Creator: CorelDRAW X7 -->
<svg xmlns="http://www.w3.org/2000/svg" xml:space="preserve" width="8.5in" height="11in" version="1.1" style="shape-rendering:geometricPrecision; text-rendering:geometricPrecision; image-rendering:optimizeQuality; fill-rule:evenodd; clip-rule:evenodd"
viewBox="0 0 8500 11000"
 xmlns:xlink="http://www.w3.org/1999/xlink">
 <defs>
  <style type="text/css">
   <![CDATA[
    .fil0 {fill:#888888}
   ]]>
  </style>
 </defs>
 <g id="Layer_x0020_1">
  <metadata id="CorelCorpID_0Corel-Layer"/>
  <g id="_65844400">
   <path class="fil0" d="M4250 1250c-2343,0 -4250,1907 -4250,4250 0,2343 1907,4250 4250,4250 2343,0 4250,-1907 4250,-4250 0,-2343 -1907,-4250 -4250,-4250zm0 8217c-2187,0 -3967,-1780 -3967,-3967 0,-2187 1780,-3967 3967,-3967 2187,0 3967,1780 3967,3967 0,2187 -1780,3967 -3967,3967z"/>
   <path class="fil0" d="M4392 4936l0 -1436c0,-79 -64,-142 -142,-142 -78,0 -142,63 -142,142l0 1436c-198,52 -353,207 -405,405l-1011 0c-79,0 -142,64 -142,142 0,78 63,142 142,142l1011 0c64,243 284,425 547,425 313,0 567,-255 567,-567 0,-263 -182,-483 -425,-547zm-142 830c-156,0 -283,-127 -283,-283 0,-156 127,-283 283,-283 156,0 283,127 283,283 0,156 -127,283 -283,283z"/>
   <path class="fil0" d="M4250 2650c78,0 142,-64 142,-142l0 -142c0,-78 -64,-141 -142,-141 -78,0 -142,63 -142,141l0 142c0,78 64,142 142,142z"/>
   <path class="fil0" d="M4250 8316c-78,0 -142,64 -142,142l0 142c0,78 64,141 142,141 78,0 142,-63 142,-141l0 -142c0,-78 -64,-142 -142,-142z"/>
   <path class="fil0" d="M7367 5341l-142 0c-78,0 -142,64 -142,142 0,78 64,142 142,142l142 0c78,0 141,-64 141,-142 0,-78 -63,-142 -141,-142z"/>
   <path class="fil0" d="M1275 5341l-142 0c-78,0 -141,64 -141,142 0,78 63,142 141,142l142 0c78,0 142,-64 142,-142 0,-78 -64,-142 -142,-142z"/>
   <path class="fil0" d="M6354 3179l-101 100c-55,55 -55,145 0,200 28,28 64,42 101,42 36,0 72,-14 100,-42l100 -100c55,-55 55,-145 0,-200 -55,-56 -145,-55 -200,0z"/>
   <path class="fil0" d="M2046 7486l-100 100c-55,56 -55,145 0,201 28,27 64,41 100,41 37,0 73,-14 100,-41l101 -100c55,-56 55,-145 0,-201 -56,-55 -146,-55 -201,0z"/>
   <path class="fil0" d="M6454 7486c-56,-55 -145,-55 -201,0 -55,56 -55,145 0,201l101 100c27,27 64,41 100,41 36,0 72,-14 100,-41 55,-56 55,-145 0,-201l-100 -100z"/>
   <path class="fil0" d="M2146 3179c-55,-56 -145,-56 -200,0 -55,55 -55,145 0,200l100 100c28,28 64,42 100,42 37,0 73,-14 101,-42 55,-55 55,-145 0,-200l-101 -100z"/>
  </g>
  <g id="_232303472">
  </g>
  <g id="_232303688">
  </g>
  <g id="_231930096">
  </g>
  <g id="_231930264">
  </g>
  <g id="_232260224">
  </g>
  <g id="_232260296">
  </g>
  <g id="_232260032">
  </g>
  <g id="_232260416">
  </g>
  <g id="_232271952">
  </g>
  <g id="_232271712">
  </g>
  <g id="_232271400">
  </g>
  <g id="_232272240">
  </g>
  <g id="_232272096">
  </g>
  <g id="_231934744">
  </g>
  <g id="_231934960">
  </g>
 </g>
</svg>
