<?xml version="1.0" encoding="UTF-8"?>
<!DOCTYPE svg PUBLIC "-//W3C//DTD SVG 1.1//EN" "http://www.w3.org/Graphics/SVG/1.1/DTD/svg11.dtd">
<!-- Creator: CorelDRAW X7 -->
<svg xmlns="http://www.w3.org/2000/svg" xml:space="preserve" width="8.5in" height="11in" version="1.1" style="shape-rendering:geometricPrecision; text-rendering:geometricPrecision; image-rendering:optimizeQuality; fill-rule:evenodd; clip-rule:evenodd"
viewBox="0 0 8500 11000"
 xmlns:xlink="http://www.w3.org/1999/xlink">
 <defs>
  <style type="text/css">
   <![CDATA[
    .fil0 {fill:#888888}
   ]]>
  </style>
 </defs>
 <g id="Layer_x0020_1">
  <metadata id="CorelCorpID_0Corel-Layer"/>
  <g id="_232882400">
   <path class="fil0" d="M7334 6991l-835 1199 -589 -483c-63,-52 -157,-43 -209,20 -53,64 -44,158 20,210l714 586c27,22 60,34 94,34 7,0 14,0 21,-1 41,-6 78,-29 102,-63l927 -1331c47,-68 30,-161 -38,-208 -67,-47 -160,-30 -207,37z"/>
   <path class="fil0" d="M8053 6574l0 -3508c0,-1001 -815,-1816 -1816,-1816l-4421 0c-1001,0 -1816,815 -1816,1816l0 4421c0,1001 815,1816 1816,1816l3508 0c336,279 768,447 1237,447 1069,0 1939,-870 1939,-1939 0,-469 -168,-901 -447,-1237zm-6237 2430c-837,0 -1518,-680 -1518,-1517l0 -4421c0,-837 681,-1518 1518,-1518l4421 0c837,0 1517,681 1517,1518l0 3220c-11,-9 -23,-17 -34,-25 -31,-24 -63,-47 -95,-69 -4,-2 -8,-4 -11,-6 -77,-50 -157,-94 -241,-133 -11,-5 -22,-11 -34,-16 -33,-14 -66,-27 -100,-39 -21,-8 -42,-17 -64,-24 -31,-10 -62,-19 -94,-28 -26,-8 -53,-15 -80,-21 -29,-6 -57,-13 -86,-18 -34,-7 -69,-12 -104,-16 -23,-3 -46,-7 -69,-9 -60,-6 -120,-9 -181,-9 -914,0 -1681,637 -1884,1491l-651 0c-82,0 -149,67 -149,149 0,83 67,149 149,149l604 0c-3,50 -7,99 -7,149 0,61 3,121 9,181 2,23 6,46 9,70 4,34 9,69 16,103 5,29 11,58 18,86 6,27 13,53 21,80 9,32 18,63 28,94 7,21 15,42 23,63 13,34 26,68 40,102 4,9 10,19 14,29 40,86 85,170 137,249 1,2 3,4 4,6 22,33 45,64 69,96 8,11 16,23 24,34l-3219 0zm4745 448c-420,0 -803,-161 -1094,-422 -36,-33 -71,-66 -103,-102 -8,-7 -15,-15 -22,-23 -31,-35 -61,-71 -89,-108 -6,-8 -13,-17 -19,-25 -27,-38 -53,-78 -77,-118 -5,-8 -10,-16 -15,-24 -25,-42 -47,-86 -68,-130 -3,-7 -6,-14 -9,-21 -21,-46 -39,-93 -56,-141 -2,-6 -4,-11 -6,-17 -16,-49 -29,-98 -41,-149 -1,-5 -3,-11 -4,-17 -11,-49 -19,-99 -25,-150 0,-7 -2,-14 -3,-21 -6,-57 -9,-114 -9,-173 0,-904 736,-1640 1640,-1640 59,0 116,3 174,9 6,1 13,3 19,4 51,6 102,13 151,24 6,1 11,3 17,5 50,11 100,24 149,40 6,2 11,4 17,6 48,17 95,35 142,56 6,3 13,7 19,9 45,21 89,44 131,68 8,5 16,10 23,14 41,25 81,51 119,79 9,6 17,12 25,18 37,28 74,58 109,90 7,7 15,13 22,20 36,33 70,68 103,105 261,291 421,673 421,1093 0,905 -736,1641 -1641,1641z"/>
   <path class="fil0" d="M4026 3338l2685 0c82,0 149,-67 149,-149 0,-83 -67,-150 -149,-150l-2685 0c-82,0 -149,67 -149,150 0,82 67,149 149,149z"/>
   <path class="fil0" d="M4026 5425l2685 0c82,0 149,-66 149,-149 0,-82 -67,-149 -149,-149l-2685 0c-82,0 -149,67 -149,149 0,83 67,149 149,149z"/>
   <path class="fil0" d="M2859 2346l-932 1087 -570 -428c-66,-49 -159,-36 -209,30 -49,66 -36,159 30,209l682 511c27,20 58,30 89,30 42,0 84,-18 114,-52l1022 -1193c54,-63 46,-157 -16,-210 -62,-54 -157,-47 -210,16z"/>
   <path class="fil0" d="M2859 4434l-932 1087 -570 -428c-66,-49 -159,-36 -209,30 -49,66 -36,159 30,208l682 512c27,20 58,30 89,30 42,0 84,-18 114,-53l1022 -1193c54,-62 46,-156 -16,-210 -62,-53 -157,-46 -210,17z"/>
   <path class="fil0" d="M2859 6671l-932 1086 -570 -427c-66,-49 -159,-36 -209,30 -49,65 -36,159 30,208l682 512c27,20 58,29 89,29 42,0 84,-17 114,-52l1022 -1193c54,-62 46,-156 -16,-210 -62,-53 -157,-46 -210,17z"/>
  </g>
  <g id="_232877696">
  </g>
  <g id="_232878680">
  </g>
  <g id="_232878968">
  </g>
  <g id="_232877864">
  </g>
  <g id="_232884296">
  </g>
  <g id="_232884536">
  </g>
  <g id="_232884632">
  </g>
  <g id="_232884752">
  </g>
  <g id="_232881320">
  </g>
  <g id="_232880840">
  </g>
  <g id="_232881200">
  </g>
  <g id="_232877456">
  </g>
  <g id="_232880816">
  </g>
  <g id="_232877648">
  </g>
  <g id="_232877792">
  </g>
 </g>
</svg>
