<?xml version="1.0" encoding="UTF-8"?>
<!DOCTYPE svg PUBLIC "-//W3C//DTD SVG 1.1//EN" "http://www.w3.org/Graphics/SVG/1.1/DTD/svg11.dtd">
<!-- Creator: CorelDRAW X7 -->
<svg xmlns="http://www.w3.org/2000/svg" xml:space="preserve" width="8.5in" height="11in" version="1.1" style="shape-rendering:geometricPrecision; text-rendering:geometricPrecision; image-rendering:optimizeQuality; fill-rule:evenodd; clip-rule:evenodd"
viewBox="0 0 8500 11000"
 xmlns:xlink="http://www.w3.org/1999/xlink">
 <defs>
  <style type="text/css">
   <![CDATA[
    .fil0 {fill:#888888}
   ]]>
  </style>
 </defs>
 <g id="Layer_x0020_1">
  <metadata id="CorelCorpID_0Corel-Layer"/>
  <path class="fil0" d="M7428 8317c666,-750 1072,-1737 1072,-2817 0,-1124 -439,-2146 -1154,-2907 0,0 0,0 0,0 0,-1 -1,-1 -2,-2 -744,-791 -1787,-1297 -2947,-1337l0 0 -83 -3c-21,0 -42,-1 -64,-1 -22,0 -43,1 -64,1l-83 3 0 0c-1160,40 -2203,546 -2947,1337 -1,1 -2,1 -2,2 0,0 0,0 0,0 -715,761 -1154,1783 -1154,2907 0,1080 406,2067 1072,2817 0,1 0,3 1,4 3,4 7,6 10,9 748,836 1822,1375 3020,1416l0 0 83 3c21,0 42,1 64,1 22,0 43,-1 64,-1l83 -3 0 0c1200,-41 2274,-581 3023,-1419 2,-3 5,-3 6,-6 2,-1 2,-3 2,-4zm-7131 -2670l1759 0c16,621 138,1224 354,1790 -417,151 -816,353 -1189,605 -549,-653 -891,-1485 -924,-2395zm1004 -2782c365,238 753,427 1158,569 -248,602 -385,1251 -403,1919l-1759 0c35,-953 408,-1821 1004,-2488zm6902 2488l-1759 0c-18,-668 -155,-1317 -403,-1919 405,-142 793,-331 1158,-569 596,667 969,1535 1004,2488zm-4100 -1910c-423,-12 -839,-75 -1241,-188 297,-610 717,-1160 1241,-1618l0 1806zm0 293l0 1617 -1754 0c18,-637 152,-1255 391,-1828 440,128 898,199 1363,211zm294 0c465,-12 923,-83 1364,-211 239,573 372,1191 390,1828l-1754 0 0 -1617zm0 -293l0 -1806c525,458 944,1008 1241,1618 -402,113 -818,176 -1241,188zm1525 -277c-282,-590 -672,-1128 -1156,-1588 858,112 1630,500 2225,1072 -338,215 -696,387 -1069,516zm-3344 0c-373,-129 -731,-301 -1069,-516 595,-572 1367,-960 2225,-1072 -484,460 -874,998 -1156,1588zm-229 2481l1754 0 0 1471c-484,13 -959,88 -1415,225 -207,-535 -323,-1107 -339,-1696zm1754 1764l0 1952c-561,-491 -1002,-1086 -1302,-1747 421,-124 857,-193 1302,-205zm294 1952l0 -1952c445,12 881,81 1302,205 -300,661 -741,1256 -1302,1747zm0 -2245l0 -1471 1754 0c-16,589 -132,1161 -339,1697 -456,-138 -931,-213 -1415,-226zm2047 -1471l1759 0c-33,910 -375,1742 -924,2395 -373,-252 -772,-454 -1189,-605 216,-566 338,-1169 354,-1790zm-5024 2615c347,-230 716,-416 1102,-554 285,639 694,1221 1212,1714 -901,-118 -1708,-540 -2314,-1160zm3346 1160c518,-493 927,-1075 1212,-1714 386,138 755,324 1102,554 -606,620 -1413,1042 -2314,1160z"/>
  <g id="_236104016">
  </g>
  <g id="_236103872">
  </g>
  <g id="_236105024">
  </g>
  <g id="_236074184">
  </g>
  <g id="_236073896">
  </g>
  <g id="_236073296">
  </g>
  <g id="_236076176">
  </g>
  <g id="_236075552">
  </g>
  <g id="_236072912">
  </g>
  <g id="_236103560">
  </g>
  <g id="_236104952">
  </g>
  <g id="_236104520">
  </g>
  <g id="_236104376">
  </g>
  <g id="_236104808">
  </g>
  <g id="_236104664">
  </g>
 </g>
</svg>
