<?xml version="1.0" encoding="UTF-8"?>
<!DOCTYPE svg PUBLIC "-//W3C//DTD SVG 1.1//EN" "http://www.w3.org/Graphics/SVG/1.1/DTD/svg11.dtd">
<!-- Creator: CorelDRAW X7 -->
<svg xmlns="http://www.w3.org/2000/svg" xml:space="preserve" width="8.5in" height="11in" version="1.1" style="shape-rendering:geometricPrecision; text-rendering:geometricPrecision; image-rendering:optimizeQuality; fill-rule:evenodd; clip-rule:evenodd"
viewBox="0 0 8500 11000"
 xmlns:xlink="http://www.w3.org/1999/xlink">
 <defs>
  <style type="text/css">
   <![CDATA[
    .fil0 {fill:#888888}
   ]]>
  </style>
 </defs>
 <g id="Layer_x0020_1">
  <metadata id="CorelCorpID_0Corel-Layer"/>
  <g id="_228055904">
   <path class="fil0" d="M8496 5010l0 -9 -21 -11 -825 -768 0 -2972 -6800 0 0 2972 -834 777 -16 10 0 4 0 4577 0 160 160 0 7951 0 229 0 64 0 96 0 0 -160 0 -4500 0 -77 -4 -3zm-3952 2330l1409 -777 1697 -936 0 0 567 -312 0 4051 -667 -368 -3006 -1658zm3575 -2294l-469 258 0 -695 469 437zm-6986 -3513l6234 0 0 2425 0 1502 -2565 1414 -552 305 -3117 -1719 0 -1502 0 -2425zm-283 3771l-469 -259 469 -436 0 695zm-567 4163l0 -4152 567 312 0 0 2525 1392 582 321 0 0 1461 806 2395 1321 -7530 0z"/>
   <path class="fil0" d="M3967 2808l850 0c78,0 141,-63 141,-141 0,-79 -63,-142 -141,-142l-850 0c-79,0 -142,63 -142,142 0,78 63,141 142,141z"/>
   <path class="fil0" d="M6092 4650l-992 0c-78,0 -142,63 -142,142 0,78 64,141 142,141l992 0c78,0 141,-63 141,-141 0,-79 -63,-142 -141,-142z"/>
   <path class="fil0" d="M2550 3800l708 0c79,0 142,-63 142,-142 0,-78 -63,-141 -142,-141l-708 0c-78,0 -142,63 -142,141 0,79 64,142 142,142z"/>
   <path class="fil0" d="M4250 3658c0,79 63,142 142,142l1133 0c78,0 142,-63 142,-142 0,-78 -64,-141 -142,-141l-1133 0c-79,0 -142,63 -142,141z"/>
   <path class="fil0" d="M3825 3800c37,0 74,-16 101,-41 25,-27 41,-64 41,-101 0,-36 -16,-73 -41,-100 -53,-53 -149,-53 -202,0 -25,27 -41,64 -41,100 0,37 16,74 41,101 27,25 64,41 101,41z"/>
   <path class="fil0" d="M4675 4792c0,-79 -63,-142 -142,-142l-1416 0c-79,0 -142,63 -142,142 0,78 63,141 142,141l1416 0c79,0 142,-63 142,-141z"/>
   <path class="fil0" d="M2550 4933c37,0 74,-15 101,-41 25,-27 41,-63 41,-100 0,-37 -16,-74 -41,-101 -54,-52 -149,-52 -202,0 -25,27 -41,62 -41,101 0,37 16,73 41,100 27,26 64,41 101,41z"/>
   <path class="fil0" d="M6092 3800c37,0 73,-16 100,-41 26,-27 41,-64 41,-101 0,-36 -15,-73 -41,-100 -52,-53 -147,-53 -201,0 -26,27 -41,64 -41,100 0,37 15,74 41,101 27,25 64,41 101,41z"/>
   <path class="fil0" d="M2550 6067l708 0c79,0 142,-64 142,-142 0,-78 -63,-142 -142,-142l-708 0c-78,0 -142,64 -142,142 0,78 64,142 142,142z"/>
   <path class="fil0" d="M5525 5783l-1133 0c-79,0 -142,64 -142,142 0,78 63,142 142,142l1133 0c78,0 142,-64 142,-142 0,-78 -64,-142 -142,-142z"/>
   <path class="fil0" d="M3724 5824c-25,26 -41,63 -41,101 0,37 16,74 41,101 27,25 63,41 101,41 37,0 74,-16 101,-41 25,-27 41,-64 41,-101 0,-38 -16,-75 -41,-101 -53,-52 -151,-51 -202,0z"/>
   <path class="fil0" d="M5991 5824c-26,26 -41,63 -41,101 0,37 15,74 41,101 27,25 62,41 101,41 37,0 73,-16 100,-41 26,-27 41,-64 41,-101 0,-38 -15,-75 -41,-101 -52,-52 -150,-51 -201,0z"/>
  </g>
  <g id="_228061640">
  </g>
  <g id="_228050096">
  </g>
  <g id="_228060944">
  </g>
  <g id="_228060968">
  </g>
  <g id="_228061928">
  </g>
  <g id="_228054224">
  </g>
  <g id="_228061136">
  </g>
  <g id="_228060728">
  </g>
  <g id="_228049976">
  </g>
  <g id="_228061016">
  </g>
  <g id="_228046520">
  </g>
  <g id="_228050672">
  </g>
  <g id="_228054104">
  </g>
  <g id="_228054296">
  </g>
  <g id="_228057584">
  </g>
 </g>
</svg>
