<?xml version="1.0" encoding="UTF-8"?>
<!DOCTYPE svg PUBLIC "-//W3C//DTD SVG 1.1//EN" "http://www.w3.org/Graphics/SVG/1.1/DTD/svg11.dtd">
<!-- Creator: CorelDRAW X7 -->
<svg xmlns="http://www.w3.org/2000/svg" xml:space="preserve" width="8.5in" height="11in" version="1.1" style="shape-rendering:geometricPrecision; text-rendering:geometricPrecision; image-rendering:optimizeQuality; fill-rule:evenodd; clip-rule:evenodd"
viewBox="0 0 8500 11000"
 xmlns:xlink="http://www.w3.org/1999/xlink">
 <defs>
  <style type="text/css">
   <![CDATA[
    .fil0 {fill:#888888}
   ]]>
  </style>
 </defs>
 <g id="Layer_x0020_1">
  <metadata id="CorelCorpID_0Corel-Layer"/>
  <g id="_387159128">
   <path class="fil0" d="M5697 1250l-2895 0c-507,0 -920,410 -920,913l0 6674c0,503 413,913 920,913l2895 0c508,0 921,-410 921,-913l0 -6674c0,-503 -413,-913 -921,-913zm617 7587c0,335 -277,609 -617,609l-2895 0c-339,0 -616,-274 -616,-609l0 -6674 0 0c0,-335 277,-608 617,-608l2894 0c340,0 617,273 617,608 0,0 0,6674 0,6674zm-313 -6693l-3502 0c-42,0 -76,34 -76,77l0 5914c0,41 34,76 76,76l3502 0c42,0 76,-34 76,-76l0 -5914c0,-43 -34,-77 -76,-77zm-76 5914l-3350 0 0 -5761 3350 0c0,0 0,5761 0,5761zm-1675 280c-256,0 -465,208 -465,465 0,256 209,465 465,465 257,0 465,-209 465,-465 0,-257 -208,-465 -465,-465zm0 778c-173,0 -313,-141 -313,-313 0,-173 140,-313 313,-313 173,0 313,140 313,313 0,172 -140,313 -313,313zm-503 -7271c0,-31 30,-56 67,-56l872 0c37,0 67,25 67,56 0,31 -30,57 -67,57l-872 0c-37,0 -67,-26 -67,-57z"/>
  </g>
  <g id="_387158984">
  </g>
  <g id="_387158840">
  </g>
  <g id="_387158696">
  </g>
  <g id="_380310704">
  </g>
  <g id="_380310560">
  </g>
  <g id="_380310416">
  </g>
  <g id="_207970336">
  </g>
  <g id="_207970192">
  </g>
  <g id="_207970048">
  </g>
  <g id="_381451080">
  </g>
  <g id="_381450936">
  </g>
  <g id="_381450792">
  </g>
  <g id="_381450648">
  </g>
  <g id="_376573424">
  </g>
  <g id="_376573280">
  </g>
 </g>
</svg>
