<?xml version="1.0" encoding="UTF-8"?>
<!DOCTYPE svg PUBLIC "-//W3C//DTD SVG 1.1//EN" "http://www.w3.org/Graphics/SVG/1.1/DTD/svg11.dtd">
<!-- Creator: CorelDRAW X7 -->
<svg xmlns="http://www.w3.org/2000/svg" xml:space="preserve" width="8.5in" height="11in" version="1.1" style="shape-rendering:geometricPrecision; text-rendering:geometricPrecision; image-rendering:optimizeQuality; fill-rule:evenodd; clip-rule:evenodd"
viewBox="0 0 8500 11000"
 xmlns:xlink="http://www.w3.org/1999/xlink">
 <defs>
  <style type="text/css">
   <![CDATA[
    .fil0 {fill:#888888}
   ]]>
  </style>
 </defs>
 <g id="Layer_x0020_1">
  <metadata id="CorelCorpID_0Corel-Layer"/>
  <g id="_378336368">
   <path class="fil0" d="M6177 1250l-3854 0c-245,0 -445,200 -445,445l0 7610c0,245 200,445 445,445l3854 0c245,0 445,-200 445,-445l0 -7610c0,-245 -200,-445 -445,-445zm-3854 214l3854 0c127,0 231,103 231,231l0 565 -4316 0 0 -565c0,-128 104,-231 231,-231zm4085 1009l0 5878 -4316 0 0 -5878 4316 0zm-231 7063l-3854 0c-127,0 -231,-103 -231,-231l0 -740 4316 0 0 740c0,128 -104,231 -231,231z"/>
   <path class="fil0" d="M3866 1916l768 0c59,0 107,-48 107,-107 0,-59 -48,-107 -107,-107l-768 0c-59,0 -107,48 -107,107 0,59 48,107 107,107z"/>
   <path class="fil0" d="M4250 8705c-192,0 -348,156 -348,348 0,192 156,348 348,348 192,0 348,-156 348,-348 0,-192 -156,-348 -348,-348zm0 482c-74,0 -135,-60 -135,-134 0,-74 61,-135 135,-135 74,0 135,61 135,135 0,74 -61,134 -135,134z"/>
  </g>
 </g>
</svg>
