<?xml version="1.0" encoding="UTF-8"?>
<!DOCTYPE svg PUBLIC "-//W3C//DTD SVG 1.1//EN" "http://www.w3.org/Graphics/SVG/1.1/DTD/svg11.dtd">
<!-- Creator: CorelDRAW X7 -->
<svg xmlns="http://www.w3.org/2000/svg" xml:space="preserve" width="8.5in" height="11in" version="1.1" style="shape-rendering:geometricPrecision; text-rendering:geometricPrecision; image-rendering:optimizeQuality; fill-rule:evenodd; clip-rule:evenodd"
viewBox="0 0 8500 11000"
 xmlns:xlink="http://www.w3.org/1999/xlink">
 <defs>
  <style type="text/css">
   <![CDATA[
    .fil0 {fill:#888888}
   ]]>
  </style>
 </defs>
 <g id="Layer_x0020_1">
  <metadata id="CorelCorpID_0Corel-Layer"/>
  <path class="fil0" d="M579 5480c0,76 -9,155 151,177 189,25 1084,-216 1272,592 -310,0 -621,0 -932,0 -128,0 -364,-35 -447,28 -104,78 -46,250 103,250l7005 0c141,0 204,-158 112,-243 -74,-68 -310,-35 -440,-35 -316,0 -633,0 -949,0 63,-269 234,-478 501,-563 378,-120 923,62 923,-141 0,-62 -12,-164 -98,-164 -529,0 -947,-78 -1298,274 -145,146 -301,370 -306,594l-3895 0c-8,-367 -382,-767 -811,-858 -181,-39 -562,-28 -761,-10 -67,6 -130,34 -130,99zm5164 -4205l0 208 788 0c298,0 598,149 712,441 65,165 286,746 517,1353l361 0c280,0 242,279 12,279l-268 0c268,704 517,1364 517,1364 0,0 54,216 54,362 0,107 0,1601 0,2368 0,399 62,446 -220,450l0 797c0,0 0,132 -128,132 -129,0 -1231,0 -1231,0 0,0 -138,8 -140,-111 -2,-118 0,-435 0,-435 0,-161 261,-150 262,-4 0,35 0,288 0,288l967 0 0 -668 -7421 -2 0 670 966 0c0,0 0,-253 0,-288 2,-146 263,-157 263,4 0,0 2,317 0,435 -2,119 -140,111 -140,111 0,0 -1103,0 -1231,0 -128,0 -128,-132 -128,-132l0 -799c-234,0 -201,-34 -201,-383l0 -2325c0,0 0,-412 87,-599 38,-80 250,-633 480,-1235l-261 0c-227,0 -255,-278 -17,-278l384 -1c207,-546 409,-1080 490,-1295 97,-256 356,-499 641,-499l809 0 0 -206c0,-216 279,-196 279,-2l0 208 2519 0 0 -206c0,-216 278,-196 278,-2zm-5420 6577l0 -2501c0,0 0,-385 82,-560 73,-156 851,-2215 1013,-2644 86,-230 264,-412 514,-412 305,0 3990,0 4532,0 262,0 490,125 587,373 140,358 1065,2804 1065,2804 0,0 51,202 51,338 0,136 0,2580 0,2580l-7844 22zm828 -785c179,0 171,246 0,246 -169,0 -169,-246 0,-246zm-32 524c586,0 589,-802 0,-802 -204,0 -368,195 -374,394 -6,200 176,408 374,408zm6186 -278c-172,0 -176,-246 0,-246 169,0 169,246 0,246zm-409 -131c0,537 800,546 815,15 7,-229 -164,-408 -439,-408 -196,0 -376,196 -376,393zm-4288 0c0,81 66,147 147,147l2946 0c186,0 203,-278 0,-278l-2946 0c-79,0 -147,54 -147,131zm-360 -1670c0,151 149,133 301,132l3365 -1c151,1 295,23 295,-131 0,-170 -192,-125 -425,-126l-3274 -22c-136,-1 -262,18 -262,148zm-1227 -1603c0,100 77,147 180,147l6055 0c255,0 211,-278 33,-278l-6154 0c-54,0 -114,76 -114,131z"/>
 </g>
</svg>
