<?xml version="1.0" encoding="UTF-8"?>
<!DOCTYPE svg PUBLIC "-//W3C//DTD SVG 1.1//EN" "http://www.w3.org/Graphics/SVG/1.1/DTD/svg11.dtd">
<!-- Creator: CorelDRAW X7 -->
<svg xmlns="http://www.w3.org/2000/svg" xml:space="preserve" width="8.5in" height="11in" version="1.1" style="shape-rendering:geometricPrecision; text-rendering:geometricPrecision; image-rendering:optimizeQuality; fill-rule:evenodd; clip-rule:evenodd"
viewBox="0 0 8500 11000"
 xmlns:xlink="http://www.w3.org/1999/xlink">
 <defs>
  <style type="text/css">
   <![CDATA[
    .fil0 {fill:#888888}
   ]]>
  </style>
 </defs>
 <g id="Layer_x0020_1">
  <metadata id="CorelCorpID_0Corel-Layer"/>
  <g id="_228047552">
   <path class="fil0" d="M6658 5854c-103,0 -203,11 -302,27 166,-240 300,-504 398,-789 200,-92 329,-290 329,-513l0 -566c0,-137 -51,-269 -141,-372l0 -754c8,-78 39,-542 -297,-924 -291,-332 -763,-500 -1403,-500 -641,0 -1113,168 -1404,500 -203,231 -272,493 -292,680 -243,-125 -529,-189 -854,-189 -1472,0 -1558,1255 -1559,1275l0 649c-91,100 -141,215 -141,330l0 489c0,153 68,296 185,392 117,441 405,773 517,890l0 389c0,111 -61,214 -166,271l-943 591c-361,197 -585,575 -585,986l0 538 1983 0 284 0 3414 0c284,179 618,284 977,284 1016,0 1842,-827 1842,-1842 0,-1016 -826,-1842 -1842,-1842zm-4675 2800l0 317 -1700 0 0 -255c0,-307 168,-590 445,-741l943 -591c189,-103 306,-301 306,-516l0 -509 -45 -42c-4,-3 -380,-359 -492,-843l-12 -57 -49 -31c-65,-42 -104,-113 -104,-189l0 -489c0,-51 35,-112 95,-166l47 -42 -1 -763c3,-40 77,-999 1276,-999 339,0 624,78 850,232l0 671c-91,103 -142,235 -142,372l0 566c0,43 5,86 14,127 4,16 12,31 17,47 8,24 14,48 25,71 0,0 0,0 0,1 37,74 89,141 156,195 1,2 2,5 2,7 9,33 18,65 27,97l12 37c2,6 4,13 6,19 5,16 10,31 15,46 9,25 18,50 28,78 4,12 9,22 14,34 11,29 23,58 35,86 3,7 6,15 9,21l8 18c3,8 7,16 11,24 14,30 27,59 41,88 3,4 5,9 7,14 9,18 18,34 27,51 15,29 30,57 45,84 8,13 15,25 22,38 20,35 40,67 59,96 4,7 8,13 12,19 34,54 64,97 88,130 7,9 13,17 18,24 3,4 8,10 10,14l0 469c0,137 -75,263 -195,328l-375 205 -92 50 -797 435c-411,224 -666,654 -666,1122zm284 317l0 -317c0,-364 198,-699 518,-873l1264 -690c211,-115 343,-337 343,-577l0 -570 0 0 -28 -33 -5 -6c0,0 -9,-11 -24,-30 0,-1 -1,-2 -2,-3 -8,-10 -17,-22 -27,-36 0,0 0,0 0,0 -21,-30 -48,-68 -77,-114 -1,-1 -1,-2 -2,-3 -14,-22 -29,-45 -44,-70 -1,-2 -2,-4 -3,-6 -32,-54 -66,-114 -100,-182l0 0c-18,-36 -36,-74 -54,-114l0 0c-2,-5 -5,-10 -7,-16l0 0c-8,-18 -16,-36 -24,-55 -2,-7 -5,-15 -8,-22 -7,-18 -15,-37 -23,-58 -14,-39 -28,-79 -41,-121l-8 -25c-1,-3 -2,-5 -2,-8 -14,-45 -27,-91 -37,-138l-13 -56 -48 -31c-83,-53 -132,-142 -132,-238l0 -566c0,-80 34,-154 95,-209l47 -43 0 -882 0 -50 -4 -3c-5,-102 1,-416 230,-677 235,-267 635,-403 1191,-403 553,0 953,135 1188,400 276,312 230,711 230,715l-2 900 47 43c61,55 95,129 95,209l0 566c0,124 -81,232 -201,269l-71 22 -23 70c-94,295 -229,567 -401,809 -42,60 -83,113 -119,153l-35 40 0 54c-36,15 -70,33 -104,50 -9,4 -18,8 -27,12 -31,16 -61,33 -91,51 -16,9 -31,19 -46,28 -28,17 -55,35 -81,53 -17,12 -33,25 -50,38 -41,30 -80,63 -118,97 -19,17 -37,33 -55,50 -20,19 -39,40 -59,61 -16,17 -32,34 -48,52 -18,22 -37,43 -55,66 -14,18 -28,37 -42,56 -29,40 -57,82 -83,124 -13,20 -25,40 -37,60 -14,25 -27,51 -40,77 -11,21 -21,42 -31,64 -11,26 -23,52 -33,78 -11,26 -20,52 -29,79 -11,30 -21,61 -31,93 -11,39 -21,78 -30,118 -4,21 -8,41 -12,62 -6,36 -12,72 -16,109 -3,18 -5,36 -7,55 -5,55 -8,111 -8,167 0,61 3,123 9,183 2,23 7,45 10,68 5,37 10,75 17,111 5,25 12,49 18,74 8,33 16,67 26,101 7,22 16,44 23,66 12,35 24,69 38,103 8,19 17,37 26,55 16,36 32,72 51,107 8,15 17,30 26,45 21,36 42,73 66,108 8,13 18,25 27,38 25,35 50,70 78,104 10,12 21,24 32,36 22,26 43,52 66,76l-3063 0 0 0zm4391 283c-320,0 -617,-97 -865,-263 -48,-32 -94,-67 -138,-104 -15,-13 -29,-27 -44,-41 -28,-25 -55,-51 -81,-78 -16,-18 -32,-35 -48,-53 -23,-27 -45,-55 -66,-83 -14,-18 -28,-35 -41,-54 -31,-45 -61,-92 -87,-141 -6,-11 -11,-23 -17,-34 -20,-41 -40,-82 -57,-124 -7,-19 -14,-37 -20,-56 -14,-37 -26,-75 -36,-113 -6,-20 -11,-39 -16,-59 -9,-41 -17,-81 -23,-123 -3,-17 -6,-35 -8,-53 -7,-59 -11,-119 -11,-179 0,-48 3,-96 7,-143 2,-16 4,-33 6,-49 4,-30 8,-59 14,-89 3,-19 7,-39 11,-59 6,-25 13,-50 20,-75 6,-21 11,-42 17,-62 13,-38 26,-75 41,-112 11,-25 22,-49 34,-73 7,-16 14,-32 23,-47 12,-25 25,-48 39,-72 8,-14 17,-29 26,-43 14,-23 29,-46 45,-69 8,-11 17,-22 25,-34 33,-44 69,-87 107,-128 8,-9 16,-19 25,-28 20,-20 40,-39 61,-58 11,-11 23,-22 35,-33 22,-18 44,-36 66,-54 11,-9 23,-17 34,-26 25,-18 50,-36 76,-53 1,-1 3,-2 5,-3 97,-62 202,-114 314,-155 9,-3 18,-7 28,-10l42 -15c144,-44 298,-68 457,-68 860,0 1559,699 1559,1558 0,859 -699,1558 -1559,1558z"/>
   <path class="fil0" d="M7508 7554l-708 0 0 -708c0,-79 -63,-142 -142,-142 -78,0 -141,63 -141,142l0 708 -709 0c-78,0 -141,63 -141,142 0,78 63,141 141,141l709 1 0 708c0,78 63,142 141,142 79,0 142,-64 142,-142l0 -708 708 0c79,0 142,-64 142,-142 0,-79 -63,-142 -142,-142z"/>
  </g>
  <g id="_228047264">
  </g>
  <g id="_228047360">
  </g>
  <g id="_228051848">
  </g>
  <g id="_228051128">
  </g>
  <g id="_228050984">
  </g>
  <g id="_228050720">
  </g>
  <g id="_228050504">
  </g>
  <g id="_228050552">
  </g>
  <g id="_228050456">
  </g>
  <g id="_228050216">
  </g>
  <g id="_228050048">
  </g>
  <g id="_228049736">
  </g>
  <g id="_228049784">
  </g>
  <g id="_228049664">
  </g>
  <g id="_228049448">
  </g>
 </g>
</svg>
