<?xml version="1.0" encoding="UTF-8"?>
<!DOCTYPE svg PUBLIC "-//W3C//DTD SVG 1.1//EN" "http://www.w3.org/Graphics/SVG/1.1/DTD/svg11.dtd">
<!-- Creator: CorelDRAW X7 -->
<svg xmlns="http://www.w3.org/2000/svg" xml:space="preserve" width="1.03333in" height="0.299992in" version="1.1" style="shape-rendering:geometricPrecision; text-rendering:geometricPrecision; image-rendering:optimizeQuality; fill-rule:evenodd; clip-rule:evenodd"
viewBox="0 0 1033 300"
 xmlns:xlink="http://www.w3.org/1999/xlink">
 <defs>
  <style type="text/css">
   <![CDATA[
    .fil0 {fill:#E04F67}
    .fil1 {fill:white}
    .fil2 {fill:white}
    .fil4 {fill:white}
    .fil3 {fill:white;fill-rule:nonzero}
   ]]>
  </style>
 </defs>
 <g id="Layer_x0020_1">
  <metadata id="CorelCorpID_0Corel-Layer"/>
  <circle class="fil0" cx="142" cy="150" r="139"/>
  <path class="fil1" d="M174 176c31,2 28,55 -1,61 -1,-3 -4,-5 -7,-5 -3,0 -6,2 -8,5l-6 0 -26 0c-1,-3 -4,-5 -7,-5 -3,0 -6,2 -8,5 -4,-1 -7,-2 -9,-4 -4,-3 -5,-7 -5,-13l0 -88c0,-6 1,-10 5,-13 3,-3 8,-5 14,-5l6 0 0 -1 0 -47 -9 0 0 -13 52 0 0 13 -9 0 0 49c9,0 17,3 23,7 18,14 16,48 -5,54zm-43 -62c5,0 11,0 16,0 2,0 2,1 2,-1 0,-15 0,-31 0,-46 0,-1 0,-1 -2,-1 -5,0 -11,0 -16,0 -2,0 -1,-1 -1,1 0,15 0,31 0,46 0,2 -1,1 1,1zm31 84c-1,2 -4,10 -4,13 0,7 15,7 15,0 0,-3 -3,-10 -4,-14 1,0 1,-1 1,-2l0 0c0,-1 -1,-2 -2,-2l-49 0c-1,0 -2,1 -2,2l0 0c0,2 1,3 2,3l43 0zm0 10l7 0c1,0 2,1 2,2 0,1 -1,2 -2,2l-7 0c-1,0 -2,-1 -2,-2 0,-1 1,-2 2,-2zm-29 -50c4,0 9,0 13,0 11,-3 10,-17 -1,-19 -4,0 -8,0 -12,0l0 19z"/>
  <circle class="fil2" cx="119" cy="240" r="6"/>
  <circle class="fil2" cx="166" cy="240" r="6"/>
  <g id="_501135440">
   <path class="fil3" d="M392 239l0 -21c0,-2 1,-3 2,-4 0,0 1,-1 3,-1l6 0c4,0 7,1 10,3 2,1 3,3 4,5 1,3 1,5 1,7 0,3 0,6 -1,8 -2,2 -3,4 -5,6 -2,1 -5,1 -8,1l-7 0c-2,0 -3,0 -3,-1 -1,0 -2,-1 -2,-3zm7 -2l4 0c2,0 4,0 6,-2 1,-1 2,-4 2,-7 0,-3 -1,-5 -3,-7 -1,-1 -3,-2 -6,-2l-3 0 0 18zm30 -6l0 9c0,1 0,2 0,3 -1,1 -2,1 -3,1 -1,0 -2,0 -3,-1 0,-1 0,-2 0,-3l0 -22c0,-2 0,-3 1,-3 0,-1 1,-2 3,-2l7 0c3,0 5,1 7,3 1,1 2,2 2,3 1,1 1,2 1,3 0,3 -1,5 -2,7 -1,1 -3,2 -5,2l6 6c1,1 1,2 2,3 0,0 0,1 0,1 0,1 -1,1 -1,2 -1,1 -1,1 -2,1 -2,0 -3,-1 -4,-2l-9 -11zm0 -5l5 0c1,0 2,0 2,-1 1,0 1,-1 1,-2 0,-1 0,-2 -1,-3 0,0 -1,-1 -2,-1l-5 0 0 7zm28 -6l0 5 6 0c1,0 2,1 2,1 1,1 1,1 1,2 0,1 0,2 -1,3 0,0 -1,0 -2,0l-6 0 0 6 7 0c1,0 1,1 2,1 1,1 1,1 1,2 0,1 0,2 -1,3 -1,0 -1,0 -2,0l-10 0c-2,0 -3,0 -3,-1 -1,0 -1,-1 -1,-3l0 -21c0,-2 0,-3 1,-4 0,0 1,-1 3,-1l10 0c1,0 1,1 2,1 1,1 1,2 1,2 0,1 0,2 -1,3 -1,0 -1,1 -2,1l-7 0zm32 18l-11 0 -1 2c-1,3 -2,4 -3,4 -1,0 -2,0 -3,-1 0,0 -1,-1 -1,-2 0,-1 0,-1 0,-2l8 -22c1,-2 1,-2 2,-3 1,-1 2,-1 3,-1 2,0 3,0 4,1 0,1 1,1 2,3l8 22c0,1 0,1 0,2 0,1 -1,2 -1,2 -1,1 -2,1 -3,1 -1,0 -1,0 -2,-1 0,0 -1,-1 -1,-2l-1 -3zm-2 -6l-3 -12 -4 12 7 0zm22 -6l-3 15c0,1 0,1 -1,2 -1,1 -2,1 -3,1 -1,0 -1,0 -2,-1 0,-1 -1,-2 -1,-3l4 -23c0,-1 1,-2 1,-3 1,-1 2,-1 3,-1 2,0 3,0 3,1 1,0 2,1 2,2l5 15 5 -14c0,-1 1,-2 1,-3 1,-1 2,-1 3,-1 1,0 2,0 3,1 1,1 2,1 2,3l4 22c0,3 -1,5 -3,5 -2,0 -3,-1 -3,-1 -1,-1 -1,-2 -1,-3l-2 -14 -5 14c0,1 0,2 -1,2 0,1 0,1 -1,1 0,1 -1,1 -2,1 -1,0 -2,0 -2,-1 -1,0 -1,-1 -2,-2l-4 -15zm62 -6l0 5 6 0c1,0 2,1 3,1 0,1 1,1 1,2 0,1 -1,2 -1,3 -1,0 -2,0 -3,0l-6 0 0 6 7 0c1,0 2,1 3,1 0,1 1,1 1,2 0,1 -1,2 -1,3 -1,0 -2,0 -3,0l-10 0c-1,0 -2,0 -3,-1 -1,0 -1,-1 -1,-3l0 -21c0,-2 0,-3 1,-4 1,0 2,-1 3,-1l10 0c1,0 2,1 3,1 0,1 1,2 1,2 0,1 -1,2 -1,3 -1,0 -2,1 -3,1l-7 0zm31 7l8 11c1,1 1,2 1,2 0,1 0,2 -1,3 0,1 -1,1 -2,1 -1,0 -3,-1 -4,-2l-6 -9 -6 9c-1,1 -2,2 -4,2 -1,0 -1,0 -2,-1 0,-1 -1,-2 -1,-3 0,0 1,-1 1,-2l8 -11 -6 -8c-1,-1 -1,-2 -1,-2 0,-1 0,-2 1,-3 0,-1 1,-1 2,-1 1,0 2,1 3,2l5 7 5 -7c1,-1 2,-2 3,-2 1,0 2,0 3,1 0,1 0,2 0,3 0,0 0,1 -1,2l-6 8zm20 7l0 6c0,1 0,2 -1,3 0,1 -1,1 -2,1 -1,0 -2,0 -3,-1 0,-1 -1,-2 -1,-3l0 -22c0,-2 1,-3 1,-4 1,0 2,-1 3,-1l8 0c3,0 5,1 7,3 1,0 1,1 2,2 0,1 1,2 1,3 0,0 0,1 0,2 0,3 0,6 -2,7 -2,3 -4,4 -8,4l-5 0zm0 -6l4 0c1,0 2,-1 3,-2 1,0 1,-1 1,-3 0,-1 0,-2 -1,-3 -1,0 -2,-1 -3,-1l-4 0 0 9zm26 9l7 0c1,0 2,1 3,1 1,1 1,1 1,2 0,1 0,2 -1,3 -1,0 -2,0 -3,0l-9 0c-2,0 -3,0 -3,-1 -1,0 -2,-1 -2,-3l0 -22c0,-1 1,-2 1,-3 1,-1 2,-1 3,-1 1,0 2,0 2,1 1,1 1,2 1,3l0 20zm10 -9c0,-2 1,-4 2,-6 0,-2 2,-4 3,-6 3,-2 6,-3 10,-3 2,0 4,0 6,1 2,1 4,2 5,3 1,2 2,3 3,5 1,2 1,4 1,6 0,3 0,5 -1,7 -1,2 -2,4 -4,6 -1,1 -3,2 -4,2 -2,1 -4,1 -6,1 -2,0 -4,0 -6,-1 -2,-1 -3,-2 -5,-3 -2,-3 -4,-7 -4,-12zm8 0c0,2 0,3 1,5 0,1 1,3 2,4 1,1 3,1 4,1 2,0 3,0 5,-1 1,-1 1,-2 2,-4 1,-1 1,-3 1,-5 0,-1 -1,-3 -1,-4 -1,-2 -1,-3 -3,-4 -1,-1 -2,-1 -4,-1 -1,0 -2,0 -3,0 -1,1 -1,1 -2,2 -2,2 -2,4 -2,7zm33 3l0 9c0,1 0,2 -1,3 0,1 -1,1 -2,1 -1,0 -2,0 -3,-1 0,-1 -1,-2 -1,-3l0 -22c0,-2 1,-3 1,-3 1,-1 2,-2 4,-2l7 0c3,0 5,1 7,3 1,1 2,2 2,3 1,1 1,2 1,3 0,3 -1,5 -2,7 -1,1 -3,2 -5,2l6 6c1,1 1,2 1,3 1,0 1,1 1,1 0,1 -1,1 -1,2 -1,1 -2,1 -2,1 -2,0 -3,-1 -4,-2l-9 -11zm0 -5l5 0c1,0 2,0 2,-1 1,0 1,-1 1,-2 0,-1 0,-2 -1,-3 -1,0 -2,-1 -3,-1l-4 0 0 7zm27 -6l0 5 7 0c1,0 2,1 2,1 1,1 1,1 1,2 0,1 0,2 -1,3 0,0 -1,0 -2,0l-7 0 0 6 7 0c1,0 2,1 3,1 1,1 1,1 1,2 0,1 0,2 -1,3 -1,0 -2,0 -3,0l-9 0c-2,0 -3,0 -3,-1 -1,0 -2,-1 -2,-3l0 -21c0,-2 1,-3 2,-4 0,0 1,-1 3,-1l9 0c1,0 2,1 3,1 1,1 1,2 1,2 0,1 0,2 -1,3 -1,0 -2,1 -3,1l-7 0zm41 19l0 -21c0,-2 0,-3 1,-4 1,0 2,-1 3,-1l7 0c4,0 7,1 9,3 2,1 3,3 4,5 1,3 2,5 2,7 0,3 -1,6 -2,8 -1,2 -3,4 -5,6 -2,1 -4,1 -7,1l-8 0c-1,0 -2,0 -3,-1 -1,0 -1,-1 -1,-3zm7 -2l3 0c3,0 5,0 6,-2 2,-1 2,-4 2,-7 0,-3 0,-5 -2,-7 -2,-1 -4,-2 -6,-2l-3 0 0 18zm23 3l0 -23c0,-1 0,-2 1,-3 1,-1 1,-1 3,-1 1,0 1,0 2,1 1,1 1,2 1,3l0 23c0,1 0,2 -1,3 -1,1 -1,1 -2,1 -2,0 -2,0 -3,-1 -1,-1 -1,-2 -1,-3zm12 -18c0,-2 0,-3 1,-5 1,-1 3,-2 4,-3 2,-1 4,-1 6,-1 1,0 2,0 3,0 2,0 3,1 4,1 1,1 1,2 1,3 0,1 0,2 -1,2 0,1 -1,1 -2,1 0,0 -1,0 -1,0l-1 0c-1,-1 -2,-1 -3,-1 -1,0 -2,0 -3,1 0,0 -1,1 -1,2 0,1 1,2 3,2l2 1c3,0 5,2 7,3 1,1 2,3 2,6 0,3 -1,5 -2,7 -1,1 -3,2 -4,2 -2,1 -3,1 -5,1 -3,0 -6,0 -8,-1 -1,-1 -1,-1 -2,-2 0,0 0,-1 0,-2 0,-1 0,-2 0,-2 1,-1 2,-1 3,-1 0,0 1,0 1,0l3 1c1,1 2,1 3,1 1,0 2,0 3,-1 1,-1 1,-1 1,-2 0,-1 0,-2 -1,-3 -1,0 -1,0 -2,0 -1,-1 -2,-1 -3,-1 -2,-1 -3,-1 -4,-2 -2,-1 -3,-1 -3,-3 -1,-1 -1,-2 -1,-4zm25 6c0,-3 0,-5 1,-6 1,-2 2,-4 3,-5 1,-1 3,-3 5,-3 2,-1 4,-1 6,-1 1,0 2,0 4,0 1,0 2,1 3,2 1,0 2,1 2,2 0,1 0,2 -1,3 0,0 -1,1 -2,1 0,0 -1,-1 -3,-1 -1,-1 -2,-1 -3,-1 -2,0 -3,1 -4,1 -2,1 -2,2 -3,4 0,1 -1,3 -1,4 0,4 1,6 3,8 1,1 3,2 5,2 1,0 2,0 3,-1l2 -1c0,0 1,0 1,0 1,0 2,0 2,1 1,1 1,1 1,2 0,2 -1,3 -2,4 -2,1 -4,1 -7,1 -2,0 -4,0 -6,-1 -2,0 -3,-1 -5,-3 -3,-3 -4,-7 -4,-12zm27 0c0,-2 0,-4 1,-6 1,-2 2,-4 4,-6 2,-2 6,-3 10,-3 2,0 4,0 6,1 2,1 3,2 5,3 1,2 2,3 3,5 0,2 1,4 1,6 0,3 -1,5 -2,7 0,2 -2,4 -3,6 -2,1 -3,2 -5,2 -2,1 -3,1 -5,1 -2,0 -4,0 -6,-1 -2,-1 -4,-2 -5,-3 -3,-3 -4,-7 -4,-12zm7 0c0,2 0,3 1,5 1,1 1,3 2,4 2,1 3,1 5,1 1,0 3,0 4,-1 1,-1 2,-2 2,-4 1,-1 1,-3 1,-5 0,-1 0,-3 -1,-4 0,-2 -1,-3 -2,-4 -1,-1 -3,-1 -4,-1 -1,0 -2,0 -3,0 -1,1 -2,1 -3,2 -1,2 -2,4 -2,7zm37 4l6 -16c0,-1 1,-2 1,-2 1,-1 1,-1 2,-1 1,0 1,0 2,0 0,1 1,1 1,1 1,1 1,1 1,2 0,1 0,1 0,2l-10 23c0,2 -1,3 -3,3 -1,0 -1,0 -2,-1 -1,0 -1,-1 -1,-1l-10 -24c0,-1 0,-1 0,-2 0,-1 0,-2 1,-2 1,-1 2,-1 3,-1 0,0 1,0 2,1 0,0 0,1 1,2l6 16zm24 -12l0 5 6 0c1,0 2,1 3,1 0,1 1,1 1,2 0,1 -1,2 -1,3 -1,0 -2,0 -3,0l-6 0 0 6 7 0c1,0 2,1 2,1 1,1 1,1 1,2 0,1 0,2 -1,3 0,0 -1,0 -2,0l-10 0c-1,0 -2,0 -3,-1 -1,0 -1,-1 -1,-3l0 -21c0,-2 0,-3 1,-4 1,0 2,-1 3,-1l10 0c1,0 2,1 2,1 1,1 1,2 1,2 0,1 0,2 -1,3 0,0 -1,1 -2,1l-7 0zm22 11l0 9c0,1 0,2 -1,3 -1,1 -1,1 -3,1 -1,0 -1,0 -2,-1 -1,-1 -1,-2 -1,-3l0 -22c0,-2 0,-3 1,-3 1,-1 2,-2 3,-2l7 0c3,0 6,1 8,3 1,1 1,2 2,3 0,1 1,2 1,3 0,3 -1,5 -3,7 -1,1 -2,2 -4,2l5 6c1,1 2,2 2,3 0,0 0,1 0,1 0,1 0,1 -1,2 0,1 -1,1 -2,1 -1,0 -2,-1 -3,-2l-9 -11zm0 -5l4 0c1,0 2,0 3,-1 1,0 1,-1 1,-2 0,-1 0,-2 -1,-3 -1,0 -2,-1 -3,-1l-4 0 0 7z"/>
   <path class="fil4" d="M548 222c4,0 6,3 6,6 0,4 -2,6 -6,6 -3,0 -5,-2 -5,-6 0,-3 2,-6 5,-6z"/>
   <path class="fil4" d="M751 222c3,0 6,3 6,6 0,4 -3,6 -6,6 -3,0 -6,-2 -6,-6 0,-3 3,-6 6,-6z"/>
  </g>
  <path class="fil3" d="M354 110c5,-4 11,-6 16,-6 5,0 9,1 13,3 4,2 8,5 11,8 3,4 5,8 7,12 1,5 2,9 2,14 0,12 -4,22 -11,30 -6,6 -13,9 -21,9 -8,0 -14,-3 -18,-9 -2,6 -5,8 -9,8 -4,0 -6,-1 -8,-3 -2,-2 -3,-5 -3,-8l0 -83c0,-2 0,-4 1,-6 1,-2 2,-3 3,-4 2,-1 4,-1 6,-1 3,0 6,1 8,3 2,2 3,5 3,8l0 25zm-1 32c0,5 2,9 4,13 3,3 7,5 11,5 3,0 6,-1 8,-3 2,-1 3,-4 5,-6 1,-3 1,-6 1,-9 0,-5 -1,-9 -4,-12 -2,-4 -6,-6 -10,-6 -3,0 -6,1 -8,3 -2,1 -4,4 -5,6 -1,3 -2,6 -2,9zm82 7c1,4 3,7 6,9 3,2 6,3 10,3 4,0 8,-1 12,-2l6 -3c1,-1 2,-1 4,-1 1,0 3,0 4,1 2,1 3,2 3,3 1,1 2,3 2,4 0,4 -3,8 -9,11 -7,4 -14,6 -23,6 -6,0 -12,-1 -17,-4 -5,-2 -9,-5 -13,-10 -5,-6 -8,-14 -8,-24 0,-7 2,-13 5,-19 3,-6 7,-10 13,-14 6,-3 12,-5 18,-5 7,0 13,2 18,5 5,3 9,8 12,13 3,5 5,11 5,17 0,4 -1,6 -2,8 -2,1 -4,2 -7,2l-39 0zm27 -14c-2,-9 -7,-13 -14,-13 -6,0 -11,4 -14,13l28 0zm62 -9l0 42c0,3 -1,6 -3,8 -1,2 -4,3 -7,3 -3,0 -6,-1 -8,-3 -2,-2 -3,-5 -3,-8l0 -42 -3 0c-3,0 -5,-1 -7,-3 -2,-2 -3,-4 -3,-7 0,-3 1,-5 3,-7 2,-2 4,-2 7,-2l3 0 0 -11c0,-7 3,-12 7,-16 4,-4 9,-6 15,-6 9,0 13,3 13,9 0,3 -1,5 -2,7 -1,2 -3,3 -6,3 -2,0 -4,0 -4,1 -1,1 -2,2 -2,4l0 9 6 0c3,0 6,0 8,2 2,2 3,4 3,7 0,3 -1,5 -3,7 -2,2 -5,3 -8,3l-6 0zm51 -14c5,-5 10,-7 14,-7 3,0 6,0 8,2 2,2 3,5 3,8 0,3 0,5 -2,6 -2,2 -5,3 -8,4 -6,2 -9,3 -12,5 -2,2 -3,5 -3,9l0 29c0,3 -1,6 -3,8 -1,2 -4,3 -7,3 -4,0 -6,-1 -8,-3 -2,-2 -3,-5 -3,-8l0 -51c0,-4 1,-7 3,-9 2,-2 4,-3 7,-3 5,0 9,2 11,7zm50 37c1,4 3,7 6,9 3,2 6,3 10,3 4,0 8,-1 12,-2l6 -3c1,-1 2,-1 4,-1 1,0 2,0 4,1 1,1 2,2 3,3 1,1 2,3 2,4 0,4 -3,8 -9,11 -7,4 -15,6 -23,6 -6,0 -12,-1 -17,-4 -5,-2 -10,-5 -13,-10 -5,-6 -8,-14 -8,-24 0,-7 2,-13 5,-19 3,-6 7,-10 13,-14 5,-3 11,-5 18,-5 6,0 12,2 18,5 5,3 9,8 12,13 3,5 5,11 5,17 0,4 -1,6 -2,8 -2,1 -4,2 -7,2l-39 0zm27 -14c-2,-9 -7,-13 -14,-13 -7,0 -11,4 -14,13l28 0zm52 14c2,4 4,7 7,9 3,2 6,3 10,3 4,0 8,-1 11,-2l6 -3c1,-1 3,-1 4,-1 2,0 3,0 5,1 1,1 2,2 3,3 1,1 1,3 1,4 0,4 -2,8 -8,11 -7,4 -15,6 -24,6 -5,0 -11,-1 -16,-4 -5,-2 -10,-5 -13,-10 -6,-6 -8,-14 -8,-24 0,-7 1,-13 5,-19 3,-6 7,-10 13,-14 5,-3 11,-5 18,-5 6,0 12,2 18,5 5,3 9,8 12,13 3,5 5,11 5,17 0,4 -1,6 -2,8 -2,1 -4,2 -7,2l-40 0zm28 -14c-2,-9 -7,-13 -14,-13 -7,0 -11,4 -14,13l28 0zm61 -10l0 43c0,3 -1,6 -2,8 -2,2 -5,3 -8,3 -3,0 -6,-1 -8,-3 -2,-2 -3,-5 -3,-8l0 -43c-5,0 -8,-1 -10,-3 -2,-2 -3,-4 -3,-7 0,-1 1,-3 2,-4 0,-2 2,-3 3,-4 2,-1 4,-1 8,-1l0 -13c0,-4 1,-6 3,-9 2,-2 5,-3 8,-3 3,0 6,1 7,3 2,3 3,5 3,9l0 13 6 0c3,0 6,1 8,2 2,2 3,4 3,7 0,3 -1,6 -3,7 -2,2 -5,3 -8,3l-6 0zm24 17c0,-5 0,-10 2,-14 2,-5 4,-9 7,-12 3,-4 7,-7 12,-9 4,-2 9,-3 14,-3 5,0 9,1 14,3 4,2 8,5 11,9 4,3 6,7 7,12 2,4 3,9 3,14 0,5 -1,10 -3,14 -1,5 -3,9 -7,12 -3,4 -7,7 -11,9 -5,2 -9,3 -14,3 -5,0 -10,-1 -14,-3 -5,-2 -9,-5 -12,-9 -6,-6 -9,-15 -9,-26zm20 0c0,3 1,6 2,9 1,2 3,5 5,6 2,2 4,3 7,3 3,0 6,-1 8,-3 2,-1 4,-4 5,-6 2,-3 2,-6 2,-9 0,-3 0,-6 -2,-9 -1,-2 -2,-5 -5,-6 -2,-2 -5,-3 -8,-3 -4,0 -7,2 -10,6 -2,3 -4,7 -4,12zm128 -25l0 33c0,7 -2,13 -5,17 -3,4 -7,7 -12,9 -5,3 -10,4 -16,4 -5,0 -10,-1 -15,-4 -5,-2 -9,-5 -12,-9 -4,-4 -5,-10 -5,-17l0 -33c0,-4 1,-7 3,-9 1,-2 4,-3 7,-3 3,0 6,1 8,3 2,2 3,5 3,9l0 30c0,4 1,7 3,9 2,3 5,4 8,4 3,0 6,-1 9,-4 2,-2 3,-5 3,-9l0 -30c0,-4 1,-7 3,-9 2,-2 4,-3 7,-3 4,0 6,1 8,3 2,2 3,5 3,9zm37 -5c6,-5 10,-7 15,-7 3,0 5,0 7,2 3,2 4,5 4,8 0,3 -1,5 -3,6 -2,2 -4,3 -8,4 -5,2 -9,3 -11,5 -2,2 -4,5 -4,9l0 29c0,3 0,6 -2,8 -2,2 -5,3 -8,3 -3,0 -6,-1 -8,-3 -2,-2 -3,-5 -3,-8l0 -51c0,-4 1,-7 3,-9 2,-2 5,-3 8,-3 5,0 8,2 10,7z"/>
 </g>
</svg>
