<svg xmlns="http://www.w3.org/2000/svg" xmlns:xlink="http://www.w3.org/1999/xlink" viewBox="0 0 200.27 49.19"><defs><linearGradient id="a" x1="24.6" y1="49.19" x2="24.6" gradientUnits="userSpaceOnUse"><stop offset="0" stop-color="#bb1f39"/><stop offset="0.63" stop-color="#d63956"/><stop offset="1" stop-color="#e04361"/></linearGradient></defs><title>befreetour-com</title><circle cx="24.6" cy="24.6" r="24.6" style="fill:url(#a)"/><path d="M29.18,29.25c5.32.38,4.74,9.67-.45,10.16v.42a.66.66,0,0,1-.66.66h-.4a.66.66,0,0,1-.66-.66v-.39H20.8v.38a.66.66,0,0,1-.66.66h-.4a.66.66,0,0,1-.66-.66v-.4a3.33,3.33,0,0,1-1.93-.73,2.64,2.64,0,0,1-.87-2.11V21.79a2.63,2.63,0,0,1,.88-2.1,3.62,3.62,0,0,1,2.45-.76h.89V10.8H19V8.71h8.86V10.8H26.21V19A7.45,7.45,0,0,1,30,20.22c3,2.23,2.66,8-.82,9ZM21.8,18.93H25V10.8H21.8v8.13Zm5.41,13.89A9.81,9.81,0,0,0,26.54,35c.05,1.24,2.38,1.25,2.53,0a7.87,7.87,0,0,0-.71-2.22.39.39,0,0,0,.23-.35h0a.38.38,0,0,0-.38-.38H20a.38.38,0,0,0-.38.38h0a.38.38,0,0,0,.38.38Zm0,1.79a.27.27,0,0,0,0,.55h1.19a.27.27,0,0,0,0-.55Zm-4.84-8.42a13.27,13.27,0,0,0,2.2-.06,1.53,1.53,0,0,0-.16-3,16.34,16.34,0,0,0-2,0Z" style="fill:#fff;fill-rule:evenodd"/><path d="M71.44,24.19a6.11,6.11,0,0,0-2.26-1.11l-1.08-.32,1-.59a4.35,4.35,0,0,0,1.59-1.49,4.35,4.35,0,0,0,.47-2.16,3.73,3.73,0,0,0-.39-1.65,4.25,4.25,0,0,0-1.06-1.38,5.63,5.63,0,0,0-3.7-1.1H61.55a2,2,0,0,0-2.21,2.21v14a2.19,2.19,0,0,0,.56,1.64,2.22,2.22,0,0,0,1.65.57H67.4a5.56,5.56,0,0,0,2.78-.71,5.07,5.07,0,0,0,2-2,5.58,5.58,0,0,0,.71-2.78A4,4,0,0,0,71.44,24.19Zm-8.64-6.9h2.53a3,3,0,0,1,1.74.51,1.88,1.88,0,0,1,.86,1.62,2.28,2.28,0,0,1-.69,1.69,2.34,2.34,0,0,1-1.7.67H62.8Zm5.81,11.82a2.81,2.81,0,0,1-2.23.82H62.8V24.74h3.46c2.44,0,2.89,1.54,2.95,2.46A2.7,2.7,0,0,1,68.61,29.11Z" style="fill:#fff"/><path d="M88.36,29.16a1.27,1.27,0,0,0-.64-.18,1.72,1.72,0,0,0-.59.15l-1.23.61A4.69,4.69,0,0,1,81,29.6a4.11,4.11,0,0,1-1.45-2.09l-.23-.66H88a1.47,1.47,0,0,0,1-.31,1.68,1.68,0,0,0,.3-1.14,6.73,6.73,0,0,0-.86-3.32,6.58,6.58,0,0,0-2.37-2.43,6.49,6.49,0,0,0-3.32-.9,6.61,6.61,0,0,0-3.47,1,7,7,0,0,0-2.49,2.59,7.27,7.27,0,0,0-.91,3.55,7.17,7.17,0,0,0,1.49,4.7,6.65,6.65,0,0,0,2.51,1.89A7.72,7.72,0,0,0,83,33.1,9.1,9.1,0,0,0,87.59,32c1-.55,1.46-1.14,1.46-1.74a1.1,1.1,0,0,0-.18-.59A1.24,1.24,0,0,0,88.36,29.16Zm-9-4.89c.66-2,1.78-3,3.33-3,1.2,0,2.76.53,3.4,3.06l.16.62h-7.1Z" style="fill:#fff"/><path d="M100.61,19.59a1.8,1.8,0,0,0-1.21-.4H97.7V17.06a1.56,1.56,0,0,1,.45-1.25,2,2,0,0,1,1.21-.41,1.14,1.14,0,0,0,.87-.4,1.48,1.48,0,0,0,.32-1c0-.42,0-1.42-2.18-1.42a3.83,3.83,0,0,0-2.69,1,3.71,3.71,0,0,0-1.26,3v2.62H93.31a1.85,1.85,0,0,0-1.22.41,1.2,1.2,0,0,0-.44,1,1.31,1.31,0,0,0,.44,1.06,1.85,1.85,0,0,0,1.22.4h1.11v9.06a2.05,2.05,0,0,0,.47,1.37,1.45,1.45,0,0,0,1.19.52,1.42,1.42,0,0,0,1.17-.51,2,2,0,0,0,.45-1.38V22.07h1.7a1.8,1.8,0,0,0,1.2-.41,1.29,1.29,0,0,0,.45-1A1.21,1.21,0,0,0,100.61,19.59Z" style="fill:#fff"/><path d="M112.73,19.25c-.89-.79-2.25-.61-3.77,1l-.51.53-.31-.66a1.86,1.86,0,0,0-1.76-1.23,1.51,1.51,0,0,0-1.17.56,2,2,0,0,0-.39,1.39V31.13a2,2,0,0,0,.46,1.37,1.39,1.39,0,0,0,1.16.52,1.48,1.48,0,0,0,1.2-.51,2,2,0,0,0,.45-1.38V25.28a2.56,2.56,0,0,1,.86-2.14A8.36,8.36,0,0,1,111.37,22a5.3,5.3,0,0,0,1.51-.68,1.1,1.1,0,0,0,.34-.94A1.39,1.39,0,0,0,112.73,19.25Z" style="fill:#fff"/><path d="M127,29.16a1.32,1.32,0,0,0-.64-.18,1.72,1.72,0,0,0-.59.15l-1.23.61a4.69,4.69,0,0,1-5-.14,4.05,4.05,0,0,1-1.45-2.09l-.24-.66h8.69a1.48,1.48,0,0,0,1-.31A1.76,1.76,0,0,0,128,25.4a6.73,6.73,0,0,0-.86-3.32,6.49,6.49,0,0,0-5.69-3.33,6.67,6.67,0,0,0-3.47,1,6.93,6.93,0,0,0-2.48,2.59,7.16,7.16,0,0,0-.91,3.55,7.22,7.22,0,0,0,1.48,4.7,6.68,6.68,0,0,0,2.52,1.89,7.64,7.64,0,0,0,3.15.66A9.07,9.07,0,0,0,126.25,32c1-.55,1.47-1.14,1.47-1.74a1.1,1.1,0,0,0-.18-.59A1.31,1.31,0,0,0,127,29.16Zm-9-4.89c.66-2,1.78-3,3.33-3,1.19,0,2.75.53,3.39,3.06l.16.62h-7.09Z" style="fill:#fff"/><path d="M143.31,29.16a1.33,1.33,0,0,0-.65-.18,1.72,1.72,0,0,0-.59.15l-1.23.61a4.69,4.69,0,0,1-5-.14,4.11,4.11,0,0,1-1.45-2.09l-.23-.66h8.69a1.48,1.48,0,0,0,1-.31,1.76,1.76,0,0,0,.29-1.14,6.73,6.73,0,0,0-.86-3.32A6.58,6.58,0,0,0,141,19.65a6.46,6.46,0,0,0-3.32-.9,6.64,6.64,0,0,0-3.47,1,7,7,0,0,0-2.49,2.59,7.26,7.26,0,0,0-.9,3.55,7.22,7.22,0,0,0,1.48,4.7,6.73,6.73,0,0,0,2.51,1.89,7.72,7.72,0,0,0,3.16.66A9.1,9.1,0,0,0,142.53,32c1-.55,1.47-1.14,1.47-1.74a1,1,0,0,0-.19-.59A1.28,1.28,0,0,0,143.31,29.16Zm-9-4.89c.66-2,1.77-3,3.32-3,1.2,0,2.76.53,3.4,3.06l.16.62h-7.1Z" style="fill:#fff"/><path d="M155.46,19.47a1.8,1.8,0,0,0-1.21-.4h-1.73V15.9a2,2,0,0,0-.45-1.38A1.43,1.43,0,0,0,150.9,14a1.48,1.48,0,0,0-1.2.51,2.1,2.1,0,0,0-.45,1.38v3.17h-.5a3.5,3.5,0,0,0-1.46.21,1.16,1.16,0,0,0-.49.49,1.54,1.54,0,0,0-.21.73,1.35,1.35,0,0,0,.37,1c.19.22.65.48,1.79.48h.5v9.18a2,2,0,0,0,.46,1.37,1.45,1.45,0,0,0,1.19.52,1.42,1.42,0,0,0,1.17-.51,2,2,0,0,0,.45-1.38V21.95h1.73a1.83,1.83,0,0,0,1.21-.41,1.28,1.28,0,0,0,.44-1A1.23,1.23,0,0,0,155.46,19.47Z" style="fill:#fff"/><path d="M171.13,23.18a6.37,6.37,0,0,0-1.33-2.26,6.75,6.75,0,0,0-4.86-2.17,6.46,6.46,0,0,0-2.65.58,6.62,6.62,0,0,0-2.23,1.6,6.26,6.26,0,0,0-1.33,2.26,8.18,8.18,0,0,0-.46,2.75,7,7,0,0,0,1.79,5,6.58,6.58,0,0,0,9.74,0,6.62,6.62,0,0,0,1.33-2.26,8.53,8.53,0,0,0,.44-2.73A8.72,8.72,0,0,0,171.13,23.18ZM168,27.87a3.91,3.91,0,0,1-1.2,1.59,3,3,0,0,1-1.93.65,2.82,2.82,0,0,1-1.86-.66,4,4,0,0,1-1.12-1.61,5.26,5.26,0,0,1-.37-1.9,5.07,5.07,0,0,1,.84-2.82,2.85,2.85,0,0,1,2.51-1.38,3,3,0,0,1,1.93.65A3.84,3.84,0,0,1,168,24a5.09,5.09,0,0,1,.39,1.94A4.87,4.87,0,0,1,168,27.87Z" style="fill:#fff"/><path d="M187,19.37a1.48,1.48,0,0,0-1.18-.5,1.5,1.5,0,0,0-1.2.5,2,2,0,0,0-.45,1.36V27a2.86,2.86,0,0,1-2.86,3,2.74,2.74,0,0,1-2-.86A2.84,2.84,0,0,1,178.5,27V20.73a2,2,0,0,0-.46-1.35,1.48,1.48,0,0,0-1.2-.51,1.44,1.44,0,0,0-1.17.5,2,2,0,0,0-.45,1.36v6.81a5.16,5.16,0,0,0,.94,3.23,5.8,5.8,0,0,0,2.26,1.71,7.31,7.31,0,0,0,5.87,0,5.66,5.66,0,0,0,2.26-1.73,5,5,0,0,0,.94-3.22V20.73A2,2,0,0,0,187,19.37Z" style="fill:#fff"/><path d="M199.78,19.25c-.88-.79-2.24-.61-3.77,1l-.5.53-.31-.66a1.86,1.86,0,0,0-1.77-1.23,1.53,1.53,0,0,0-1.17.56,2,2,0,0,0-.39,1.39V31.13a2,2,0,0,0,.46,1.37,1.42,1.42,0,0,0,1.17.52,1.45,1.45,0,0,0,1.19-.51,2,2,0,0,0,.46-1.38V25.28a2.56,2.56,0,0,1,.86-2.14A8.36,8.36,0,0,1,198.43,22a5.44,5.44,0,0,0,1.51-.68,1.12,1.12,0,0,0,.33-.94A1.39,1.39,0,0,0,199.78,19.25Z" style="fill:#fff"/></svg>