<svg xmlns="http://www.w3.org/2000/svg" viewBox="0 0 258.44 49.83"><title>korinagroup-com</title><path d="M12.74,20.54a2.8,2.8,0,0,1,3.5-2.19,2.58,2.58,0,0,1,1.63,3.73,5.87,5.87,0,0,1-3.32,2.44C13.56,24,12.6,21.64,12.74,20.54Z" style="fill:#fff"/><path d="M13.83,27.54l4.36,5c-.14.79-1.88,2.37-2.71,2.66-3,1.06-6.47-2-4.74-5.2A6.53,6.53,0,0,1,13.83,27.54Z" style="fill:#fff"/><path d="M29.88,24.26c.09-2.09,8.07-8.7,9.86-7S31.09,24.28,29.88,24.26Z" style="fill:#fff"/><path d="M24.92,0A24.92,24.92,0,1,0,49.83,24.91,24.92,24.92,0,0,0,24.92,0Zm1.52,12.63a.39.39,0,0,1,.39-.39h1.82a.39.39,0,0,1,.39.39v1.83a.39.39,0,0,1-.39.39H26.83a.39.39,0,0,1-.39-.39Zm5.92,14.52c1.41,1.3,7,6.73,8.92,8.55.41.4,1.45,1.36.45,1.43-.85.07-2.44.13-3.12-.4-2.25-2-5.26-5-7.62-7.28-1-1-1.83-2.13-1.83-1s0,6,0,6.8c0,1.88.08,1.85-1.35,1.85s-1.46,0-1.44-1.89l0-6c0-1.27.14-1.55-1.19-1.13S22.56,30.44,22,31.27s-.67,1.1-.11,1.68C23,34.19,24,35.43,25.12,36.66c.67.75-2.56.68-2.88.36-.56-.54-1.19-1.3-1.75-2-1.65-1.88-1.46,3.06-7.12,2.47A6.43,6.43,0,0,1,8.54,34.9a5.77,5.77,0,0,1-.29-5.79,7.34,7.34,0,0,1,1.74-2c.36-.3,1.91-1.17,2-1.51S9.82,23,10,20.43c.4-4.39,6.45-5.44,9.38-2.94A4.6,4.6,0,0,1,20.34,23c-.86,1.59-3.84,3.07-3.92,3.36s2.79,3.69,3.22,3.66c.89,0,1.89-2.63,4-3.89,3.14-1.88,2.66,1.18,2.66-7.87,0-2.11.09-2.13,1.43-2.13s1.41,0,1.37,2.09c-.06,3,0,3,1.12,1.6,1.36-1.63,5.66-5.56,8.93-5.5,3,.06,7.54,5.22-5.25,11C31.72,26.37,31.73,26.57,32.36,27.15Z" style="fill:#fff"/><path d="M75.45,16.15h-5l-8.05,9v-9h-4V37.38h4V28l8.87,9.4h4.94v-.24L66,26.43l9.42-10.16Zm9.37-.39c-7.33,0-10.9,5.6-10.9,11.17s3.45,10.93,10.9,10.93,10.81-5.48,10.87-11S92.12,15.76,84.82,15.76Zm0,3.63c5,0,7,4,6.93,7.57s-1.94,7.24-6.93,7.24-6.87-3.72-7-7.21S79.82,19.39,84.82,19.39ZM115.9,37.11l-6.42-7.24c4-.82,5.36-3.76,5.36-6.68,0-3.68-2.63-7-7.63-7-3.36,0-6.72,0-10.08,0V37.38h4V30.29H105l6.18,7.09h4.75Zm-8.69-17.23a3.41,3.41,0,1,1,0,6.81h-6.09V19.88ZM120,37.38V16.15h-4V37.38Zm16.16-8.06L125.78,16.15h-3.24V37.38h4V23.07l11.14,14.31h2.48V16.15h-4Zm23,8.06h4.36L154,16.15h-4.36l-9.51,21.23h4.33l1.82-4h11.08Zm-3.39-7.72h-7.87l3.94-9Zm25.78-10.6a11,11,0,0,0-7.75-3.18c-6.45,0-11,4.33-10.93,11,0,5.78,3.72,10.81,10.93,10.81a11,11,0,0,0,8-3.42V26.3h-8.93v1.42h7.39v5.93a9.55,9.55,0,0,1-6.45,2.45c-6.18,0-9.36-4.3-9.36-9.3s3.15-9.45,9.36-9.45a9.85,9.85,0,0,1,6.81,2.73Zm11.73,10.21c4.63,0,6.9-3,6.87-6.5a6.56,6.56,0,0,0-7-6.62h-9.33V37.38h1.64v-8h5.78l7.33,8h2.15Zm-7.78-11.6h7.69a4.89,4.89,0,0,1,5.18,5.07c0,3-1.67,5.07-5.36,5.07h-7.51Zm25.69-1.82c-7.15,0-10.69,5.21-10.69,10.9s3.57,11,10.69,11,10.66-5.36,10.69-10.93C221.87,21.09,218.3,15.85,211.15,15.85Zm0,1.51c6.09,0,9.11,4.51,9.11,9.42s-3.06,9.45-9.11,9.45-9.05-4.66-9.08-9.45C202,21.78,205.07,17.36,211.15,17.36Zm27.11-1.21V29.32c0,9.08-13,9.12-13,0V16.15h-1.61V29.32c0,11.11,16.23,11.08,16.23,0V16.15Zm13.27,1.51c7.06,0,7.06,10.9,0,10.9h-7.66V17.67Zm0,12.39c9.21,0,9.21-13.9,0-13.9h-9.3V37.38h1.64V30.05Z" style="fill:#fff"/></svg>