<svg xmlns="http://www.w3.org/2000/svg" viewBox="0 0 171.7 50"><title>korinatour-com</title><path d="M21.15,48c.26.07,2.61-.12,3.08-.15l3.09-.18c.69,0,.49-.1,1.17.42a16.43,16.43,0,0,0,1.89,1.44l1.17.49c-.12-1.28-1.67-3.09-1.76-3.4,0-.16.62-4,.7-4.48-.26.1-1.29.91-1.76,1.09a4.8,4.8,0,0,1-2.55.12c-2.07-.55-6.85-2.16-8.66-2.88a61,61,0,0,1-6-2.66A28,28,0,0,1,7,35l-.59-.49A18.59,18.59,0,0,1,5,33.05a10.1,10.1,0,0,1-1.32-2,6.52,6.52,0,0,1-.6-3.75l.27-1.21a7.88,7.88,0,0,0-1,2.08,6.09,6.09,0,0,0-.19,2.76,7.52,7.52,0,0,0,1.61,3.42c.06.08.11.12.18.21a14.58,14.58,0,0,0,1.12,1.18l1.67,1.38c.28.21.6.44.89.63.6.39,1.23.81,1.88,1.16l1,.54c.66.37,1.4.7,2,1s2.53,1.15,3.15,1.4c1.45.59,2.88,1.14,4.35,1.71.73.28,1.47.54,2.2.83a15.62,15.62,0,0,1,2.12.92c.68.56-1.81,1.81-2.27,2C21.82,47.51,21.25,47.78,21.15,48Z" style="fill:#53add3;fill-rule:evenodd"/><path d="M30.65,2c.08.23.88.59,1.07.7a8.47,8.47,0,0,1,2.11,1.42c.41.48-.3.72-.69.89C31.25,5.83,30,6.31,28,7c-3.52,1.17-7.11,2.27-10.5,3.59s-7.33,3.16-9.73,5.27l-.71.61c-.09.08-.13.15-.22.23a2.64,2.64,0,0,0-.45.46L6,17.57l-.41.49-.39.52c-.12.18-.24.37-.36.55-1.59,2.22-1.94,4.69-1.59,5.66a4.83,4.83,0,0,1,.15-.73c.07-.25.13-.48.21-.71A9.33,9.33,0,0,1,5.29,20.5L6.6,19.13a2.79,2.79,0,0,0,.23-.22c.24-.27.56-.51.69-.66s.32-.29.47-.43c.49-.47,1.92-1.59,2.49-2a33.62,33.62,0,0,1,8.26-4.27C22,10.32,26.27,9.21,29.67,8.29,32,7.66,34.26,7,36.6,6.37a3.36,3.36,0,0,1,1.49-.26,1.81,1.81,0,0,1,1.12.68L40,7.85c0-.7-.79-4.17-.66-4.48s.91-1.4,1-1.56L41,0a5.87,5.87,0,0,0-1.65.79c-.28.2-1,.82-1.38,1.12l-.48.36c-.23.17-.39.1-.71.08C36.29,2.32,31,2,30.65,2Z" style="fill:#53add3;fill-rule:evenodd"/><path d="M24.67,40.54c-.12-.1-2-.78-2.27-.89-.75-.28-1.51-.6-2.25-.92a47,47,0,0,1-8.3-4.48c-.65-.47-1-.71-1.57-1.21-.41-.35-.66-.59-1.06-1-.18-.17-.84-.88-1-1.06s-.35-.42-.53-.69a7,7,0,0,1-1.35-3.55A6,6,0,0,1,6.89,24a9.89,9.89,0,0,1,1.24-2c.4-.44.51-.61,1-1l.41-.39c1.13-1,1.62-1.38,2.9-2.35.82-.62,1.94-1.41,2.71-2.09a25.91,25.91,0,0,0-3.69,1.48c-.59.29-1.13.6-1.69.93a17.64,17.64,0,0,0-1.56,1.08l-.59.49-.1.1a7,7,0,0,0-.68.64.91.91,0,0,1-.22.24,11,11,0,0,0-1.32,1.76,8.61,8.61,0,0,0-1.15,3.32A8.86,8.86,0,0,0,5.4,31.89a10.68,10.68,0,0,0,2,2.4l.22.2a9.93,9.93,0,0,0,1.26,1c3.82,2.45,8.58,3.33,13,4.44C22.29,40,24.37,40.53,24.67,40.54Z" style="fill:#ec6b55;fill-rule:evenodd"/><path d="M34.62,24.75c.29.39,2.07,3.32,2.46,4,.27.45.54.89.83,1.34l.6,1c.34.56.75,1.19,1.48,1.23a1,1,0,0,0,1.17-.95c.09-.54,0-5.77,0-6.57s0-1.45,0-2.18-.15-1.28-.77-1.38-1.06.35-1.11,1,0,3.48,0,4.4v2.2l-4.13-6.58c-.26-.43-.53-1-1.14-1a1.19,1.19,0,0,0-1.26.85,11.14,11.14,0,0,0-.08,2.15v6.58c0,.75.11,1.33.72,1.48a.94.94,0,0,0,1.18-.88C34.68,30.8,34.58,25.85,34.62,24.75Z" style="fill:#fff;fill-rule:evenodd"/><path d="M21.82,25.92V23c1,0,3.17-.2,3.74.44a1.39,1.39,0,0,1,.4,1c0,.93-.58,1.29-1.41,1.41a20.16,20.16,0,0,1-2.73.06Zm0,1.56a3,3,0,0,1,2,.35,3.11,3.11,0,0,1,.58.61c.66.89,1.74,3.24,2.29,3.63a1,1,0,0,0,1.54-.43c.18-.46-.36-1.46-.54-1.81l-2.15-2.6c.06,0,0,0,.07,0l.32-.09a3.86,3.86,0,0,0,1.08-.51,3,3,0,0,0,.67-3.9c-.88-1.39-2.25-1.36-3.93-1.36H21.62c-.64,0-1.39,0-1.67.46a4.62,4.62,0,0,0-.19,2v6.62c0,.72,0,1.38.45,1.7a1,1,0,0,0,1.46-.36,6.07,6.07,0,0,0,.15-2Z" style="fill:#fff;fill-rule:evenodd"/><path d="M11.05,27.31c-.22-2.14.58-4.1,2.34-4.38a3,3,0,0,1,1.43.11,3.26,3.26,0,0,1,2,3.06c.19,2.17-.59,4-2.34,4.38-1.93.36-3.18-1.06-3.39-3.16Zm2.38-6.14c-3,.21-4.7,2.62-4.48,6.06.21,3.24,2.18,5.25,5.48,5,3-.22,4.68-2.64,4.45-6.06a5.5,5.5,0,0,0-1.53-3.77A5,5,0,0,0,13.43,21.17Z" style="fill:#fff;fill-rule:evenodd"/><path d="M46.32,23.47c.11.17.71,2,.78,2.19.13.37.26.73.38,1.1a9.68,9.68,0,0,1,.37,1.11h-3l1.49-4.39Zm-2,6H48.4a9.86,9.86,0,0,1,.35,1c.19.51.47,1.49,1,1.72a1,1,0,0,0,1.38-1.07,4.82,4.82,0,0,0-.31-1l-2.58-6.72c-.12-.32-.23-.66-.36-1-.27-.64-.59-1.2-1.42-1.22s-1.21.46-1.5,1.1-.5,1.31-.73,1.95c-.48,1.3-1,2.58-1.45,3.88-.18.49-1,2.5-1.05,2.93A1,1,0,0,0,43,32.2C43.64,32,43.91,30.26,44.29,29.5Z" style="fill:#fff;fill-rule:evenodd"/><path d="M4.8,8.27l2.73-.49c.1.62-2.28,5.31-2.65,6-.49,1-1,1.94-1.44,2.92-2.12,4.35-5.33,11.47-2,15.93a3,3,0,0,0,.51.59,9.91,9.91,0,0,1-.72-1.73,19.19,19.19,0,0,1,.25-6.74,28.65,28.65,0,0,1,2.6-7.2c1.44-2.83,2.84-5.17,4.3-7.84.29-.53.57-1.06.87-1.59a16.36,16.36,0,0,1,.87-1.54L12,6.31c-.22-.23-1.7-1.25-2.1-1.58s-.25-.15-.34-.57c-.05-.27-.1-.55-.14-.82L8.91,2A6.83,6.83,0,0,0,8.29,4.6c0,.27,0,.35-.17.5-.34.31-.81.78-1.16,1.07L6.13,7A14.06,14.06,0,0,0,4.8,8.27Z" style="fill:#3a8fba;fill-rule:evenodd"/><path d="M30,21.19c-1,.25-.79,1.41-.79,2.47v6.65c0,.62-.08,1.53.59,1.84a1.07,1.07,0,0,0,.7.06c.94-.24.77-1.46.77-2.48V23.09a3.08,3.08,0,0,0-.18-1.45A1,1,0,0,0,30,21.19Z" style="fill:#fff;fill-rule:evenodd"/><path d="M48.21,33.74h.95c.79,0,.68.18.68.81l-.23.2h-1.4v-1Zm-.65,3v.13h.64V35.31h1l.64,1.57h.69l-.63-1.56c.11-.13.48-.44.63-.57,0-1.2.1-1-.32-1.29s-.2-.28-.45-.28H47.56Z" style="fill:#fff;fill-rule:evenodd"/><path d="M40.75,34c.08-.18.13-.1.22-.26h1.1l.31.26v2.12l-.24.2h-1c-.19,0-.11,0-.37-.2V34Zm-.65-.3v2.59a1.9,1.9,0,0,0,.76.6h1.42a.22.22,0,0,0,.22-.08c.15-.14.54-.39.54-.59,0-.79,0-1.75,0-2.52a5.12,5.12,0,0,1-.61-.52H40.71A5.78,5.78,0,0,1,40.09,33.7Z" style="fill:#fff;fill-rule:evenodd"/><path d="M43.82,36.22c0,.2.14.23.33.41a1,1,0,0,0,.42.26H46c.14,0,.14,0,.22-.08s.54-.39.54-.59v-3h-.65v2.94c-.27.23-.19.2-.38.2h-1l-.24-.2V33.17h-.65Z" style="fill:#fff;fill-rule:evenodd"/><path d="M36.57,33.6v.13h1c0,.81,0,2.43,0,3.15h.65V33.74h1v-.56H36.57Z" style="fill:#fff;fill-rule:evenodd"/><path d="M85.5,35.79h-20q-.3,0-.38-.14A.68.68,0,0,1,65,35.3V33.62a.66.66,0,0,1,.08-.37q.08-.12.38-.12H73V28.7a.46.46,0,0,1,.1-.35.59.59,0,0,1,.38-.09h2.28a.54.54,0,0,1,.37.09.5.5,0,0,1,.09.35v4.43H85.5a.43.43,0,0,1,.49.49V35.3A.43.43,0,0,1,85.5,35.79ZM68.38,26.44a.39.39,0,0,1-.34-.12.66.66,0,0,1-.08-.37V24.18a.6.6,0,0,1,.08-.36.42.42,0,0,1,.34-.1h6.2l3,0q1.43,0,2.65-.1,0-.47,0-.91V21.8a.91.91,0,0,0-.1-.5q-.1-.15-.64-.15H68.31a1,1,0,0,1-.37-.06q-.14-.06-.14-.36V18.88c0-.17,0-.28.14-.33a.84.84,0,0,1,.37-.07h13.5a1.77,1.77,0,0,1,1.25.38,1.84,1.84,0,0,1,.41,1.36q0,1.52,0,3t-.14,2.74q-.09,1.29-.23,2.4t-.3,1.95q0,.35-.16.42a.81.81,0,0,1-.47,0l-2.05-.21q-.37,0-.41-.22a1,1,0,0,1,0-.41q.16-.79.27-1.74t.17-1.95q-1.26.07-2.7.12l-3,.07-3.05,0Z" style="fill:#f3faff"/><path d="M100.84,33.39q-1,.21-2.33.37T95.86,34q-1.36.1-2.73.13t-2.58,0a2,2,0,0,1-1.39-.4,1.78,1.78,0,0,1-.36-1.26V26.39a1.39,1.39,0,0,1,.33-1,1.55,1.55,0,0,1,1.07-.3h5.5a.25.25,0,0,0,.33-.33V21.87a.25.25,0,0,0-.33-.33h-6.3q-.47,0-.47-.44V19.33a.46.46,0,0,1,.1-.35.55.55,0,0,1,.36-.09h8.23a3.4,3.4,0,0,1,.83.08,1,1,0,0,1,.49.27,1,1,0,0,1,.23.49,4.23,4.23,0,0,1,.06.77v5.39a1.7,1.7,0,0,1-.4,1.32,1.88,1.88,0,0,1-1.24.34H92.3a.27.27,0,0,0-.3.3v3.38q0,.3.35.3a41.5,41.5,0,0,0,4.17-.12,37.12,37.12,0,0,0,4-.51c.17,0,.28,0,.31,0a.84.84,0,0,1,.1.27l.3,1.73q0,.26,0,.34A.67.67,0,0,1,100.84,33.39Zm4.5,6.2H103a.55.55,0,0,1-.35-.08.49.49,0,0,1-.09-.36V17.67a.36.36,0,0,1,.44-.44h2.33a.36.36,0,0,1,.44.44V39.14a.49.49,0,0,1-.09.36A.55.55,0,0,1,105.34,39.59Z" style="fill:#f3faff"/><path d="M122.24,32.24q-1.17.28-2.53.48T117,33q-1.36.12-2.61.14t-2.16,0a2.24,2.24,0,0,1-1.38-.44,1.71,1.71,0,0,1-.4-1.28V19.12q0-.49.44-.49h2.31a.43.43,0,0,1,.49.49V29.84a.49.49,0,0,0,.54.54,16.38,16.38,0,0,0,1.76,0q1,0,2-.15t2-.26q1-.15,1.82-.34.28-.07.36,0a.73.73,0,0,1,.13.21l.35,1.94C122.63,32,122.51,32.18,122.24,32.24Zm7.44-3.94h-2.89V39.14a.54.54,0,0,1-.08.36.5.5,0,0,1-.34.08H124a.61.61,0,0,1-.36-.08q-.1-.08-.1-.36V17.67a.46.46,0,0,1,.1-.35.55.55,0,0,1,.36-.09h2.35a.45.45,0,0,1,.34.09.55.55,0,0,1,.08.35v8h2.89a.82.82,0,0,1,.34.06c.09,0,.13.17.13.38v1.77c0,.19,0,.31-.13.36A.62.62,0,0,1,129.68,28.3Z" style="fill:#f3faff"/><path d="M151.25,32.5h-8.39V39a.41.41,0,0,1-.47.47h-2.31a.41.41,0,0,1-.47-.47V32.5h-8.39q-.3,0-.38-.13a.72.72,0,0,1-.08-.38V30.35a.72.72,0,0,1,.08-.38c.05-.09.18-.13.38-.13h20q.49,0,.49.51V32Q151.74,32.5,151.25,32.5Zm-2.82-4.29H135.53a2,2,0,0,1-1.47-.47,1.93,1.93,0,0,1-.44-1.38V19.14a1.59,1.59,0,0,1,.42-1.32,2.38,2.38,0,0,1,1.4-.31h12.87a.39.39,0,0,1,.44.44v1.77a.36.36,0,0,1-.44.44h-11q-.4,0-.4.37v1H148a.43.43,0,0,1,.49.49v1.61a.43.43,0,0,1-.49.49h-11.1V25.2c0,.25.13.37.4.37h11.15q.54,0,.54.42v1.75C149,28.05,148.78,28.21,148.43,28.21Z" style="fill:#f3faff"/><path d="M159.64,34.32a4.79,4.79,0,0,1-2.4-.61,5.71,5.71,0,0,1-1.83-1.66,7.88,7.88,0,0,1-1.17-2.48,11.24,11.24,0,0,1-.41-3.09,11.65,11.65,0,0,1,.41-3.17,7.87,7.87,0,0,1,1.17-2.49,5.58,5.58,0,0,1,1.83-1.64,4.87,4.87,0,0,1,2.4-.59,5.09,5.09,0,0,1,2.21.48,5.28,5.28,0,0,1,1.74,1.33,7,7,0,0,1,1.2,2.05,10.57,10.57,0,0,1,.63,2.65h3.05V17.67a.55.55,0,0,1,.08-.35.45.45,0,0,1,.34-.09h2.35a.36.36,0,0,1,.44.44V39.14a.49.49,0,0,1-.09.36.55.55,0,0,1-.35.08H168.9a.5.5,0,0,1-.34-.08.54.54,0,0,1-.08-.36V27.74h-3a10,10,0,0,1-.61,2.67,7.16,7.16,0,0,1-1.21,2.08,5.22,5.22,0,0,1-1.76,1.35A5.15,5.15,0,0,1,159.64,34.32Zm0-13a1.65,1.65,0,0,0-1.06.38,3.22,3.22,0,0,0-.83,1.07,6.59,6.59,0,0,0-.55,1.62,9.88,9.88,0,0,0-.2,2.05,9.47,9.47,0,0,0,.2,2,6.59,6.59,0,0,0,.55,1.61,3.21,3.21,0,0,0,.83,1.07,1.65,1.65,0,0,0,1.06.38,1.74,1.74,0,0,0,1.11-.4,3.37,3.37,0,0,0,.86-1.07,6.1,6.1,0,0,0,.56-1.61,9.53,9.53,0,0,0,.2-2,9.91,9.91,0,0,0-.2-2.05,6.3,6.3,0,0,0-.56-1.62,3.2,3.2,0,0,0-.86-1.07A1.78,1.78,0,0,0,159.64,21.35Z" style="fill:#f3faff"/></svg>