<svg xmlns="http://www.w3.org/2000/svg" viewBox="0 0 196.48 50"><title>luxury-stay-com</title><path d="M25,0A25,25,0,1,1,6.14,41.42a12.82,12.82,0,0,0,3.52-2.49c3.24,2.94,9.4,7.43,17.06,1.57a7.9,7.9,0,0,0,2.9,1.77,10.72,10.72,0,0,0,3.72.65A14.3,14.3,0,0,0,39,41.69a11.27,11.27,0,0,0,5.88-9.88,9.92,9.92,0,0,0-1-4.26A15.81,15.81,0,0,0,41,23.41c1.57-2.12,4.16-7.13-.55-7.13a5.14,5.14,0,0,0-3.62,1.4,4.47,4.47,0,0,0-1.5,3.37,3.86,3.86,0,0,0,.22,1.37,2.74,2.74,0,0,0,.72,1.09c-4.47,7.55-13.87,21.42-23.71,12.09a37,37,0,0,0,3.36-7.28,75.8,75.8,0,0,0,2.49-9.93A15.29,15.29,0,0,0,26.68,15a8.26,8.26,0,0,0,3.09-6.48,4.84,4.84,0,0,0-1.49-3.79A6.24,6.24,0,0,0,24,3.39,8.72,8.72,0,0,0,17.7,6.08a17.85,17.85,0,0,0-4.21,7.76c-2.1-.38-5.49-2.15-5.08-4.69a2.48,2.48,0,0,0-1.94,1.07,4.37,4.37,0,0,0-.73,2.64,4.54,4.54,0,0,0,1.62,3.61,9.18,9.18,0,0,0,4.76,1.8Q10.77,23.72,9.77,27a57.13,57.13,0,0,1-1.9,5.43A20.43,20.43,0,0,0,3.09,30a15,15,0,0,0-2.72-.67A25.09,25.09,0,0,1,25,0ZM30.9,36.48c1.45.53,2.25,1.72,1.45,3.31,3.69,1.42,6.36-3.32,6.36-7.58a13.82,13.82,0,0,0-.22-2.4,17.48,17.48,0,0,0-.62-2.5A39.07,39.07,0,0,1,35,31.6,48.82,48.82,0,0,1,30.9,36.48ZM19.38,13.64A10,10,0,0,0,24,11.2a4.85,4.85,0,0,0,1.89-3.42,1.62,1.62,0,0,0-.43-1.19,1.66,1.66,0,0,0-1.19-.42c-1,0-1.94.63-2.79,1.94A17.42,17.42,0,0,0,19.38,13.64Z" style="fill:#fff"/><path d="M65.08,17.36a5.76,5.76,0,0,0-1.44.21,1,1,0,0,0-.62.64,5.07,5.07,0,0,0-.17,1.52V33.4A5.07,5.07,0,0,0,63,34.92a.94.94,0,0,0,.62.62,4.83,4.83,0,0,0,1.44.15h2a5.59,5.59,0,0,0,2.59-.47A2.87,2.87,0,0,0,71,33.65a11.92,11.92,0,0,0,.62-3.11h.63c-.06.57-.08,1.33-.08,2.26s.06,2.23.19,3.53c-1.24-.06-3.34-.08-6.29-.08-3.53,0-6.18,0-8,.08v-.56a5.58,5.58,0,0,0,1.44-.21,1,1,0,0,0,.62-.64,4.7,4.7,0,0,0,.17-1.52V19.73a4.7,4.7,0,0,0-.17-1.52,1,1,0,0,0-.62-.64,5.58,5.58,0,0,0-1.44-.21v-.56c.77.06,1.94.08,3.52.08s2.64,0,3.49-.08Z" style="fill:#fff"/><path d="M86.3,33.34a2.94,2.94,0,0,0,.46,1.85,2,2,0,0,0,1.62.58v.58a16.44,16.44,0,0,0-1.71-.08,8.83,8.83,0,0,0-2.85.39V33.4A5.16,5.16,0,0,1,82,35.91a4.7,4.7,0,0,1-2.64.79,3.77,3.77,0,0,1-2.87-1,3.36,3.36,0,0,1-.7-1.41,10.11,10.11,0,0,1-.2-2.2V25.13a2.9,2.9,0,0,0-.47-1.85,2,2,0,0,0-1.62-.58v-.58a16.44,16.44,0,0,0,1.71.08A9.28,9.28,0,0,0,78,21.83V32.65a9.34,9.34,0,0,0,.12,1.69,1.82,1.82,0,0,0,.58,1.07,2,2,0,0,0,1.39.41A3,3,0,0,0,82,35.16a4.36,4.36,0,0,0,1.34-1.8,6.51,6.51,0,0,0,.49-2.52V25.13a3,3,0,0,0-.47-1.85,2,2,0,0,0-1.62-.58v-.58a16.44,16.44,0,0,0,1.71.08,9.28,9.28,0,0,0,2.87-.38Z" style="fill:#fff"/><path d="M101.13,34.37a6,6,0,0,0,.84,1,2,2,0,0,0,.86.4v.58c-.95-.07-1.6-.12-2-.12-.62,0-1.71,0-3.24.12v-.58a1.66,1.66,0,0,0,.76-.17.49.49,0,0,0,.32-.44.53.53,0,0,0-.11-.33l-3.14-4.58-2,2.63a3.06,3.06,0,0,0-.77,1.65,1,1,0,0,0,.54.9,3.28,3.28,0,0,0,1.49.37v.56c-.95-.06-2-.08-3.14-.08-.81,0-1.49,0-2.08.08v-.56a2.16,2.16,0,0,0,1.11-.5,7,7,0,0,0,1.3-1.43l3.16-4.16-3.81-5.6A5.08,5.08,0,0,0,90.38,23a1.49,1.49,0,0,0-.82-.32v-.58c.95.07,1.6.12,2,.12.62,0,1.69,0,3.23-.12v.58a1.61,1.61,0,0,0-.75.17.49.49,0,0,0-.32.44.53.53,0,0,0,.11.33l2.95,4.3,1.89-2.66a3.85,3.85,0,0,0,.83-1.74.65.65,0,0,0-.38-.59,2.89,2.89,0,0,0-1.2-.26v-.56c1,.06,1.73.08,2.31.08.81,0,1.5,0,2.1-.08v.56a4.05,4.05,0,0,0-2.43,1.93l-2.77,3.85Z" style="fill:#fff"/><path d="M116.41,33.34a2.94,2.94,0,0,0,.46,1.85,2,2,0,0,0,1.62.58v.58a16.44,16.44,0,0,0-1.71-.08,8.83,8.83,0,0,0-2.85.39V33.4a5.09,5.09,0,0,1-1.87,2.51,4.67,4.67,0,0,1-2.64.79,3.72,3.72,0,0,1-2.85-1,3.1,3.1,0,0,1-.7-1.41,9.34,9.34,0,0,1-.21-2.2V25.13a3,3,0,0,0-.46-1.85,2,2,0,0,0-1.62-.58v-.58a16.44,16.44,0,0,0,1.71.08,9.2,9.2,0,0,0,2.85-.38V32.65a10.56,10.56,0,0,0,.12,1.69,1.89,1.89,0,0,0,.58,1.07,2,2,0,0,0,1.39.41,3.06,3.06,0,0,0,1.91-.66,4.34,4.34,0,0,0,1.33-1.8,6.51,6.51,0,0,0,.49-2.52V25.13a2.9,2.9,0,0,0-.47-1.85,2,2,0,0,0-1.62-.58v-.58a16.44,16.44,0,0,0,1.71.08,9.28,9.28,0,0,0,2.87-.38Z" style="fill:#fff"/><path d="M128.38,21.75a2.55,2.55,0,0,1,1.8.63,2,2,0,0,1,.7,1.54,1.86,1.86,0,0,1-.43,1.23,1.4,1.4,0,0,1-1.14.51,1.52,1.52,0,0,1-1-.38,1.37,1.37,0,0,1-.43-1.05,1.72,1.72,0,0,1,.94-1.49.67.67,0,0,0-.58-.27,2.8,2.8,0,0,0-2,.84,5.88,5.88,0,0,0-1.37,2.06,6,6,0,0,0-.5,2.29v5.84a2,2,0,0,0,.73,1.76,3.88,3.88,0,0,0,2.18.5v.58l-.65,0c-1.87,0-3.07-.08-3.58-.08s-1.56,0-3.24.12v-.58a2.4,2.4,0,0,0,1.62-.43,2.09,2.09,0,0,0,.46-1.56V25.13a3,3,0,0,0-.46-1.85,2,2,0,0,0-1.62-.58v-.58a16.76,16.76,0,0,0,1.71.08,9.2,9.2,0,0,0,2.85-.38v3.45A6.62,6.62,0,0,1,126,22.81,3.37,3.37,0,0,1,128.38,21.75Z" style="fill:#fff"/><path d="M142.7,22.21c.81,0,1.49,0,2.08-.08v.56a1.52,1.52,0,0,0-1,.5,4.3,4.3,0,0,0-.82,1.43l-4.51,11.84-.94,2.4a4.91,4.91,0,0,1-1.17,1.93,2.41,2.41,0,0,1-1,.54,3.93,3.93,0,0,1-1.16.17,2,2,0,0,1-1.34-.44,1.48,1.48,0,0,1-.52-1.21,1.35,1.35,0,0,1,1.46-1.47,1.47,1.47,0,0,1,1,.34,1.2,1.2,0,0,1,.4,1,1.33,1.33,0,0,1-.75,1.23.31.31,0,0,0,.17,0c1,0,1.79-.72,2.34-2.16l1-2.51-5-12A3.26,3.26,0,0,0,132,23a1.75,1.75,0,0,0-.94-.31v-.58a18.27,18.27,0,0,0,2.69.17c.92,0,2.11,0,3.58-.17v.58a4.7,4.7,0,0,0-1.44.17.76.76,0,0,0-.45.81,3.49,3.49,0,0,0,.33,1.35l3.29,8.21,3.06-8a4.18,4.18,0,0,0,.31-1.28,1,1,0,0,0-.5-.94,3.58,3.58,0,0,0-1.58-.38v-.56C141.36,22.18,142.13,22.21,142.7,22.21Z" style="fill:#fff"/><path d="M152,16.5a5.47,5.47,0,0,1,1.91.27,6.55,6.55,0,0,1,1.44.76,2,2,0,0,0,.94.38.41.41,0,0,0,.38-.28,3.48,3.48,0,0,0,.23-.92h.63c-.08,1.07-.13,2.94-.13,5.63h-.64a7.09,7.09,0,0,0-1.28-3.77A3.73,3.73,0,0,0,152.28,17a3.39,3.39,0,0,0-2.43.89,3.11,3.11,0,0,0-.94,2.31A3.34,3.34,0,0,0,149.4,22a4.83,4.83,0,0,0,1.22,1.33c.5.37,1.21.84,2.12,1.41l.79.5a25,25,0,0,1,2.74,1.88A6.63,6.63,0,0,1,157.88,29a4.82,4.82,0,0,1,.6,2.45,4.74,4.74,0,0,1-1.65,3.87,6.32,6.32,0,0,1-4.18,1.36,6.87,6.87,0,0,1-2.16-.27,7.08,7.08,0,0,1-1.61-.75,2,2,0,0,0-.94-.38.41.41,0,0,0-.38.28,3.24,3.24,0,0,0-.23.92h-.63q.11-1.51.11-6.61h.63a9.11,9.11,0,0,0,1.37,4.51,4.1,4.1,0,0,0,3.64,1.74,3.71,3.71,0,0,0,2.53-.92,3.5,3.5,0,0,0,1-2.75,3.65,3.65,0,0,0-1-2.62,16.8,16.8,0,0,0-3.26-2.43,25.58,25.58,0,0,1-2.63-1.76,6,6,0,0,1-1.63-1.86,4.93,4.93,0,0,1-.64-2.55,4.32,4.32,0,0,1,1.49-3.54A5.58,5.58,0,0,1,152,16.5Z" style="fill:#fff"/><path d="M165,22.16h4.07v.54H165V33.38a2.77,2.77,0,0,0,.46,1.79,1.58,1.58,0,0,0,1.3.56,1.87,1.87,0,0,0,1.46-.7,5.55,5.55,0,0,0,1-2.25l.54.13c-.45,2.53-1.65,3.8-3.56,3.8a4.68,4.68,0,0,1-1.54-.21,3,3,0,0,1-1.08-.69,3.27,3.27,0,0,1-.84-1.49,9.75,9.75,0,0,1-.23-2.37V22.71h-2.64v-.54h2.64V17.93a8.28,8.28,0,0,0,2.46-.38Z" style="fill:#fff"/><path d="M173.92,36.51a3.4,3.4,0,0,1-2.57-.86,3.35,3.35,0,0,1-.84-2.42,3,3,0,0,1,.68-2,5,5,0,0,1,1.6-1.27,18.94,18.94,0,0,1,2.43-1,13.21,13.21,0,0,0,2.29-1,1.33,1.33,0,0,0,.73-1.18V25.07a2.9,2.9,0,0,0-.66-2.19,2.79,2.79,0,0,0-1.89-.59,3.28,3.28,0,0,0-2.71,1A1.7,1.7,0,0,1,174.25,25a1.43,1.43,0,0,1-.44,1.09,1.66,1.66,0,0,1-1.14.4,1.39,1.39,0,0,1-1.15-.49,1.8,1.8,0,0,1-.39-1.17,1.84,1.84,0,0,1,.32-1.1,4.08,4.08,0,0,1,.95-.89,5.84,5.84,0,0,1,1.68-.77,7.79,7.79,0,0,1,2.23-.3,4.58,4.58,0,0,1,3.24,1,3.09,3.09,0,0,1,.92,1.53,9.78,9.78,0,0,1,.23,2.36v7.66a1.89,1.89,0,0,0,.2,1,.7.7,0,0,0,.65.3,1.3,1.3,0,0,0,.63-.15,3.23,3.23,0,0,0,.62-.43l.3.47a6.34,6.34,0,0,1-1.22.78,3.12,3.12,0,0,1-1.28.24,2.22,2.22,0,0,1-1.84-.66,2.75,2.75,0,0,1-.53-1.79A4.75,4.75,0,0,1,176.33,36,5.33,5.33,0,0,1,173.92,36.51Zm1.21-1.1a3.67,3.67,0,0,0,3.1-2.1v-5.4a1.76,1.76,0,0,1-.69.63c-.28.17-.73.39-1.34.66a13.22,13.22,0,0,0-1.69.84,3.61,3.61,0,0,0-1.11,1.09,3,3,0,0,0-.47,1.76,2.6,2.6,0,0,0,.6,1.87A2.1,2.1,0,0,0,175.12,35.41Z" style="fill:#fff"/><path d="M194.38,22.21c.82,0,1.5,0,2.1-.08v.56a1.55,1.55,0,0,0-1,.5,4.31,4.31,0,0,0-.81,1.43l-4.51,11.84-.94,2.4a4.78,4.78,0,0,1-1.18,1.93,2.29,2.29,0,0,1-1,.54,3.93,3.93,0,0,1-1.16.17,2,2,0,0,1-1.34-.44,1.49,1.49,0,0,1-.53-1.21,1.51,1.51,0,0,1,2.46-1.13,1.2,1.2,0,0,1,.4,1,1.33,1.33,0,0,1-.75,1.23.31.31,0,0,0,.17,0c1,0,1.79-.72,2.34-2.16l1-2.51-5-12a3.26,3.26,0,0,0-.94-1.23,1.75,1.75,0,0,0-.94-.31v-.58a18.27,18.27,0,0,0,2.69.17c.92,0,2.11,0,3.58-.17v.58a4.7,4.7,0,0,0-1.44.17.76.76,0,0,0-.45.81,3.49,3.49,0,0,0,.33,1.35l3.29,8.21,3.06-8a4.18,4.18,0,0,0,.31-1.28,1,1,0,0,0-.5-.94,3.58,3.58,0,0,0-1.58-.38v-.56C193,22.18,193.81,22.21,194.38,22.21Z" style="fill:#fff"/></svg>