<svg xmlns="http://www.w3.org/2000/svg" xmlns:xlink="http://www.w3.org/1999/xlink" viewBox="0 0 258.57 35.67"><defs><linearGradient id="a" x1="2.47" y1="14.83" x2="5.83" y2="14.83" gradientUnits="userSpaceOnUse"><stop offset="0" stop-color="#f93"/><stop offset="1" stop-color="#f60"/></linearGradient><linearGradient id="b" x1="0" y1="18.69" x2="3.36" y2="18.69" xlink:href="#a"/><linearGradient id="c" x1="0.34" y1="26.43" x2="3.7" y2="26.43" xlink:href="#a"/><linearGradient id="d" x1="4.54" y1="26.52" x2="6.42" y2="26.52" xlink:href="#a"/><linearGradient id="e" x1="5.09" y1="18.79" x2="6.97" y2="18.79" xlink:href="#a"/><linearGradient id="f" x1="20.27" y1="25.03" x2="20.59" y2="25.03" xlink:href="#a"/><linearGradient id="g" x1="21.8" y1="27.62" x2="22.4" y2="27.62" xlink:href="#a"/><linearGradient id="h" x1="21.8" y1="22.3" x2="22.4" y2="22.3" xlink:href="#a"/><linearGradient id="i" x1="23.7" y1="24.98" x2="24.29" y2="24.98" xlink:href="#a"/><linearGradient id="j" x1="25.59" y1="27.62" x2="26.18" y2="27.62" gradientTransform="translate(27.11 -10.22) rotate(45)" xlink:href="#a"/><linearGradient id="k" x1="25.59" y1="22.3" x2="26.18" y2="22.3" gradientTransform="translate(23.35 -11.78) rotate(45)" xlink:href="#a"/><linearGradient id="l" x1="27.48" y1="24.98" x2="28.08" y2="24.98" xlink:href="#a"/><linearGradient id="m" x1="29.38" y1="27.62" x2="29.97" y2="27.62" xlink:href="#a"/><linearGradient id="n" x1="29.38" y1="22.3" x2="29.97" y2="22.3" xlink:href="#a"/><linearGradient id="o" x1="31.27" y1="24.98" x2="31.87" y2="24.98" xlink:href="#a"/><linearGradient id="p" x1="33.16" y1="27.62" x2="33.76" y2="27.62" xlink:href="#a"/><linearGradient id="q" x1="33.16" y1="22.3" x2="33.76" y2="22.3" xlink:href="#a"/><linearGradient id="r" x1="35.04" y1="25.03" x2="35.36" y2="25.03" xlink:href="#a"/><linearGradient id="s" x1="14.4" y1="35.2" x2="14.73" y2="35.2" xlink:href="#a"/><linearGradient id="t" x1="14.73" y1="35.6" x2="14.82" y2="35.6" xlink:href="#a"/><linearGradient id="u" x1="3.51" y1="17.44" x2="43.22" y2="17.44" xlink:href="#a"/></defs><title>wandernesia-com</title><path d="M3.36,15.73H4.93a.9.9,0,0,0,0-1.8H3.36a.9.9,0,0,0,0,1.8Z" style="fill:url(#a)"/><path d="M.9,19.6H2.46a.9.9,0,0,0,0-1.8H.9A.77.77,0,0,0,.42,18a.83.83,0,0,0-.42.75.82.82,0,0,0,.35.69A.74.74,0,0,0,.9,19.6Z" style="fill:url(#b)"/><path d="M2.81,25.53H1v0a.88.88,0,0,0-.67.88.87.87,0,0,0,.86.89h1.6a.9.9,0,0,0,.9-.89A.93.93,0,0,0,2.81,25.53Z" style="fill:url(#c)"/><path d="M6.42,26.53a1,1,0,0,0-.92-1,1,1,0,0,0-1,1,1,1,0,0,0,1,.95A.93.93,0,0,0,6.42,26.53Z" style="fill:url(#d)"/><path d="M5.09,18.8a.93.93,0,0,0,.92.95,1,1,0,0,0,0-1.93A.94.94,0,0,0,5.09,18.8Z" style="fill:url(#e)"/><path d="M20.39,24.77l.21.21-.3.3,0,0Z" style="fill:url(#f)"/><polygon points="22.1 27.32 22.4 27.62 22.1 27.91 21.8 27.62 22.1 27.32" style="fill:url(#g)"/><polygon points="22.1 22 22.4 22.29 22.1 22.59 21.8 22.29 22.1 22" style="fill:url(#h)"/><polygon points="24 24.68 24.29 24.98 24 25.28 23.7 24.98 24 24.68" style="fill:url(#i)"/><rect x="25.68" y="27.41" width="0.42" height="0.42" transform="translate(-11.95 26.39) rotate(-45)" style="fill:url(#j)"/><rect x="25.68" y="22.08" width="0.42" height="0.42" transform="translate(-8.18 24.83) rotate(-45)" style="fill:url(#k)"/><polygon points="27.78 24.68 28.08 24.98 27.78 25.28 27.48 24.98 27.78 24.68" style="fill:url(#l)"/><polygon points="29.68 27.32 29.97 27.62 29.68 27.91 29.38 27.62 29.68 27.32" style="fill:url(#m)"/><polygon points="29.68 22 29.97 22.29 29.68 22.59 29.38 22.29 29.68 22" style="fill:url(#n)"/><polygon points="31.57 24.68 31.86 24.98 31.57 25.28 31.27 24.98 31.57 24.68" style="fill:url(#o)"/><polygon points="33.46 27.32 33.76 27.62 33.46 27.91 33.16 27.62 33.46 27.32" style="fill:url(#p)"/><polygon points="33.46 22 33.76 22.29 33.46 22.59 33.16 22.29 33.46 22" style="fill:url(#q)"/><path d="M35.31,25.05l0,.2,0,0L35,25l.2-.21v0Z" style="fill:url(#r)"/><path d="M14.73,35.52a1.92,1.92,0,0,1-.33-.64A3.46,3.46,0,0,1,14.73,35.52Z" style="fill:url(#s)"/><path d="M14.78,35.67a1.31,1.31,0,0,0,0-.14l.09.11Z" style="fill:url(#t)"/><path d="M43.22,20.71a22,22,0,0,1-.29,3.55,21.46,21.46,0,0,1-2.84,7.67v0a1.66,1.66,0,0,0-1.6-1.19h0v-1a.54.54,0,0,0-.54-.54h-.49c-.19-.76-.63-2.52-1.09-4.44l-.07-.3c-.09-.36-.21-1-.37-1.84a4.54,4.54,0,0,0-4.19-3.71l-.3-2.13a.54.54,0,0,0-.53-.46h-1.4L29,9.56C29,8.32,28.32,8,27.82,8s-1.13.43-1.18,1.44l-.5,6.83h-1.4a.53.53,0,0,0-.53.46l-.3,2.13a4.53,4.53,0,0,0-4.19,3.71c-.12.65-.22,1.17-.3,1.53h0l-.07.3-.2.84h0c-.41,1.7-.78,3.2-1,3.89h-.49a.54.54,0,0,0-.54.54v1h0a1.66,1.66,0,0,0-1.6,1.19l-.42,1.39H14.7a.53.53,0,0,0-.42.2.54.54,0,0,0-.11.46l.19.8,0,.14a3.45,3.45,0,0,0-2.88-1.56H7.39l.16-.14a1.15,1.15,0,0,0,.33-.68,1.13,1.13,0,0,0,0-.13,1.16,1.16,0,0,0-.7-1.06h0a.91.91,0,0,0-.43-.11h-1a.88.88,0,0,1-.9-.89.91.91,0,0,1,.9-.92H9.34a1,1,0,0,0,1-1,1.06,1.06,0,0,0-1-1H8.1a.9.9,0,0,1-.89-.89.93.93,0,0,1,.89-.92h5.28a1,1,0,0,0,1-1,1,1,0,0,0-1-1h-9a.88.88,0,0,1-.9-.89.91.91,0,0,1,.9-.92H16.26a1,1,0,0,0,0-2.06H9.48a.9.9,0,0,1,0-1.8h3.39a1,1,0,0,0,0-2.06H7.8a.9.9,0,0,1,0-1.8H19.89a1,1,0,0,0,1-1,1,1,0,0,0-1-1H5.58a1.16,1.16,0,0,1,0-2.32H14a.69.69,0,0,0,.69-.67v-.2A.69.69,0,0,0,14,8H7.1a.69.69,0,0,1-.68-.71V7.12a.68.68,0,0,1,.68-.67H18.62a.71.71,0,0,0,.68-.71V5.35a.69.69,0,0,0-.69-.71H11.74A.68.68,0,0,1,11.06,4v-.2a.68.68,0,0,1,.69-.67H25.06a.69.69,0,0,0,.69-.67v-.2a.68.68,0,0,0-.69-.67H19.77A.69.69,0,0,1,19,.87V.7a.7.7,0,0,1,.72-.7h7.71A21.37,21.37,0,0,1,43.22,20.71Z" style="fill:url(#u)"/><path d="M81.89,9.19,75.93,27a.82.82,0,0,1-.78.56H73.42a.82.82,0,0,1-.77-.55L68.3,14.29a.82.82,0,0,0-1.55,0L62.41,27a.82.82,0,0,1-.77.55h-1.8a.82.82,0,0,1-.78-.56l-6-17.81a.82.82,0,0,1,.78-1.08H55a.82.82,0,0,1,.78.56l4.3,13a.82.82,0,0,0,1.55,0l4.49-13a.82.82,0,0,1,.77-.55H68.3a.82.82,0,0,1,.78.56l4.4,13a.82.82,0,0,0,1.55,0l4.4-13a.82.82,0,0,1,.78-.56h.91A.82.82,0,0,1,81.89,9.19Z" style="fill:#fefefe"/><path d="M95.27,22.69H86a.82.82,0,0,0-.75.49l-1.71,3.88a.82.82,0,0,1-.75.49H81.74A.82.82,0,0,1,81,26.4L89.06,8.59a.82.82,0,0,1,.75-.48H91.5a.82.82,0,0,1,.75.48l8.09,17.81a.82.82,0,0,1-.75,1.16H98.48a.82.82,0,0,1-.75-.49L96,23.18A.82.82,0,0,0,95.27,22.69Zm-.94-3.37-2.94-6.68a.82.82,0,0,0-1.5,0l-2.94,6.68a.82.82,0,0,0,.75,1.15h5.88A.82.82,0,0,0,94.32,19.32Z" style="fill:#fefefe"/><path d="M118.86,8.93V26.74a.82.82,0,0,1-.82.82H117a.82.82,0,0,1-.64-.31l-10-12.38a.82.82,0,0,0-1.46.51V26.74a.82.82,0,0,1-.82.82H103a.82.82,0,0,1-.82-.82V8.93a.82.82,0,0,1,.82-.82H104a.82.82,0,0,1,.64.31l10,12.38a.82.82,0,0,0,1.46-.51V8.93a.82.82,0,0,1,.82-.82H118A.82.82,0,0,1,118.86,8.93Z" style="fill:#fefefe"/><path d="M123.08,8.93a.82.82,0,0,1,.82-.82h7.38a11.85,11.85,0,0,1,5.47,1.22,9,9,0,0,1,3.71,3.43,9.7,9.7,0,0,1,1.32,5.07,9.7,9.7,0,0,1-1.32,5.07,9,9,0,0,1-3.71,3.43,11.84,11.84,0,0,1-5.47,1.22H123.9a.82.82,0,0,1-.82-.82Zm8,16.21a9,9,0,0,0,4.15-.92A6.63,6.63,0,0,0,138,21.65a7.39,7.39,0,0,0,1-3.82A7.39,7.39,0,0,0,138,14a6.63,6.63,0,0,0-2.76-2.57,9,9,0,0,0-4.15-.92h-4.43a.82.82,0,0,0-.82.82v13a.82.82,0,0,0,.82.82Z" style="fill:#fefefe"/><path d="M158.52,26v.78a.82.82,0,0,1-.82.82H145.23a.82.82,0,0,1-.82-.82V8.93a.82.82,0,0,1,.82-.82h12.08a.82.82,0,0,1,.82.82v.78a.82.82,0,0,1-.82.82H148a.82.82,0,0,0-.82.82v4.33a.82.82,0,0,0,.82.82h8.11a.82.82,0,0,1,.82.82V18a.82.82,0,0,1-.82.82H148a.82.82,0,0,0-.82.82v4.64a.82.82,0,0,0,.82.82h9.7A.82.82,0,0,1,158.52,26Z" style="fill:#fefefe"/><path d="M174.17,27.21,170.48,22a.82.82,0,0,0-.72-.35l-.77,0h-4a.82.82,0,0,0-.82.82v4.28a.82.82,0,0,1-.82.82h-1.14a.82.82,0,0,1-.82-.82V8.93a.82.82,0,0,1,.82-.82H169a9,9,0,0,1,5.94,1.81,6.12,6.12,0,0,1,2.17,5A6.51,6.51,0,0,1,176,18.72a6,6,0,0,1-2.27,1.93.82.82,0,0,0-.31,1.21l3.11,4.41a.82.82,0,0,1-.67,1.29h-1A.82.82,0,0,1,174.17,27.21Zm-1.23-9.07a4,4,0,0,0,1.39-3.25,3.92,3.92,0,0,0-1.39-3.24,6.27,6.27,0,0,0-4-1.13H165a.82.82,0,0,0-.82.82v7.11a.82.82,0,0,0,.82.82h3.9A6.21,6.21,0,0,0,172.94,18.14Z" style="fill:#fefefe"/><path d="M197,8.93V26.74a.82.82,0,0,1-.82.82h-1.76a.82.82,0,0,1-.63-.3l-9-11.08a.82.82,0,0,0-1.45.52v10a.82.82,0,0,1-.82.82h-1.95a.82.82,0,0,1-.82-.82V8.93a.82.82,0,0,1,.82-.82h1.76a.82.82,0,0,1,.63.3l9,11.08a.82.82,0,0,0,1.45-.52v-10a.82.82,0,0,1,.82-.82h1.95A.82.82,0,0,1,197,8.93Z" style="fill:#fefefe"/><path d="M215.16,25.35v1.39a.82.82,0,0,1-.82.82H201.4a.82.82,0,0,1-.82-.82V8.93a.82.82,0,0,1,.82-.82H214a.82.82,0,0,1,.82.82v1.39a.82.82,0,0,1-.82.82H205a.82.82,0,0,0-.82.82v3.42a.82.82,0,0,0,.82.82h7.75a.82.82,0,0,1,.82.82v1.33a.82.82,0,0,1-.82.82H205a.82.82,0,0,0-.82.82v3.72a.82.82,0,0,0,.82.82h9.33A.82.82,0,0,1,215.16,25.35Z" style="fill:#fefefe"/><path d="M219.26,27.19a10,10,0,0,1-2.76-1.27.83.83,0,0,1-.3-1l.59-1.31a.82.82,0,0,1,1.17-.36,11.21,11.21,0,0,0,5.65,1.6,6,6,0,0,0,3.24-.69,2.1,2.1,0,0,0,1.07-1.83,1.78,1.78,0,0,0-.6-1.38,4.2,4.2,0,0,0-1.51-.85q-.92-.31-2.5-.69a29,29,0,0,1-3.6-1.06,5.91,5.91,0,0,1-2.36-1.65,4.45,4.45,0,0,1-1-3,5.19,5.19,0,0,1,.88-2.93,5.92,5.92,0,0,1,2.64-2.1,10.69,10.69,0,0,1,4.32-.78,14,14,0,0,1,3.5.44,10.29,10.29,0,0,1,2.36.91.81.81,0,0,1,.35,1l-.53,1.31a.82.82,0,0,1-1.13.42,11.12,11.12,0,0,0-1.88-.72,10,10,0,0,0-2.69-.39,5.63,5.63,0,0,0-3.18.72,2.23,2.23,0,0,0-1,1.92,1.73,1.73,0,0,0,.6,1.36,4.31,4.31,0,0,0,1.51.83q.92.31,2.5.69a26.32,26.32,0,0,1,3.56,1,6.1,6.1,0,0,1,2.37,1.65,4.36,4.36,0,0,1,1,3,5.12,5.12,0,0,1-.87,2.92,6,6,0,0,1-2.65,2.08,10.8,10.8,0,0,1-4.33.78A14.84,14.84,0,0,1,219.26,27.19Z" style="fill:#fefefe"/><path d="M234.26,8.11h2a.82.82,0,0,1,.82.82V26.74a.82.82,0,0,1-.82.82h-2a.82.82,0,0,1-.82-.82V8.93A.82.82,0,0,1,234.26,8.11Z" style="fill:#fefefe"/><path d="M252.76,23.06h-8.64a.82.82,0,0,0-.75.5l-1.49,3.5a.82.82,0,0,1-.75.5h-1.91a.82.82,0,0,1-.75-1.15l8-17.81a.82.82,0,0,1,.75-.48h2.5a.82.82,0,0,1,.75.48l8,17.81a.82.82,0,0,1-.75,1.16h-2a.82.82,0,0,1-.75-.49l-1.52-3.51A.82.82,0,0,0,252.76,23.06Zm-1.15-4-2.42-5.61a.82.82,0,0,0-1.5,0l-2.4,5.61a.82.82,0,0,0,.75,1.14h4.82A.82.82,0,0,0,251.61,19.08Z" style="fill:#fefefe"/></svg>