<?xml version="1.0" encoding="utf-8"?>
<!-- Generator: Adobe Illustrator 21.0.0, SVG Export Plug-In . SVG Version: 6.00 Build 0)  -->
<svg version="1.1" id="Layer_1" xmlns="http://www.w3.org/2000/svg" xmlns:xlink="http://www.w3.org/1999/xlink" x="0px" y="0px"
	 viewBox="0 0 512 512" style="enable-background:new 0 0 512 512;" xml:space="preserve">
<style type="text/css">
	.st0{fill:#F0F0F0;}
	.st1{fill:#D80027;}
	.st2{fill:#0052B4;}
	.st3{fill:#4C4A48;}
</style>
<g>
	<circle class="st0" cx="255.1" cy="256.9" r="240.6"/>
</g>
<g>
	<g>
		<path class="st1" d="M246.5,226.5h251.1c0-14.8-2.9-29.2-8.3-42.9H246.5V226.5z"/>
	</g>
	<g>
		<g>
			<path class="st1" d="M476.2,159H244.6v-42.9h207.2C461.3,129.5,469.6,143.8,476.2,159z"/>
		</g>
	</g>
	<g>
		<g>
			<path class="st1" d="M430.4,90.2H244.6V47.4h131.3C396.1,59,414.4,73.5,430.4,90.2z"/>
		</g>
	</g>
</g>
<g>
	<path class="st2" d="M251.6,16.4c-0.6,0-1.2,0-1.7,0c-0.5,0-1,0-1.5,0c-2,0.1-4.1,0.1-6.1,0.2c-0.9,0-1.8,0.1-2.7,0.2c0,0,0,0,0,0
		c-1,0.1-2,0.1-3,0.2c-0.7,0-1.3,0.1-2,0.2c-0.5,0-1,0.1-1.6,0.1c-1.9,0.2-3.8,0.4-5.8,0.6c-1.5,0.2-2.9,0.3-4.4,0.6
		c-0.2,0-0.4,0-0.7,0.1c-0.7,0.1-1.4,0.2-2.1,0.3c-1.6,0.2-3.1,0.5-4.6,0.7c-0.9,0.1-1.7,0.3-2.6,0.4c-0.4,0.1-0.9,0.2-1.3,0.2
		c-1.4,0.3-2.8,0.5-4.2,0.8c-0.7,0.1-1.4,0.3-2.1,0.4c-0.7,0.2-1.4,0.3-2.1,0.5c-1,0.2-2,0.4-3,0.7c-0.7,0.2-1.4,0.3-2,0.5
		c-0.6,0.2-1.2,0.3-1.8,0.4c-0.5,0.1-1,0.3-1.6,0.4c-1.4,0.3-2.7,0.7-4.1,1.1c-0.7,0.2-1.4,0.4-2,0.6c-0.7,0.2-1.4,0.4-2,0.6
		c-1.4,0.4-2.7,0.8-4.1,1.2c-1.3,0.4-2.7,0.9-4,1.3c-1.2,0.4-2.3,0.8-3.5,1.2c-0.4,0.1-0.7,0.3-1.1,0.4c-1.1,0.4-2.3,0.8-3.4,1.2
		c-1.3,0.5-2.5,1-3.8,1.5c0,0-0.1,0-0.1,0c-1.3,0.5-2.6,1-3.8,1.6c-0.1,0-0.1,0-0.2,0.1c-1.3,0.5-2.5,1.1-3.8,1.6
		c-1,0.4-2,0.9-2.9,1.3c-0.5,0.2-1,0.5-1.5,0.7c-1,0.5-2,0.9-3,1.4c-0.1,0-0.2,0.1-0.3,0.1c-1.2,0.6-2.5,1.2-3.7,1.8
		c-1.3,0.6-2.5,1.2-3.7,1.9c-1.2,0.6-2.3,1.2-3.5,1.8c-0.3,0.2-0.5,0.3-0.8,0.4c-0.9,0.5-1.7,1-2.6,1.4c-0.3,0.2-0.7,0.4-1,0.6
		c-0.8,0.5-1.6,0.9-2.4,1.4c-0.3,0.2-0.6,0.3-0.8,0.5c-1.1,0.7-2.3,1.3-3.4,2c-1.2,0.7-2.4,1.5-3.5,2.2h21.9l-20.4,14.8l7.8,24
		l-20.4-14.8L94.4,92.7l6.7-20.7c0,0,0,0-0.1,0.1c-1.1,0.9-2.2,1.8-3.3,2.8c-4.4,3.8-8.7,7.8-12.8,11.9c-0.7,0.7-1.4,1.4-2.1,2.2
		c-6.4,6.6-12.5,13.5-18.1,20.8c-1.8,2.3-3.5,4.7-5.2,7c-1.7,2.4-3.4,4.8-5,7.2h7l-12.3,9l-0.7,0.5c-0.6,0.9-1.1,1.9-1.7,2.8
		c-1.4,2.5-2.8,5-4.2,7.5l0.2,0.5l6,18.6l-11.2-8.1l-0.4-0.3c-0.4,0.8-0.7,1.5-1.1,2.3c-0.3,0.8-0.7,1.5-1,2.3
		c-1.7,3.8-3.3,7.7-4.9,11.7c-0.3,0.8-0.6,1.6-0.9,2.4l0.3,0.9l6.6,20.2h25.2l-20.4,14.8l7.8,24l-20.4-14.8l-11.3,8.2l-0.9,0.7
		c-0.2,1.2-0.3,2.5-0.4,3.7c-0.1,1.2-0.3,2.5-0.4,3.7c-0.1,1.2-0.2,2.5-0.3,3.7c-0.1,1.2-0.2,2.5-0.3,3.7c-0.1,1.2-0.1,2.3-0.2,3.5
		c0,0.3,0,0.6,0,0.9c0,1-0.1,2.1-0.1,3.1c0,1.1-0.1,2.2-0.1,3.3c0,1.4,0,2.9,0,4.3h240.6V16.3C253.9,16.3,252.8,16.3,251.6,16.4z
		 M193.3,53.9l7.8-24l7.8,24h25.2l-20.4,14.8l7.8,24l-20.4-14.8l-20.4,14.8l7.8-24l-20.4-14.8H193.3z M193.3,124l7.8-24l7.8,24h25.2
		l-20.4,14.8l7.8,24L201.1,148l-20.4,14.8l7.8-24L168.1,124H193.3z M193.3,194.1l7.8-24l7.8,24h25.2l-20.4,14.8l7.8,24l-20.4-14.8
		l-20.4,14.8l7.8-24l-20.4-14.8H193.3z M107.1,124l7.8-24l7.8,24h25.2l-20.4,14.8l7.8,24L114.8,148l-20.4,14.8l7.8-24L81.8,124
		H107.1z M135.2,232.9l-20.4-14.8l-20.4,14.8l7.8-24l-20.4-14.8H107l7.8-24l7.8,24h25.2l-20.4,14.8L135.2,232.9z"/>
</g>
<g>
	<path class="st0" d="M496.6,256c0,1.1,0,2.3,0,3.4c0,0.5,0,0.9,0,1.4c0,1,0,1.9-0.1,2.9c0,0.2,0,0.3,0,0.5c0,1.2-0.1,2.5-0.2,3.7
		c-0.1,1.3-0.1,2.6-0.2,3.9c-0.1,1.1-0.2,2.2-0.2,3.3c0,0.3,0,0.7-0.1,1c-0.2,1.9-0.3,3.7-0.5,5.5c0,0.1,0,0.3,0,0.4
		c-0.2,1.7-0.4,3.4-0.6,5.1c0,0.1,0,0.1,0,0.2h0c-4,30.9-13.9,59.9-28.4,85.9l0,0.1c-2.8,5-5.8,10-9,14.8c-0.1,0.1-0.2,0.2-0.2,0.4
		c-1,1.5-1.9,2.9-2.9,4.4c-0.1,0.1-0.2,0.3-0.3,0.4c-4.2,6-8.6,11.8-13.3,17.4l0,0c-0.6,0.7-1.1,1.3-1.7,2c-0.6,0.7-1.1,1.3-1.7,2
		c-1.1,1.3-2.3,2.6-3.5,3.9c-0.6,0.6-1.2,1.3-1.8,1.9c-0.6,0.6-1.2,1.3-1.8,1.9c-1.2,1.3-2.4,2.5-3.7,3.7
		c-39.1,39.1-91.6,64.8-150,69.6c-0.3,0-0.7,0.1-1,0.1c-1.1,0.1-2.2,0.2-3.3,0.2c-1.3,0.1-2.6,0.2-3.9,0.2c-1.2,0.1-2.5,0.1-3.7,0.2
		c-0.2,0-0.3,0-0.5,0c-1,0-1.9,0.1-2.9,0.1c-0.5,0-0.9,0-1.4,0c-1.1,0-2.3,0-3.4,0s-2.3,0-3.4,0c-0.5,0-0.9,0-1.4,0
		c-1,0-1.9,0-2.9-0.1c-0.2,0-0.3,0-0.5,0c-1.2,0-2.5-0.1-3.7-0.2c-1.3-0.1-2.6-0.1-3.9-0.2c-1.1-0.1-2.2-0.2-3.3-0.2
		c-0.3,0-0.7,0-1-0.1c-1.9-0.2-3.7-0.3-5.5-0.5c-0.1,0-0.3,0-0.4,0c-1.7-0.2-3.4-0.4-5.1-0.6c-0.1,0-0.1,0-0.2,0v0
		c-36.9-4.8-71.2-18-100.8-37.5c0,0-0.1,0-0.1-0.1c-1.6-1-3.1-2.1-4.7-3.1c-0.1,0-0.1-0.1-0.2-0.1c-6-4.2-11.9-8.7-17.5-13.4l0,0
		c-0.7-0.6-1.3-1.1-2-1.7c-0.7-0.6-1.3-1.1-2-1.7c-1.3-1.1-2.6-2.3-3.9-3.5c-0.6-0.6-1.3-1.2-1.9-1.8c-0.6-0.6-1.3-1.2-1.9-1.8
		c-1.3-1.2-2.5-2.4-3.7-3.7c-39.1-39.1-64.8-91.6-69.6-150c0-0.3-0.1-0.7-0.1-1c-0.1-1.1-0.2-2.2-0.2-3.3c-0.1-1.3-0.2-2.6-0.2-3.9
		c-0.1-1.2-0.1-2.5-0.2-3.7c0-0.2,0-0.3,0-0.5c0-1-0.1-1.9-0.1-2.9c0-0.5,0-0.9,0-1.4c0-1.1,0-2.3,0-3.4H496.6z"/>
</g>
<g>
	<g>
		<path class="st2" d="M23.7,318.8c8.3,30.8,22.5,59.1,41.4,83.7l83.7-83.7H23.7L23.7,318.8z"/>
	</g>
	<g>
		<path class="st2" d="M109.5,446.9c24.6,18.9,52.9,33.2,83.7,41.4V363.1L109.5,446.9z"/>
	</g>
	<g>
		<path class="st2" d="M318.8,488.3c30.8-8.3,59.1-22.5,83.7-41.4l-83.7-83.7L318.8,488.3L318.8,488.3z"/>
	</g>
	<g>
		<path class="st2" d="M363.1,318.8l83.7,83.7c18.9-24.6,33.2-52.9,41.4-83.7H363.1z"/>
	</g>
</g>
<g>
	<g>
		<path class="st1" d="M496.6,256c0,1.1,0,2.3,0,3.4c0,0.5,0,0.9,0,1.4c0,1,0,1.9-0.1,2.9c0,0.2,0,0.3,0,0.5c0,1.2-0.1,2.5-0.2,3.7
			c-0.1,1.3-0.1,2.6-0.2,3.9c-0.1,1.1-0.2,2.2-0.2,3.3c0,0.3,0,0.7-0.1,1c-0.3,3.8-0.7,7.5-1.2,11.2H287.4v207.2
			c-3.7,0.5-7.5,0.9-11.2,1.2c-0.3,0-0.7,0.1-1,0.1c-1.1,0.1-2.2,0.2-3.3,0.2c-1.3,0.1-2.6,0.2-3.9,0.2c-1.2,0.1-2.5,0.1-3.7,0.2
			c-0.2,0-0.3,0-0.5,0c-1,0-1.9,0.1-2.9,0.1c-0.5,0-0.9,0-1.4,0c-1.1,0-2.3,0-3.4,0s-2.3,0-3.4,0c-0.5,0-0.9,0-1.4,0
			c-1,0-1.9,0-2.9-0.1c-0.2,0-0.3,0-0.5,0c-1.2,0-2.5-0.1-3.7-0.2c-1.3-0.1-2.6-0.1-3.9-0.2c-1.1-0.1-2.2-0.2-3.3-0.2
			c-0.3,0-0.7,0-1-0.1c-3.8-0.3-7.5-0.7-11.2-1.2V287.4H17.4c-0.5-3.7-0.9-7.5-1.2-11.2c0-0.3-0.1-0.7-0.1-1
			c-0.1-1.1-0.2-2.2-0.2-3.3c-0.1-1.3-0.2-2.6-0.2-3.9c-0.1-1.2-0.1-2.5-0.2-3.7c0-0.2,0-0.3,0-0.5c0-1-0.1-1.9-0.1-2.9
			c0-0.5,0-0.9,0-1.4c0-1.1,0-2.3,0-3.4H496.6z"/>
	</g>
	<g>
		<path class="st1" d="M318.8,318.8L318.8,318.8l107.4,107.4c4.9-4.9,9.6-10.1,14.1-15.4l-91.9-91.9L318.8,318.8L318.8,318.8
			L318.8,318.8z"/>
	</g>
	<g>
		<path class="st1" d="M193.2,318.8L193.2,318.8L85.9,426.1c4.9,4.9,10.1,9.6,15.4,14.1l91.9-91.9L193.2,318.8L193.2,318.8z"/>
	</g>
</g>
<g>
	<path class="st3" d="M256,506c-1.2,0-2.3,0-3.5,0c-0.6,0-1.3,0-1.9,0c-0.7,0-1.5,0-2.2-0.1c-1.6,0-3.2-0.1-4.8-0.2
		c-1.4-0.1-2.7-0.1-4-0.2c-0.8,0-1.5-0.1-2.3-0.2c-0.4,0-0.8-0.1-1.2-0.1c-0.3,0-0.6,0-0.9-0.1l-3-0.3c-0.9-0.1-1.8-0.2-2.6-0.3
		c-0.2,0-0.3,0-0.5-0.1c-0.9-0.1-1.7-0.2-2.6-0.3c-0.4,0-0.8-0.1-1.2-0.1c-0.6-0.1-1.3-0.2-1.9-0.2c-1.1-0.1-2.3-0.3-3.5-0.5l-0.1,0
		c-1.2-0.2-2.3-0.4-3.5-0.5c-1.2-0.2-2.4-0.4-3.6-0.6c-4.7-0.8-9.4-1.8-14.1-2.9c-1.2-0.3-2.3-0.5-3.5-0.8
		c-5.8-1.4-11.8-3.2-17.9-5.2c-0.8-0.2-1.6-0.5-2.3-0.8c-0.1,0-0.1,0-0.2-0.1l-0.1,0c-0.1,0-0.2-0.1-0.3-0.1c-1-0.3-2-0.7-2.9-1
		c-1.1-0.4-2.3-0.8-3.4-1.2c-1.9-0.7-4-1.5-6.4-2.5l-1.8-0.7c-0.5-0.2-1.1-0.4-1.6-0.7c-1.9-0.8-4.1-1.7-6.4-2.8
		c-20.3-9.3-39.4-21.3-56.6-35.8l-3.2-2.7l-1-0.9c-0.7-0.6-1.4-1.2-2.1-1.8c-0.5-0.4-1-0.9-1.5-1.4l-0.5-0.4c-0.3-0.3-0.7-0.6-1.1-1
		l-0.9-0.8c-0.4-0.3-0.7-0.7-1.1-1l-0.9-0.8c-1.3-1.3-2.6-2.6-3.9-3.8c-1.4-1.4-2.8-2.8-4.5-4.6c-0.6-0.6-1.2-1.2-1.7-1.8l-0.1-0.1
		c-0.5-0.5-1-1-1.4-1.6l-0.1-0.2c-0.5-0.5-1-1.1-1.4-1.6c-0.3-0.3-0.5-0.6-0.8-0.9l-0.4-0.5c-0.6-0.7-1.2-1.4-1.8-2.1
		c-0.6-0.7-1.3-1.5-1.9-2.2c-0.2-0.3-0.4-0.5-0.7-0.8l-0.2,0.2l-7.3-9.5c-0.5-0.6-1-1.3-1.4-1.9c-0.5-0.7-1.1-1.4-1.6-2.1
		c-0.6-0.8-1.2-1.6-1.7-2.4c-0.6-0.8-1.2-1.6-1.7-2.5c-0.4-0.6-0.8-1.2-1.2-1.8l-0.3-0.5c-1.4-2.1-2.8-4.2-4.1-6.2l-0.2-0.3
		c-1.4-2.2-2.6-4.1-3.7-6c-0.1-0.1-0.2-0.3-0.2-0.4c-0.5-0.9-1-1.7-1.5-2.6c-0.4-0.8-0.9-1.5-1.3-2.3c-0.6-1-1.1-2-1.6-2.9
		c-0.4-0.8-0.8-1.5-1.2-2.3c-0.1-0.1-0.1-0.2-0.2-0.4c-0.1-0.1-0.1-0.2-0.1-0.3c-0.9-1.7-1.8-3.4-2.6-5.1c-0.1-0.2-0.2-0.3-0.2-0.5
		l-0.2-0.5c-0.7-1.5-1.5-3-2.2-4.5c-0.4-0.9-0.9-1.8-1.3-2.8c-0.5-1-0.9-2-1.4-3.1c-0.4-0.8-0.7-1.7-1.1-2.5
		c-0.4-0.9-0.8-1.8-1.2-2.8c-0.4-0.9-0.7-1.8-1.1-2.7l0-0.1c-0.4-1-0.8-1.9-1.1-2.9c-0.4-0.9-0.7-1.9-1.1-2.9
		c-0.3-0.9-0.7-1.9-1-2.8c-0.3-0.8-0.5-1.5-0.8-2.2c-0.2-0.7-0.5-1.3-0.7-2c-0.1-0.2-0.2-0.5-0.2-0.7c-0.2-0.5-0.3-0.9-0.4-1.4
		l-0.1-0.3c-0.6-1.7-1.1-3.4-1.6-5.2l-0.3-1.1c-0.1-0.5-0.3-1-0.4-1.5c-0.2-0.8-0.5-1.7-0.7-2.5l-0.3-0.9c-0.9-3.3-1.6-6.1-2.2-8.8
		c-0.2-1-0.5-2-0.7-3c-0.4-1.7-0.7-3.4-1-4.9c-0.1-0.7-0.3-1.4-0.4-2.1l0-0.2c-0.1-0.7-0.3-1.4-0.4-2.1c-0.2-1-0.4-2-0.5-3
		c-0.1-0.6-0.2-1.3-0.3-1.9c-0.1-0.5-0.2-0.9-0.2-1.4c-0.2-1.4-0.4-2.9-0.6-4.3c-0.1-0.5-0.1-1-0.2-1.6c-0.1-0.7-0.2-1.3-0.2-2
		c0-0.1,0-0.2,0-0.4c0-0.2,0-0.3-0.1-0.5c-0.1-0.7-0.2-1.3-0.2-2c0-0.2,0-0.3-0.1-0.6c-0.1-0.8-0.2-1.5-0.2-2.3c0-0.2,0-0.3-0.1-0.5
		L6.9,277c0-0.4-0.1-0.7-0.1-1.1c0-0.4-0.1-0.8-0.1-1.2c-0.1-0.8-0.1-1.5-0.2-2.3c-0.1-1.3-0.2-2.7-0.2-4c-0.1-1.6-0.1-3.2-0.2-4.8
		c0-0.7,0-1.5-0.1-2.2c0-0.6,0-1.3,0-1.9c0-0.8,0-1.6,0-2.4c0-0.4,0-0.7,0-1.1c0-10.3,0.6-20.7,1.9-30.9c2.3-18.5,6.7-36.8,13-54.4
		c2.4-6.7,5.2-13.5,8.3-20c1.7-3.6,3.5-7.3,5.4-10.8c2.1-4,4.3-8,6.6-11.7c1.8-3,3.7-6.2,5.8-9.3c8.6-13,18.4-25.3,29.1-36.4
		c0.2-0.2,0.4-0.4,0.5-0.6l0.6-0.6c0.4-0.4,0.7-0.7,1.1-1.1l0.1-0.1c0.7-0.7,1.4-1.4,2-2C127.5,31.6,189.8,6,256,6
		c43.8,0,86.9,11.5,124.6,33.2c20.9,12,39.9,27,56.6,44.5c8,8.5,15.5,17.5,22.3,26.9c9.9,13.9,18.5,28.9,25.4,44.5
		c3.7,8.3,6.9,16.9,9.6,25.6c4.6,14.5,7.8,29.5,9.6,44.6c1.2,10.1,1.9,20.4,1.9,30.6c0,1.2,0,2.3,0,3.5c0,0.6,0,1.3,0,1.9
		c0,0.7,0,1.5-0.1,2.2c0,1.6-0.1,3.2-0.2,4.8c-0.1,1.4-0.1,2.7-0.2,4c0,0.8-0.1,1.5-0.2,2.3c0,0.4-0.1,0.8-0.1,1.2
		c0,0.3,0,0.6-0.1,0.9l-0.3,3c-0.1,0.9-0.2,1.8-0.3,2.6c0,0.2,0,0.3-0.1,0.5c-0.1,0.9-0.2,1.7-0.3,2.6c0,0.4-0.1,0.8-0.1,1.2
		c-0.1,0.6-0.2,1.3-0.2,1.9l0,0.3c-0.3,2.1-0.5,3.9-0.8,5.7c-0.9,5.8-2,11.7-3.3,17.4c0,0.2-0.1,0.4-0.1,0.6
		c-0.4,1.7-0.8,3.4-1.3,5.4c-0.3,1-0.5,2-0.8,3l-0.1,0.3c-0.3,1.2-0.7,2.5-1,3.7c-0.4,1.2-0.7,2.5-1.1,3.7l-0.4,1.4
		c-0.1,0.4-0.2,0.7-0.4,1.1l-0.3,0.9c-0.3,0.8-0.5,1.7-0.8,2.5l-0.1,0.4c-0.1,0.3-0.2,0.7-0.3,1c-0.5,1.5-1,3.1-1.6,4.6l-0.2,0.5
		c-0.1,0.2-0.2,0.5-0.3,0.7c-0.3,0.9-0.7,1.8-1,2.6l-0.1,0.2c-0.3,0.8-0.6,1.6-0.9,2.4l-0.5,1.2c-0.2,0.6-0.5,1.2-0.7,1.8l0,0.1
		c-0.2,0.4-0.4,0.9-0.5,1.3c-2.2,5.4-4.7,10.8-7.3,16c-2.4,4.9-5,9.7-7.7,14.3c-0.3,0.5-0.6,1-0.9,1.4l-0.7,1.2
		c-0.1,0.2-0.2,0.4-0.4,0.6l-0.5,1.1l-0.5,0.5c-4.5,7.3-9.4,14.4-14.6,21.3l-0.3,0.4c-1,1.3-2.1,2.7-3.2,4l-0.2,0.3
		c-0.4,0.5-0.7,0.9-1.1,1.4v0.1l-2.4,2.8c-0.5,0.6-1,1.2-1.6,1.9c-0.5,0.6-1.1,1.2-1.6,1.9l-0.2,0.2c-0.6,0.7-1.2,1.4-1.8,2.1
		c-0.4,0.5-0.9,1-1.4,1.6l-0.4,0.5c-0.3,0.3-0.6,0.7-0.9,1l0,0c-0.3,0.3-0.6,0.7-0.9,1c-0.3,0.3-0.6,0.7-1,1l-0.8,0.9
		c-0.9,1-1.8,1.8-2.7,2.7c-0.4,0.4-0.8,0.8-1.2,1.2l-1.9,1.9c-0.1,0.1-0.1,0.1-0.2,0.2l-0.1,0.1c-0.8,0.8-1.6,1.6-2.4,2.3
		c-0.6,0.6-1.2,1.1-1.8,1.7l-0.1,0.1c-0.5,0.5-1,1-1.6,1.4l-0.2,0.1c-0.5,0.5-1.1,1-1.6,1.4c-0.3,0.3-0.6,0.5-0.9,0.8l-0.5,0.5
		c-0.7,0.6-1.3,1.2-2,1.8c-0.7,0.6-1.5,1.3-2.2,1.9c-0.3,0.2-0.5,0.4-0.8,0.7l0.2,0.2l-9.5,7.2c-0.6,0.5-1.3,1-1.9,1.5
		c-0.7,0.5-1.4,1.1-2.1,1.6c-0.8,0.6-1.6,1.2-2.4,1.7c-0.8,0.6-1.6,1.2-2.5,1.7c-0.6,0.4-1.1,0.8-1.7,1.2l-0.7,0.5
		c-2,1.4-4.1,2.7-6.1,4l-0.3,0.2c-2.2,1.4-4.2,2.6-6.1,3.7c-0.2,0.1-0.3,0.2-0.4,0.3c-0.8,0.5-1.7,1-2.6,1.5
		c-0.8,0.4-1.5,0.9-2.3,1.3c-1,0.6-2,1.1-2.9,1.6c-0.8,0.4-1.5,0.8-2.3,1.3c-0.1,0.1-0.2,0.1-0.4,0.2c-0.1,0-0.2,0.1-0.3,0.1
		c-1.7,0.9-3.5,1.8-5.1,2.6c-0.1,0.1-0.3,0.2-0.5,0.2l-0.5,0.2c-1.5,0.7-3,1.5-4.5,2.2c-0.9,0.4-1.8,0.9-2.8,1.3
		c-1,0.5-2,0.9-3.1,1.4c-0.8,0.4-1.7,0.7-2.5,1.1c-0.9,0.4-1.8,0.8-2.8,1.2c-0.9,0.4-1.9,0.8-2.8,1.1c-1,0.4-1.9,0.8-2.9,1.1
		c-0.9,0.4-1.9,0.7-2.9,1.1c-1,0.3-1.9,0.7-2.9,1c-0.7,0.3-1.5,0.5-2.2,0.8c-0.7,0.2-1.3,0.5-2,0.7c-0.2,0.1-0.5,0.2-0.7,0.2
		c-0.4,0.1-0.9,0.3-1.3,0.4l-0.4,0.1c-1.7,0.6-3.4,1.1-5.2,1.6l-1.1,0.3c-0.5,0.1-1,0.3-1.5,0.4c-0.8,0.2-1.7,0.5-2.6,0.7l-1,0.3
		c-3.3,0.9-6,1.6-8.7,2.2c-1,0.2-2,0.5-3,0.7c-1.7,0.4-3.4,0.7-4.9,1c-0.7,0.2-1.4,0.3-2.2,0.4l-0.1,0c-0.7,0.1-1.4,0.3-2.1,0.4
		c-1,0.2-2,0.4-3,0.5c-0.5,0.1-1.1,0.2-1.8,0.3l-0.2,0c-0.5,0.1-0.9,0.1-1.4,0.2c-1.4,0.2-2.9,0.4-4.3,0.6c-0.5,0.1-1,0.1-1.6,0.2
		c-0.7,0.1-1.3,0.2-2,0.2c-0.2,0-0.3,0-0.4,0.1c-0.2,0-0.3,0-0.5,0.1c-0.7,0.1-1.4,0.2-2,0.2c-0.2,0-0.3,0-0.5,0.1
		c-0.8,0.1-1.6,0.2-2.3,0.2c-0.2,0-0.3,0-0.5,0l-2.6,0.2c-0.4,0-0.8,0.1-1.1,0.1c-0.4,0-0.8,0.1-1.2,0.1c-0.8,0.1-1.5,0.1-2.3,0.2
		c-1.3,0.1-2.7,0.2-4,0.2c-1.6,0.1-3.2,0.1-4.8,0.2c-0.7,0-1.5,0-2.2,0.1c-0.6,0-1.3,0-1.9,0C258.3,506,257.2,506,256,506z
		 M236.6,486.4L236.6,486.4c0.3,0,0.5,0,0.8,0.1l0.3,0c0.3,0,0.6,0,0.9,0.1l0.4,0c0.6,0.1,1.1,0.1,1.7,0.1l0.1,0
		c1.3,0.1,2.5,0.2,3.8,0.2c1.4,0.1,2.9,0.1,4.4,0.2l0.1,0c0.6,0,1.2,0,1.9,0.1l0.2,0c0.5,0,1,0,1.5,0l0.2,0c2.2,0,4.3,0,6.5,0l0.2,0
		c0.5,0,1,0,1.5,0l0.2,0c0.6,0,1.2,0,1.9-0.1l0.1,0c1.5,0,2.9-0.1,4.4-0.2c1.3-0.1,2.5-0.1,3.8-0.2l0.1,0c0.6,0,1.1-0.1,1.7-0.1
		l0.4,0c0.3,0,0.6,0,0.9-0.1l0.3,0c0.2,0,0.5,0,0.7-0.1l2.7-0.2c0.9-0.1,1.7-0.2,2.5-0.3l0.5-0.1c0.6-0.1,1.3-0.1,1.9-0.2l0.6-0.1
		c0.6-0.1,1.2-0.1,1.8-0.2l0.1,0c0.5-0.1,0.9-0.1,1.4-0.2c1.4-0.2,2.8-0.4,4.1-0.6l0.2,0c0.3,0,0.7-0.1,1-0.2l0.2,0
		c0.5-0.1,1.1-0.2,1.6-0.3c1-0.2,1.9-0.3,2.9-0.5c0.7-0.1,1.3-0.2,1.9-0.3l0.1,0c0.6-0.1,1.2-0.2,1.8-0.3l0.2,0
		c1.4-0.3,2.9-0.6,4.5-0.9c0.9-0.2,1.9-0.4,2.8-0.6c2.5-0.6,5-1.2,8.1-2l1-0.3c0.8-0.2,1.5-0.4,2.3-0.6l2.3-0.7
		c1.6-0.5,3.2-1,4.8-1.5l0.4-0.1c0.4-0.1,0.8-0.2,1.1-0.4l0.8-0.3c0.6-0.2,1.1-0.4,1.7-0.6l0.2-0.1c0.6-0.2,1.3-0.4,1.9-0.7l0.1,0
		c0.9-0.3,1.7-0.6,2.6-0.9l0.1,0c0.9-0.3,1.7-0.6,2.6-1c0.9-0.3,1.8-0.7,2.7-1c0.8-0.3,1.7-0.7,2.6-1c0.9-0.4,1.7-0.7,2.6-1.1
		c0.8-0.3,1.6-0.7,2.3-1c0.9-0.4,1.9-0.8,2.8-1.3l0.1-0.1c0.8-0.4,1.6-0.7,2.4-1.1l0.1,0c1.4-0.6,2.7-1.3,4-1.9l1-0.5
		c1.5-0.7,3-1.5,4.6-2.3l0.4-0.3l0.5-0.2l0.4-0.2c0.5-0.3,1.1-0.6,1.6-0.9c0.9-0.5,1.8-1,2.8-1.5c0.7-0.4,1.4-0.8,2.1-1.2l0.1-0.1
		c0.7-0.4,1.4-0.8,2.1-1.2l0.1,0l0.4-0.2c1.8-1.1,3.7-2.2,5.8-3.5l0.3-0.2c1.9-1.2,3.8-2.5,5.7-3.7l0.6-0.4c0.5-0.3,1-0.7,1.5-1
		c0.8-0.5,1.5-1.1,2.3-1.6c0.8-0.5,1.5-1.1,2.3-1.6c0.6-0.5,1.3-0.9,1.9-1.4c0.6-0.4,1.1-0.9,1.7-1.3l1-0.8c2.5-1.9,4.5-3.5,6.3-5
		c0.7-0.6,1.4-1.2,2.1-1.8c0.7-0.6,1.4-1.2,2.1-1.8c0.7-0.6,1.3-1.1,1.9-1.6l0.5-0.4c0.2-0.2,0.5-0.4,0.7-0.7l0.1-0.1
		c0.5-0.4,0.9-0.8,1.4-1.3l0,0c0.5-0.5,1.1-1,1.6-1.5c0.5-0.5,1.1-1,1.6-1.6c0.7-0.7,1.5-1.4,2.2-2.1c0.1-0.1,0.2-0.2,0.3-0.3
		l0.9-0.8c0.1-0.1,0.3-0.3,0.4-0.4l0.1-0.1c0.1-0.1,0.3-0.3,0.4-0.4c0.3-0.3,0.6-0.6,0.8-0.9l0.1-0.1c0.8-0.8,1.6-1.7,2.5-2.5l0.9-1
		c0.2-0.3,0.5-0.5,0.7-0.8l0.2-0.2c0.2-0.2,0.4-0.4,0.6-0.7l0.2-0.2c0.3-0.3,0.5-0.6,0.8-0.9l0.4-0.5c0.4-0.5,0.8-0.9,1.2-1.4
		c0.6-0.7,1.1-1.3,1.7-1.9l0.2-0.2c0.5-0.6,1-1.2,1.5-1.7c0.3-0.3,0.6-0.7,0.9-1l1.1-1.3c0.9-1.1,1.8-2.2,2.8-3.4l0.1-0.2
		c1-1.3,2-2.5,3-3.8l0.3-0.4c4.9-6.4,9.6-13.2,13.8-20.1l0,0l0.3-0.4c0-0.1,0.1-0.1,0.1-0.2l0.2-0.3c0.1-0.2,0.2-0.3,0.3-0.5
		l0.8-1.3c0.2-0.4,0.5-0.8,0.7-1.2c2.5-4.3,4.9-8.7,7.1-13.2c2.3-4.6,4.5-9.4,6.5-14.2v0l0.7-1.7c0.2-0.6,0.5-1.2,0.7-1.8l0.2-0.5
		c0.1-0.2,0.1-0.4,0.2-0.6l0-0.1c0.3-0.7,0.5-1.3,0.8-2l0.1-0.2c0.3-0.9,0.7-1.8,1-2.7l0.4-1.1c0.5-1.4,1-2.8,1.5-4.2l0.1-0.2
		c0.1-0.2,0.1-0.4,0.2-0.6l0.1-0.4c0.3-0.8,0.5-1.5,0.7-2.3l0.3-1c0.1-0.3,0.2-0.6,0.3-0.9l0.4-1.3c0.3-1.1,0.7-2.3,1-3.4
		c0.3-1.2,0.7-2.3,1-3.5l0-0.1c0.3-1,0.5-2,0.8-2.9c0.5-1.9,0.9-3.5,1.2-5l0.1-0.4c1.2-5.3,2.3-10.8,3.1-16.3
		c0.3-1.6,0.5-3.3,0.7-5.2l0-0.3c0.1-0.6,0.2-1.2,0.2-1.8l0-0.3c0-0.1,0-0.3,0-0.4l0-0.3c0.1-0.8,0.2-1.7,0.3-2.6l0-0.2
		c0.1-0.9,0.2-1.7,0.3-2.6l0.3-2.8c0-0.2,0-0.4,0-0.7l0-0.3c0-0.3,0-0.6,0.1-0.9l0-0.4c0.1-0.6,0.1-1.1,0.1-1.7l0-0.1
		c0.1-1.3,0.2-2.5,0.2-3.8c0.1-1.4,0.1-2.9,0.2-4.4l0-0.1c0-0.6,0-1.2,0.1-1.9l0-0.2c0-0.5,0-1,0-1.5l0-0.2c0-1.1,0-2.2,0-3.2
		c0-9.5-0.6-19-1.7-28.4c-1.7-13.9-4.7-27.8-8.9-41.2c-2.5-8-5.5-16-8.9-23.7c-6.4-14.5-14.3-28.3-23.5-41.2
		c-6.2-8.7-13.1-17.1-20.6-24.9c-15.4-16.2-33.1-30.1-52.4-41.2C336.3,35.4,296.5,24.8,256,24.8c-61.2,0-118.9,23.7-162.4,66.7
		c-0.6,0.6-1.3,1.3-1.9,1.9c-0.4,0.4-0.7,0.8-1.1,1.1c-0.2,0.2-0.3,0.3-0.5,0.5l-0.5,0.5c-10,10.3-19,21.7-27,33.7
		c-1.9,2.9-3.7,5.8-5.4,8.6c-2.1,3.5-4.1,7.1-6.1,10.8c-1.7,3.3-3.4,6.7-5,10c-2.8,6.1-5.4,12.3-7.6,18.5
		c-5.9,16.2-10,33.2-12.1,50.3c-1.2,9.4-1.8,19-1.8,28.6c0,0.2,0,0.4,0,0.7l0,0.3c0,0.8,0,1.5,0,2.3l0,0.1c0,0.5,0,1,0,1.5l0,0.2
		c0,0.6,0,1.2,0,1.9l0,0.1c0,1.5,0.1,2.9,0.2,4.4c0.1,1.3,0.1,2.5,0.2,3.8l0,0.1c0,0.6,0.1,1.2,0.1,1.7l0,0.2c0,0.4,0,0.7,0.1,1
		l0,0.3c0,0.2,0,0.5,0.1,0.7l0.2,2.7c0.1,0.9,0.2,1.7,0.3,2.5l0,0.2c0.1,0.7,0.2,1.5,0.3,2.2l0.1,0.6c0.1,0.6,0.1,1.2,0.2,1.8l0,0.2
		c0.1,0.5,0.1,0.9,0.2,1.4c0.2,1.4,0.4,2.8,0.6,4.1l0,0.2c0,0.3,0.1,0.7,0.2,1c0.1,0.6,0.2,1.2,0.3,1.8c0.2,1,0.3,1.9,0.5,2.9
		c0.1,0.7,0.2,1.3,0.3,1.9l0,0.2c0.1,0.6,0.2,1.1,0.3,1.7l0,0.2c0.3,1.4,0.6,2.9,0.9,4.5c0.2,0.9,0.4,1.9,0.6,2.8
		c0.6,2.5,1.2,5,2,8.1l0.3,1c0.2,0.8,0.4,1.5,0.6,2.3l0.7,2.3c0.5,1.6,1,3.2,1.5,4.8l0.1,0.4c0.1,0.4,0.3,0.8,0.4,1.2l0.3,0.8
		c0.2,0.5,0.4,1.1,0.5,1.6l0.1,0.2c0.2,0.6,0.4,1.3,0.7,1.9l0,0.1c0.3,0.9,0.6,1.7,0.9,2.6l0,0.1c0.3,0.9,0.6,1.7,1,2.6
		c0.3,0.9,0.7,1.8,1,2.7l0,0.1c0.3,0.8,0.7,1.7,1,2.5c0.4,0.9,0.7,1.7,1.1,2.6c0.3,0.8,0.7,1.6,1,2.3c0.4,0.9,0.8,1.9,1.3,2.8l0,0.1
		c0.4,0.8,0.8,1.7,1.1,2.5c0.6,1.4,1.3,2.7,2,4.1l0.5,1c0.7,1.5,1.5,3.1,2.4,4.6l0.3,0.4l0.2,0.4l0.3,0.5c0.3,0.5,0.5,1,0.8,1.5
		c0.5,0.9,1,1.8,1.5,2.7c0.4,0.7,0.8,1.4,1.2,2.1l0.1,0.1c0.4,0.7,0.8,1.4,1.2,2.1l0.3,0.4c1.1,1.8,2.2,3.7,3.5,5.8l0.2,0.3
		c1.2,1.9,2.5,3.8,3.8,5.7l0.4,0.5c0.4,0.5,0.7,1.1,1.1,1.6c0.5,0.8,1.1,1.5,1.6,2.3c0.5,0.8,1.1,1.5,1.6,2.3
		c0.5,0.6,0.9,1.3,1.4,1.9c0.4,0.6,0.9,1.1,1.3,1.7l0.8,1.1c1.9,2.5,3.5,4.5,5,6.3c0.6,0.7,1.2,1.4,1.8,2.1c0.6,0.7,1.2,1.4,1.8,2.1
		c0.6,0.7,1.1,1.3,1.6,1.9l0.4,0.5c0.2,0.3,0.4,0.5,0.7,0.8l0.1,0.1c0.4,0.5,0.8,0.9,1.3,1.4l0,0c0.5,0.5,1,1.1,1.5,1.6
		c0.5,0.5,1,1.1,1.6,1.6c1.6,1.7,2.9,3,4.1,4.2c1.2,1.2,2.4,2.3,3.6,3.5l1,0.9c0.3,0.2,0.5,0.5,0.8,0.7l1.1,1
		c0.3,0.3,0.6,0.5,0.8,0.8l0.5,0.5c0.4,0.4,0.9,0.8,1.4,1.2c0.7,0.6,1.3,1.1,1.9,1.7l3.9,3.4c15.9,13.4,33.6,24.6,52.4,33.2
		c2.2,1,4.1,1.8,5.9,2.6c0.5,0.2,0.9,0.4,1.4,0.6l1.8,0.7c2.2,0.9,4.2,1.7,6,2.3c1.1,0.4,2,0.8,3,1.1c1,0.4,2,0.7,3,1.1l0.4,0.1
		c0.6,0.2,1.3,0.4,1.9,0.6c5.6,1.9,11.2,3.5,16.5,4.8c1.1,0.3,2.2,0.5,3.2,0.8c4.3,1,8.6,1.9,13,2.7c1.1,0.2,2.2,0.4,3.3,0.5
		c1.1,0.2,2.2,0.3,3.4,0.5c1.1,0.1,2.2,0.3,3.3,0.4c0.6,0.1,1.2,0.2,1.8,0.2l0.3,0c0.1,0,0.3,0,0.4,0l0.3,0c0.9,0.1,1.7,0.2,2.6,0.3
		l0.2,0c0.9,0.1,1.7,0.2,2.6,0.3L236.6,486.4z M481.2,308.7C481.2,308.7,481.2,308.7,481.2,308.7L481.2,308.7z"/>
</g>
<g>
	<rect x="15.4" y="246.6" class="st3" width="481.2" height="18.8"/>
</g>
</svg>
