<?xml version="1.0" encoding="utf-8"?>
<!-- Generator: Adobe Illustrator 21.0.0, SVG Export Plug-In . SVG Version: 6.00 Build 0)  -->
<svg version="1.1" id="Layer_1" xmlns="http://www.w3.org/2000/svg" xmlns:xlink="http://www.w3.org/1999/xlink" x="0px" y="0px"
	 viewBox="0 0 512 512" style="enable-background:new 0 0 512 512;" xml:space="preserve">
<style type="text/css">
	.st0{fill:#F0F0F0;stroke:#4C4A48;stroke-width:20;stroke-miterlimit:10;}
	.st1{fill:#D80027;}
	.st2{fill:#0052B4;}
</style>
<circle class="st0" cx="256" cy="256" r="240"/>
<path class="st1" d="M339.5,256c0,20.9-37.4,73-83.5,73s-83.5-52.2-83.5-73c0-46.1,37.4-83.5,83.5-83.5S339.5,209.9,339.5,256z"/>
<path class="st2" d="M339.5,256c0,46.1-37.4,83.5-83.5,83.5s-83.5-37.4-83.5-83.5"/>
<rect x="347.3" y="315.7" transform="matrix(0.7071 -0.7071 0.7071 0.7071 -124.2693 352.1809)" width="31.3" height="20.9"/>
<rect x="310.4" y="352.6" transform="matrix(0.7071 -0.7071 0.7071 0.7071 -161.1648 336.8967)" width="31.3" height="20.9"/>
<rect x="391.6" y="359.9" transform="matrix(0.7071 -0.7071 0.7071 0.7071 -142.5986 396.453)" width="31.3" height="20.9"/>
<rect x="354.7" y="396.8" transform="matrix(0.7071 -0.7071 0.7071 0.7071 -179.4985 381.1711)" width="31.3" height="20.9"/>
<rect x="369.5" y="337.8" transform="matrix(0.7071 -0.7071 0.7071 0.7071 -133.4355 374.3166)" width="31.3" height="20.9"/>
<rect x="332.6" y="374.7" transform="matrix(0.7071 -0.7071 0.7071 0.7071 -170.328 359.0398)" width="31.3" height="20.9"/>
<rect x="356.3" y="103.6" transform="matrix(0.7071 -0.7071 0.7071 0.7071 4.6459 301.8497)" width="20.9" height="83.5"/>
<rect x="315.7" y="133.4" transform="matrix(0.7071 -0.7071 0.7071 0.7071 -9.8558 274.2362)" width="20.9" height="31.3"/>
<rect x="352.6" y="170.3" transform="matrix(0.7071 -0.7071 0.7071 0.7071 -25.1363 311.1241)" width="20.9" height="31.3"/>
<rect x="359.9" y="89.1" transform="matrix(0.7071 -0.7071 0.7071 0.7071 34.4099 292.56)" width="20.9" height="31.3"/>
<rect x="396.8" y="126" transform="matrix(0.7071 -0.7071 0.7071 0.7071 19.1323 329.4633)" width="20.9" height="31.3"/>
<rect x="112.8" y="347.1" transform="matrix(0.7071 -0.7071 0.7071 0.7071 -238.8529 200.988)" width="20.9" height="83.5"/>
<rect x="153.3" y="369.5" transform="matrix(0.7071 -0.7071 0.7071 0.7071 -224.3541 228.5977)" width="20.9" height="31.3"/>
<rect x="116.4" y="332.6" transform="matrix(0.7071 -0.7071 0.7071 0.7071 -209.0756 191.7078)" width="20.9" height="31.3"/>
<rect x="157" y="302.8" transform="matrix(0.7071 -0.7071 0.7071 0.7071 -194.5798 219.3231)" width="20.9" height="83.5"/>
<rect x="81.4" y="112.8" transform="matrix(0.7071 -0.7071 0.7071 0.7071 -51.0248 123.186)" width="83.5" height="20.9"/>
<rect x="103.6" y="134.9" transform="matrix(0.7071 -0.7071 0.7071 0.7071 -60.1918 145.3145)" width="83.5" height="20.9"/>
<rect x="125.7" y="157" transform="matrix(0.7071 -0.7071 0.7071 0.7071 -69.3637 167.4626)" width="83.5" height="20.9"/>
</svg>
