<?xml version="1.0" encoding="UTF-8"?>
<!DOCTYPE svg PUBLIC "-//W3C//DTD SVG 1.1//EN" "http://www.w3.org/Graphics/SVG/1.1/DTD/svg11.dtd">
<!-- Creator: CorelDRAW X7 -->
<svg xmlns="http://www.w3.org/2000/svg" xml:space="preserve" width="1.73333in" height="1.73333in" version="1.1" style="shape-rendering:geometricPrecision; text-rendering:geometricPrecision; image-rendering:optimizeQuality; fill-rule:evenodd; clip-rule:evenodd"
viewBox="0 0 1733 1733"
 xmlns:xlink="http://www.w3.org/1999/xlink">
 <defs>
  <style type="text/css">
   <![CDATA[
    .fil0 {fill:#E72B6A}
   ]]>
  </style>
 </defs>
 <g id="Layer_x0020_1">
  <metadata id="CorelCorpID_0Corel-Layer"/>
  <path class="fil0" d="M869 16c471,0 853,382 853,853 0,471 -382,853 -853,853 -471,0 -853,-382 -853,-853 0,-471 382,-853 853,-853zm0 71c432,0 782,350 782,782 0,432 -350,782 -782,782 -432,0 -782,-350 -782,-782 0,-432 350,-782 782,-782z"/>
  <path class="fil0" d="M838 1056c26,-2 50,-15 67,-35 0,-1 1,-1 1,-2l182 -253c12,-17 8,-40 -9,-52 -16,-11 -39,-8 -51,9l-181 253c-5,5 -11,7 -14,7 -4,0 -10,0 -16,-6l-117 -114c-14,-14 -38,-14 -52,1 -14,14 -14,37 1,52l117 114c0,0 0,0 0,0 18,17 41,26 65,26 2,0 5,0 7,0zm27 298c-56,0 -110,-14 -162,-39 -48,-25 -92,-59 -130,-102 -75,-86 -119,-198 -119,-307l0 -290c0,-15 9,-28 22,-34l372 -167c5,-2 10,-3 15,-3 5,0 11,1 15,3l376 167c14,6 22,19 22,34l0 290c0,81 -23,162 -66,235 -11,17 -33,23 -50,13 -18,-10 -24,-33 -13,-50 36,-62 56,-131 56,-198l0 -266 -340 -151 -335 151 0 266c0,196 161,374 337,374 63,0 124,-20 177,-59 16,-12 39,-8 51,8 12,17 8,40 -8,51 -66,48 -142,74 -220,74z"/>
 </g>
</svg>
