<?xml version="1.0" encoding="UTF-8"?>
<!DOCTYPE svg PUBLIC "-//W3C//DTD SVG 1.1//EN" "http://www.w3.org/Graphics/SVG/1.1/DTD/svg11.dtd">
<!-- Creator: CorelDRAW X7 -->
<svg xmlns="http://www.w3.org/2000/svg" xml:space="preserve" width="1.73333in" height="1.73333in" version="1.1" style="shape-rendering:geometricPrecision; text-rendering:geometricPrecision; image-rendering:optimizeQuality; fill-rule:evenodd; clip-rule:evenodd"
viewBox="0 0 1733 1733"
 xmlns:xlink="http://www.w3.org/1999/xlink">
 <defs>
  <style type="text/css">
   <![CDATA[
    .fil0 {fill:#E72B6A}
   ]]>
  </style>
 </defs>
 <g id="Layer_x0020_1">
  <metadata id="CorelCorpID_0Corel-Layer"/>
  <path class="fil0" d="M867 14c472,0 854,382 854,853 0,471 -382,853 -854,853 -471,0 -853,-382 -853,-853 0,-471 382,-853 853,-853zm0 71c432,0 782,350 782,782 0,432 -350,782 -782,782 -431,0 -781,-350 -781,-782 0,-432 350,-782 781,-782z"/>
  <path class="fil0" d="M888 1111l-29 -136 -30 136 30 30 29 -30zm-35 -351c2,0 5,0 7,0 3,0 5,0 8,0 84,-4 150,-73 150,-158 0,-87 -71,-158 -158,-158 -87,0 -158,71 -158,158 0,85 67,154 151,158zm104 354c2,11 -1,23 -9,31l-66 66c-6,6 -15,9 -23,9 -9,0 -18,-3 -24,-9l-66 -66c-8,-8 -11,-20 -9,-31l63 -286c-155,16 -286,132 -318,287 -2,10 0,20 7,29 4,4 12,12 26,12l144 0c18,0 33,15 33,33 0,18 -15,33 -33,33l-144 0c-30,0 -58,-13 -77,-37 -19,-23 -27,-54 -20,-84 19,-95 72,-181 147,-243 41,-34 88,-60 138,-76 -54,-41 -90,-106 -90,-180 0,-123 101,-224 224,-224 124,0 224,101 224,224 0,74 -35,139 -90,180 90,29 169,88 223,169 10,15 6,35 -9,45 -16,10 -36,6 -46,-9 -61,-91 -160,-149 -268,-159l63 286zm303 71c-19,24 -48,37 -78,37l-149 0c-18,0 -33,-15 -33,-33 0,-18 15,-33 33,-33l149 0c14,0 23,-8 26,-12 7,-9 10,-19 7,-29 -3,-18 8,-36 26,-39 18,-4 35,7 39,25 1,7 2,14 2,21l0 0c0,23 -8,45 -22,63z"/>
 </g>
</svg>
