<?xml version="1.0" encoding="UTF-8"?>
<!DOCTYPE svg PUBLIC "-//W3C//DTD SVG 1.1//EN" "http://www.w3.org/Graphics/SVG/1.1/DTD/svg11.dtd">
<!-- Creator: CorelDRAW X7 -->
<svg xmlns="http://www.w3.org/2000/svg" xml:space="preserve" width="1.74999in" height="1.74999in" version="1.1" style="shape-rendering:geometricPrecision; text-rendering:geometricPrecision; image-rendering:optimizeQuality; fill-rule:evenodd; clip-rule:evenodd"
viewBox="0 0 1750 1750"
 xmlns:xlink="http://www.w3.org/1999/xlink">
 <defs>
  <style type="text/css">
   <![CDATA[
    .fil0 {fill:#333333}
    .fil1 {fill:#E72B6A}
   ]]>
  </style>
 </defs>
 <g id="Layer_x0020_1">
  <metadata id="CorelCorpID_0Corel-Layer"/>
  <path class="fil0" d="M482 1575l0 -153 795 0 0 153c0,16 -14,30 -31,30l-734 0c-17,0 -30,-14 -30,-30zm30 -1414l734 0c17,0 31,14 31,31l0 92 -795 0 0 -92c0,-17 13,-31 30,-31zm-30 184l795 0 0 1015 -795 0 0 -1015zm764 1321c51,0 92,-41 92,-91l0 -1383c0,-51 -41,-92 -92,-92l-734 0c-50,0 -92,41 -92,92l1 1383c0,50 41,91 91,91l734 0z"/>
  <path class="fil0" d="M1520 575c-13,11 -15,30 -4,43 55,66 85,149 85,235 0,85 -30,169 -85,235 -11,13 -9,32 4,43 13,11 32,9 43,-4 64,-77 99,-174 99,-274 0,-100 -35,-198 -99,-274 -11,-13 -30,-15 -43,-4z"/>
  <path class="fil0" d="M818 1544l123 0c16,0 30,-14 30,-31 0,-16 -14,-30 -30,-30l-123 0c-17,0 -30,14 -30,30 0,17 13,31 30,31z"/>
  <path class="fil0" d="M1416 1061c13,12 32,11 43,-1 52,-57 81,-130 81,-207 0,-77 -29,-151 -81,-207 -11,-13 -30,-13 -43,-2 -12,11 -13,31 -2,43 42,45 65,104 65,166 0,61 -23,120 -65,165 -11,13 -10,32 2,43z"/>
  <path class="fil0" d="M239 575c-13,-11 -32,-9 -43,4 -64,76 -100,174 -100,274 0,100 36,197 100,274 11,13 30,15 43,4 13,-11 15,-30 4,-43 -55,-66 -86,-150 -86,-235 0,-86 31,-169 86,-235 11,-13 9,-32 -4,-43z"/>
  <path class="fil0" d="M342 644c-12,-11 -31,-11 -43,2 -52,56 -80,130 -80,207 0,77 28,150 80,207 12,12 31,13 43,1 13,-11 14,-30 2,-43 -41,-45 -64,-104 -64,-165 0,-62 23,-121 64,-166 12,-12 11,-32 -2,-43z"/>
  <g id="_352865192">
   <path class="fil1" d="M879 578c152,0 276,124 276,276 0,151 -124,275 -276,275 -151,0 -275,-124 -275,-275 0,-152 124,-276 275,-276zm0 612c186,0 337,-151 337,-336 0,-186 -151,-337 -337,-337 -185,0 -336,151 -336,337 0,185 151,336 336,336z"/>
   <path class="fil1" d="M841 804l-3 -2c-5,-6 -8,-14 -8,-22 0,-11 3,-19 11,-25 6,-8 17,-13 30,-13l0 73c-13,-2 -24,-8 -30,-11zm57 74c17,6 30,11 36,16 0,0 0,0 3,3 5,6 8,14 8,22 0,11 -3,19 -11,25 -8,5 -19,10 -33,10l0 -76 -3 0zm-103 38l-33 38c33,28 68,44 109,47l0 32 27 0 0 -30c30,-2 55,-10 71,-27 19,-16 28,-35 28,-62 0,-6 0,-14 -3,-20 -3,-16 -11,-30 -22,-40 -16,-14 -41,-25 -74,-33l0 0 0 -82c22,3 44,11 63,25l27 -41c-27,-19 -60,-30 -90,-33l0 -16 -27 0 0 21c-27,3 -52,11 -68,28 -16,16 -27,35 -27,60 0,8 0,13 2,21 3,17 11,28 22,36 17,14 38,22 74,30l0 84c-30,-2 -55,-16 -79,-38z"/>
  </g>
 </g>
</svg>
