<?xml version="1.0" encoding="UTF-8"?>
<!DOCTYPE svg PUBLIC "-//W3C//DTD SVG 1.1//EN" "http://www.w3.org/Graphics/SVG/1.1/DTD/svg11.dtd">
<!-- Creator: CorelDRAW X7 -->
<svg xmlns="http://www.w3.org/2000/svg" xml:space="preserve" width="1.73333in" height="1.73333in" version="1.1" style="shape-rendering:geometricPrecision; text-rendering:geometricPrecision; image-rendering:optimizeQuality; fill-rule:evenodd; clip-rule:evenodd"
viewBox="0 0 1733 1733"
 xmlns:xlink="http://www.w3.org/1999/xlink">
 <defs>
  <style type="text/css">
   <![CDATA[
    .fil0 {fill:#E72B6A}
   ]]>
  </style>
 </defs>
 <g id="Layer_x0020_1">
  <metadata id="CorelCorpID_0Corel-Layer"/>
  <path class="fil0" d="M866 14c472,0 854,382 854,853 0,471 -382,853 -854,853 -471,0 -853,-382 -853,-853 0,-471 382,-853 853,-853zm0 71c432,0 782,350 782,782 0,432 -350,782 -782,782 -431,0 -781,-350 -781,-782 0,-432 350,-782 781,-782z"/>
  <path class="fil0" d="M620 1225c0,19 -15,34 -34,35 -9,0 -18,-4 -24,-10 -7,-7 -11,-16 -11,-26l0 -269c0,-18 -14,-33 -33,-35 -36,-2 -64,-32 -64,-69l0 -89c0,-39 31,-70 69,-70l0 0 97 0 0 533zm615 -294c20,0 35,-15 35,-34l0 -349c0,-34 -16,-66 -44,-85 -28,-20 -63,-24 -95,-13 -1,0 -2,1 -3,1l-277 128c-61,29 -126,43 -193,43l-135 1c-76,0 -138,62 -138,139l0 89c0,62 40,115 97,132l0 241c0,28 11,56 31,75 20,20 45,30 72,30l1 0c0,0 1,0 1,0 28,-1 53,-12 72,-31 20,-20 30,-45 30,-73l0 -235c58,4 116,20 169,45l270 131c1,0 2,1 3,1 32,12 67,7 95,-12 27,-20 44,-52 44,-85 0,-20 -15,-35 -35,-35 -19,0 -34,15 -34,35 0,11 -6,21 -15,28 -9,6 -20,8 -30,5l-268 -130c-62,-30 -130,-48 -199,-53l0 -229c66,-4 131,-21 191,-49l276 -127c10,-4 21,-2 30,4 10,7 15,17 15,29l0 349c0,19 15,34 34,34z"/>
 </g>
</svg>
