<?xml version="1.0" encoding="UTF-8"?>
<!DOCTYPE svg PUBLIC "-//W3C//DTD SVG 1.1//EN" "http://www.w3.org/Graphics/SVG/1.1/DTD/svg11.dtd">
<!-- Creator: CorelDRAW X7 -->
<svg xmlns="http://www.w3.org/2000/svg" xml:space="preserve" width="1.74999in" height="1.74999in" version="1.1" style="shape-rendering:geometricPrecision; text-rendering:geometricPrecision; image-rendering:optimizeQuality; fill-rule:evenodd; clip-rule:evenodd"
viewBox="0 0 1750 1750"
 xmlns:xlink="http://www.w3.org/1999/xlink">
 <defs>
  <style type="text/css">
   <![CDATA[
    .fil1 {fill:#333333}
    .fil0 {fill:#E72B6A}
   ]]>
  </style>
 </defs>
 <g id="Layer_x0020_1">
  <metadata id="CorelCorpID_0Corel-Layer"/>
  <path class="fil0" d="M1187 145l-589 588c-4,5 -8,11 -9,17l-51 195c-3,13 1,26 10,35 7,7 16,11 26,11 3,0 6,0 10,-1l194 -50c7,-2 12,-5 17,-10l589 -589c0,0 0,0 0,0 0,0 0,0 0,0l118 -118c15,-15 15,-38 0,-53l-144 -144c-7,-7 -16,-11 -26,-11 -10,0 -19,4 -26,11l-119 119c0,0 0,0 0,0 0,0 0,0 0,0zm-437 725l-124 32 32 -123 555 -556 92 92 -555 555zm582 -765l92 91 -66 66 -92 -91 66 -66z"/>
  <path class="fil1" d="M1476 417c-20,0 -37,17 -37,38l0 1193 -1165 0 0 -1420 687 0c21,0 38,-17 38,-37 0,-21 -17,-37 -38,-37l-724 0c-20,0 -37,16 -37,37l0 1494c0,20 17,37 37,37l1239 0c21,0 37,-17 37,-37l0 -1230c0,-21 -16,-38 -37,-38z"/>
 </g>
</svg>
