<?xml version="1.0" encoding="UTF-8"?>
<!DOCTYPE svg PUBLIC "-//W3C//DTD SVG 1.1//EN" "http://www.w3.org/Graphics/SVG/1.1/DTD/svg11.dtd">
<!-- Creator: CorelDRAW X7 -->
<svg xmlns="http://www.w3.org/2000/svg" xml:space="preserve" width="1.73333in" height="1.73333in" version="1.1" style="shape-rendering:geometricPrecision; text-rendering:geometricPrecision; image-rendering:optimizeQuality; fill-rule:evenodd; clip-rule:evenodd"
viewBox="0 0 1733 1733"
 xmlns:xlink="http://www.w3.org/1999/xlink">
 <defs>
  <style type="text/css">
   <![CDATA[
    .fil1 {fill:#E72B6A}
    .fil0 {fill:#E72B6A}
   ]]>
  </style>
 </defs>
 <g id="Layer_x0020_1">
  <metadata id="CorelCorpID_0Corel-Layer"/>
  <path class="fil0" d="M873 9c471,0 853,383 853,854 0,471 -382,853 -853,853 -471,0 -853,-382 -853,-853 0,-471 382,-854 853,-854zm0 72c432,0 782,350 782,782 0,432 -350,781 -782,781 -432,0 -782,-349 -782,-781 0,-432 350,-782 782,-782z"/>
  <path class="fil1" d="M423 1134c-1,4 -2,8 -2,12l0 163c0,4 1,8 2,12 1,3 3,6 4,8 1,2 3,3 4,5 1,1 2,3 4,4 1,1 2,2 4,2 1,1 2,2 3,3 2,0 3,1 4,1 1,1 3,1 4,1 1,1 2,1 4,1 1,0 2,1 3,1 1,0 2,0 2,0l0 0c1,0 2,0 2,0 2,-1 3,-1 4,-1 1,0 3,0 4,-1 1,0 2,0 4,-1 1,0 2,-1 3,-2 2,0 3,-1 4,-2 1,-1 3,-2 4,-3 1,-1 3,-2 4,-3 1,-2 2,-4 3,-6 2,-2 3,-5 4,-8 1,-4 2,-7 2,-11l0 -163c0,-3 -1,-7 -2,-10 -1,-3 -2,-6 -4,-9 -1,-2 -2,-4 -3,-5 -1,-2 -3,-3 -4,-4 -1,-1 -3,-2 -4,-3 -1,-1 -2,-1 -4,-2 -1,-1 -2,-1 -3,-2 -2,0 -3,-1 -4,-1 -1,0 -3,-1 -4,-1 -1,0 -2,0 -4,0 0,0 -1,0 -2,0 0,0 -1,0 -2,0 -1,0 -2,0 -3,0 -2,0 -3,1 -4,1 -1,0 -3,1 -4,1 -1,1 -2,1 -4,2 -1,0 -2,1 -3,2 -2,1 -3,2 -4,3 -2,1 -3,2 -4,3 -1,2 -3,4 -4,5 -1,3 -3,5 -4,8zm893 -529l0 -112c0,-10 -1,-19 -4,-29 -1,-4 -2,-8 -3,-11 -2,-3 -3,-6 -4,-9 -1,-2 -3,-5 -4,-7 -1,-2 -2,-4 -4,-6 -1,-2 -2,-4 -4,-6 -1,-1 -2,-3 -3,-4 -2,-2 -3,-3 -4,-5 -1,-1 -3,-2 -4,-4 -1,-1 -2,-2 -4,-3 -1,-1 -2,-2 -3,-3 -2,-1 -3,-2 -4,-3 -1,-1 -3,-2 -4,-3 -1,-1 -3,-2 -4,-2 -1,-1 -2,-2 -4,-3 -1,-1 -2,-1 -3,-2 -2,-1 -3,-1 -4,-2 -1,0 -3,-1 -4,-2 -1,0 -2,-1 -4,-1 -1,-1 -2,-1 -4,-1 -1,-1 -2,-1 -3,-2 -2,0 -3,-1 -4,-1 -1,0 -3,-1 -4,-1 -1,0 -2,0 -4,-1 -1,0 -2,0 -3,0 -2,-1 -3,-1 -4,-1 -1,0 -3,0 -4,0 -1,-1 -3,-1 -4,-1 -1,0 -2,0 -4,0 -1,0 -2,0 -3,0l0 0 -4 0 -4 0 -4 0 -3 0 -4 0 -4 0 -4 0 -4 0 -3 0 -4 0 -4 0 -4 0 -4 0 -3 0 -4 0 -4 0 -4 0 -3 0 -4 0 -4 0 -4 0 -4 0 -3 0 -4 0 -4 0 -4 0 -3 0 -4 0 -4 0 -4 0 0 0c-1,0 -2,0 -4,0 -1,0 -2,1 -3,1 -2,0 -3,1 -4,1 -1,0 -3,1 -4,1 -1,1 -3,2 -4,2 -1,1 -2,2 -4,3 -1,1 -2,2 -3,3 -2,2 -3,3 -4,5 -2,2 -3,4 -4,6 -2,5 -3,10 -3,16 0,5 1,11 3,15 1,3 2,5 4,7 1,1 2,3 4,4 1,2 2,3 3,4 2,1 3,1 4,2 1,1 3,2 4,2 1,1 3,1 4,2 1,0 2,0 4,1 1,0 2,0 3,0 2,0 3,1 4,1 0,0 0,0 1,0l3 0 4 0 4 0 3 0 4 0 4 0 4 0 3 0 4 0 4 0 4 0 4 0 3 0 4 0 4 0 4 0 3 0 4 0 4 0 4 0 4 0 3 0 4 0 4 0 4 0 4 0 1 0 -1 1 -4 4 -4 4 -4 4 -4 3 -3 4 -4 4 -4 4 -4 3 -4 4 -3 4 -4 4 -4 4 -4 3 -3 4 -4 4 -4 4 -4 3 -4 4 -3 4 -4 4 -4 4 -4 3 -3 4 -4 4 -4 4 -4 4 -4 3 -3 4 -4 4 -4 4 -4 3 -4 4 -3 4 -4 4 -4 4 -4 3 -3 4 -4 4 -4 4 -4 3 -4 4 -3 4 -4 4 -4 4 -4 3 -3 4 -4 4 -4 4 -4 4 -4 3 -3 4 -4 4 -4 4 -4 3 -4 4 -3 4 -4 4 -4 4 -4 3 -3 4 -4 4 -4 4 -4 3 -4 4 -3 4 -4 4 -4 4 -4 3 -3 4 -4 4 -4 4 -4 3 -3 4c0,0 0,0 -1,0 -1,1 -2,3 -3,4 -2,0 -3,1 -4,2 -1,1 -3,1 -4,2 -1,1 -2,1 -4,2 -1,0 -2,0 -4,1 -1,0 -2,0 -3,0 -2,0 -3,0 -4,0l0 0 -1 0c-1,0 -2,0 -3,0 -1,0 -2,0 -4,-1 -1,0 -2,0 -3,-1 -2,0 -3,-1 -4,-1 -2,-1 -3,-2 -4,-2 -1,-1 -3,-2 -4,-3 -1,-1 -2,-2 -3,-3l-1 0 -3 -4 -4 -4 -4 -4 -4 -3 -3 -4 -4 -4 -4 -4 -4 -4 -4 -3 -3 -4 -4 -4 -3 -3c0,0 -1,0 -1,-1 -1,-1 -2,-2 -4,-3 -1,-1 -2,-2 -4,-4 -1,-1 -2,-2 -3,-3 -2,0 -3,-1 -4,-2 -1,-1 -3,-2 -4,-3 -1,-1 -2,-1 -4,-2 -1,-1 -2,-2 -3,-2 -2,-1 -3,-2 -4,-2 -1,-1 -3,-2 -4,-2 -1,-1 -3,-1 -4,-2 -1,0 -2,-1 -4,-1 -1,-1 -2,-1 -3,-2 -2,0 -3,0 -4,-1 -1,0 -3,-1 -4,-1 -1,0 -2,0 -4,-1 -1,0 -2,0 -3,-1 -2,0 -3,0 -4,0 -2,0 -3,0 -4,-1 -1,0 -3,0 -4,0 -1,0 -2,0 -4,0 0,0 -1,0 -2,0 0,0 -1,0 -1,0l0 0c-2,0 -3,0 -4,0 -1,0 -3,0 -4,0 -1,0 -3,0 -4,0 -1,1 -2,1 -4,1 -1,0 -2,0 -3,1 -2,0 -3,0 -4,0 -1,1 -3,1 -4,1 -1,1 -2,1 -4,1 -1,1 -2,1 -3,2 -2,0 -3,1 -4,1 -2,1 -3,1 -4,2 -1,0 -3,1 -4,1 -1,1 -2,1 -4,2 -1,1 -2,1 -3,2 -2,1 -3,2 -4,2 -1,1 -3,2 -4,3 -1,1 -2,1 -4,2 -1,1 -2,2 -4,3 -1,1 -2,2 -3,3 -2,1 -3,2 -4,4 -1,1 -3,2 -4,3 0,1 -1,1 -1,1l-3 3 -3 4 -4 4 -4 3 -4 4 -4 4 -3 4 -4 4 -4 3 -4 4 -3 4 -4 4 -4 4 -4 3 -4 4 -3 4 -4 4 -4 4 -4 3 -4 4 -3 4 -3 3c0,0 -1,0 -1,1 -1,1 -3,3 -4,5 -1,2 -3,5 -4,7 -3,9 -3,18 0,26 1,3 3,5 4,8 1,2 3,3 4,5 0,0 1,1 1,1 1,1 2,2 3,2 1,1 2,2 3,3 2,1 3,2 4,2 2,1 3,1 4,2 1,0 3,1 4,1 1,0 2,0 4,1 1,0 2,0 3,0 1,0 1,0 2,0 1,0 1,0 2,0 1,0 3,0 4,0 1,-1 3,-1 4,-1 1,-1 2,-1 4,-2 1,0 2,-1 3,-1 2,-1 3,-2 4,-3 1,0 3,-1 4,-3 0,0 1,-1 2,-1l2 -2 3 -4 4 -4 4 -4 4 -3 4 -4 3 -4 4 -4 4 -4 4 -3 3 -4 4 -4 4 -4 4 -4 4 -3 3 -4 4 -4 4 -4 4 -4 4 -3 3 -4 4 -4c0,0 0,0 0,0l0 0c1,-1 3,-2 4,-3 1,-1 2,-2 4,-3 1,-1 2,-2 3,-3 2,0 3,-1 4,-1 1,-1 3,-1 4,-2 1,0 3,0 4,0 1,-1 2,-1 4,-1 0,0 0,0 0,0 1,0 2,0 3,1 2,0 3,0 4,0 1,1 3,1 4,1 1,1 2,1 4,2 1,1 2,1 4,2 1,1 2,2 3,3 2,1 3,2 4,3 0,0 1,1 1,1l3 3 4 4 3 3 4 4 4 4 4 4 4 4 3 3 4 4 4 4 4 4 3 3 0 0c2,2 3,3 4,4 1,1 3,2 4,3 1,1 3,2 4,3 1,1 2,2 4,3 1,1 2,2 3,3 2,1 3,1 4,2 1,1 3,2 4,2 1,1 2,2 4,2 1,1 2,1 4,2 1,1 2,1 3,2 2,0 3,1 4,1 1,1 3,1 4,1 1,1 2,1 4,2 1,0 2,0 3,1 2,0 3,0 4,1 1,0 3,0 4,0 1,0 3,1 4,1 1,0 2,0 4,0 1,0 2,1 3,1 2,0 3,0 4,0 1,0 1,0 2,0 1,0 1,0 2,0 1,0 2,0 4,0 1,0 2,0 3,0 2,0 3,-1 4,-1 2,0 3,0 4,0 1,0 3,0 4,-1 1,0 2,0 4,0 1,-1 2,-1 3,-1 2,-1 3,-1 4,-1 1,-1 3,-1 4,-1 1,-1 2,-1 4,-2 1,0 2,-1 4,-1 1,-1 2,-1 3,-2 2,0 3,-1 4,-2 1,0 3,-1 4,-1 1,-1 2,-2 4,-3 1,0 2,-1 3,-2 2,-1 3,-2 4,-2 1,-1 3,-2 4,-3 1,-1 3,-2 4,-3 1,-1 2,-2 4,-3 1,-2 2,-3 3,-4 1,0 1,-1 1,-1l3 -3 4 -3 4 -4 3 -4 4 -4 4 -4 4 -3 4 -4 3 -4 4 -4 4 -4 4 -3 4 -4 3 -4 4 -4 4 -3 4 -4 3 -4 4 -4 4 -4 4 -3 4 -4 3 -4 4 -4 4 -3 4 -4 3 -4 4 -4 4 -4 4 -3 4 -4 3 -4 4 -4 4 -3 4 -4 4 -4 3 -4 4 -4 4 -3 4 -4 3 -4 4 -4 4 -4 4 -3 4 -4 3 -4 4 -4 4 -3 4 -4 3 -4 4 -4 4 -4 4 -3 4 -4 3 -4 4 -4 4 -3 4 -4 4 -4 3 -4 4 -4 4 -3 4 -4 3 -4 4 -4 4 -4 4 -3 4 -4 3 -4 4 -4 4 -3 4 -4 3 -4 1 0 0 94c0,6 1,11 3,16 1,2 3,4 4,6 1,2 2,3 4,5 1,1 2,2 4,3 1,1 2,2 3,2 2,1 3,2 4,2 1,1 3,1 4,2 1,0 2,0 4,1 1,0 2,0 4,0 1,0 2,0 3,0l0 0c2,0 3,0 4,0 1,0 3,0 4,0 1,-1 2,-1 4,-1 1,-1 2,-1 3,-2 2,0 3,-1 4,-2 2,0 3,-1 4,-2 1,-1 3,-2 4,-3 1,-2 2,-3 4,-5 1,-2 2,-4 3,-6 3,-5 4,-10 4,-16zm-79 716c1,-4 2,-8 2,-12l0 -568c0,-5 -1,-9 -2,-13 -1,-2 -3,-5 -4,-8 -1,-1 -2,-3 -4,-5 -1,-1 -2,-2 -4,-3 -1,-1 -2,-2 -3,-3 -2,-1 -3,-2 -4,-2 -1,-1 -3,-1 -4,-2 -1,0 -2,-1 -4,-1 -1,0 -2,-1 -4,-1 -1,0 -2,0 -3,0 -1,0 -1,0 -2,0 -1,0 -1,0 -2,0 -1,0 -3,0 -4,0 -1,1 -2,1 -4,1 -1,0 -2,1 -3,1 -2,1 -3,1 -4,2 -2,1 -3,1 -4,2 -1,1 -3,2 -4,3 -1,1 -2,3 -4,4 -1,2 -2,3 -3,5 -2,3 -3,6 -4,9 -1,3 -2,7 -2,11l0 568c0,4 1,7 2,11 1,3 2,6 4,8 1,2 2,4 3,5 2,2 3,3 4,4 1,1 3,2 4,3 1,1 2,2 4,2 1,1 2,2 4,2 1,1 2,1 3,1 2,1 3,1 4,1 1,0 3,0 4,1 1,0 1,0 2,0l0 0c1,0 1,0 2,0 1,0 2,-1 3,-1 2,0 3,0 4,-1 2,0 3,0 4,-1 1,0 3,-1 4,-1 1,-1 2,-2 4,-3 1,0 2,-1 3,-2 2,-1 3,-3 4,-4 2,-2 3,-3 4,-5 1,-2 3,-5 4,-8zm-148 -6c0,-2 1,-4 1,-6l0 -440c0,-2 -1,-4 -1,-6 0,-4 -2,-8 -4,-11 -1,-2 -2,-4 -3,-6 -2,-2 -3,-3 -4,-4 -1,-2 -3,-3 -4,-4 -1,0 -2,-1 -4,-2 -1,-1 -2,-1 -4,-2 -1,0 -2,-1 -3,-1 -2,-1 -3,-1 -4,-1 -1,0 -3,-1 -4,-1 -1,0 -2,0 -3,0l-1 0c-1,0 -2,0 -3,0 -2,1 -3,1 -4,1 -2,0 -3,1 -4,1 -1,1 -3,1 -4,2 -1,0 -2,1 -4,2 -1,0 -2,1 -3,2 -2,1 -3,2 -4,4 -2,1 -3,3 -4,4 -1,2 -3,4 -4,7 -2,4 -3,10 -3,15l0 440c0,5 1,10 3,15 1,2 3,5 4,7 1,1 2,3 4,4 1,1 2,3 4,4 1,1 2,1 3,2 2,1 3,2 4,2 1,1 3,1 4,2 1,0 2,0 4,1 1,0 2,0 4,0 1,0 2,1 3,1 1,0 1,0 1,0l0 0c1,0 2,0 3,-1 1,0 3,0 4,0 1,0 2,-1 4,-1 1,0 2,-1 3,-1 2,-1 3,-1 4,-2 2,-1 3,-2 4,-3 1,-1 3,-2 4,-3 1,-1 2,-2 4,-4 1,-2 2,-4 3,-6 2,-3 4,-7 4,-11zm-151 8c2,-5 2,-9 2,-14l0 -368c0,-5 0,-10 -2,-14 -1,-3 -2,-5 -4,-7 -1,-2 -2,-4 -4,-5 -1,-1 -2,-3 -3,-4 -2,-1 -3,-1 -4,-2 -1,-1 -3,-2 -4,-2 -1,-1 -3,-1 -4,-2 -1,0 -2,-1 -4,-1 -1,0 -2,-1 -3,-1 -2,0 -3,0 -4,0 -1,0 -1,0 -1,0 -1,0 -2,0 -3,0 -1,0 -3,0 -4,1 -1,0 -2,0 -4,0 -1,1 -2,1 -3,2 -2,0 -3,1 -4,1 -1,1 -3,2 -4,3 -1,1 -2,2 -4,3 -1,1 -2,2 -3,4 -2,1 -3,3 -4,5 -2,3 -3,7 -4,10 -1,3 -1,6 -1,9l0 368c0,3 0,6 1,9 1,3 2,6 4,9 1,2 2,4 4,6 1,1 2,3 3,4 2,1 3,2 4,3 1,1 3,1 4,2 1,1 2,1 4,2 1,0 2,1 3,1 2,1 3,1 4,1 1,0 3,0 4,1 1,0 2,0 3,0l0 0c0,0 0,0 1,0 1,0 2,-1 4,-1 1,0 2,0 3,0 2,-1 3,-1 4,-1 1,-1 3,-1 4,-2 1,-1 3,-1 4,-2 1,-1 2,-2 4,-3 1,-1 2,-2 3,-3 2,-2 3,-3 4,-5 2,-2 3,-5 4,-7zm-148 0c2,-4 3,-9 3,-14l0 -415c0,-6 -1,-11 -3,-15 -1,-2 -2,-5 -3,-7 -2,-2 -3,-3 -4,-5 -1,-1 -3,-2 -4,-3 -1,-1 -2,-2 -4,-3 -1,0 -2,-1 -4,-2 -1,0 -2,-1 -3,-1 -2,-1 -3,-1 -4,-1 -1,-1 -3,-1 -4,-1 -1,0 -2,0 -4,0 0,0 0,0 -1,0 -1,0 -2,0 -2,0 -2,0 -3,0 -4,0 -2,1 -3,1 -4,1 -1,1 -3,1 -4,2 -1,0 -2,1 -4,1 -1,1 -2,2 -3,3 -2,1 -3,2 -4,3 -2,1 -3,2 -4,4 -1,2 -3,4 -4,6 -2,3 -3,6 -4,10 0,3 0,5 0,8l0 415c0,2 0,5 0,7 1,4 2,7 4,11 1,2 3,4 4,5 1,2 2,3 4,5 1,1 2,2 4,3 1,0 2,1 3,2 2,1 3,1 4,2 1,0 3,1 4,1 1,0 2,1 4,1 1,0 2,0 4,0 0,1 1,1 2,1 1,0 1,0 1,0 2,0 3,-1 4,-1 1,0 3,0 4,0 1,-1 2,-1 4,-1 1,-1 2,-1 3,-2 2,-1 3,-1 4,-2 2,-1 3,-2 4,-3 1,-1 3,-2 4,-3 1,-1 2,-3 4,-5 1,-2 2,-4 3,-7zm-147 1c2,-5 3,-10 3,-15l0 -332c0,-6 -1,-11 -3,-16 -1,-2 -3,-4 -4,-6 -1,-2 -2,-3 -4,-5 -1,-1 -2,-2 -4,-3 -1,-1 -2,-2 -3,-3 -2,-1 -3,-1 -4,-2 -1,0 -3,-1 -4,-1 -1,-1 -2,-1 -4,-1 -1,-1 -2,-1 -3,-1 -2,0 -3,0 -4,0 0,0 -1,0 -1,0l0 0c-1,0 -2,0 -3,0 -1,0 -3,0 -4,1 -1,0 -2,0 -4,0 -1,1 -2,1 -3,2 -2,0 -3,1 -4,2 -1,0 -3,1 -4,2 -1,1 -3,2 -4,3 -1,1 -2,3 -4,4 -1,2 -2,4 -3,6 -2,4 -3,8 -4,12 0,2 -1,4 -1,6l0 332c0,2 1,4 1,6 1,4 2,8 4,11 1,2 2,4 3,6 2,2 3,3 4,4 1,1 3,2 4,3 1,1 3,2 4,3 1,0 2,1 4,2 1,0 2,1 3,1 2,0 3,1 4,1 1,0 3,0 4,0 1,1 2,1 3,1l0 0c0,0 1,0 1,0 1,0 2,-1 4,-1 1,0 2,0 3,0 2,-1 3,-1 4,-1 1,-1 3,-1 4,-2 1,0 2,-1 4,-2 1,-1 2,-1 3,-2 2,-1 3,-3 4,-4 2,-1 3,-3 4,-4 1,-2 3,-5 4,-7zm-148 -368c4,-10 4,-21 0,-30 -1,-3 -2,-5 -4,-7 -1,-2 -2,-3 -3,-5 -1,0 -1,0 -1,0 -1,-1 -2,-2 -3,-3 -1,-1 -3,-2 -4,-3 -1,0 -2,-1 -4,-2 -1,0 -2,-1 -3,-1 -2,0 -3,-1 -4,-1 -1,0 -3,-1 -4,-1 -1,0 -3,0 -4,0 -1,0 -2,0 -4,0 -1,0 -2,0 -3,1 -2,0 -3,0 -4,1 -1,0 -3,0 -4,1 -1,0 -2,1 -4,2 -1,0 -2,1 -3,2 -2,1 -3,2 -4,3 -1,1 -1,1 -2,1l-2 3 -4 4 -4 4 -3 4 -4 4 -4 4 -4 3 -4 4 -3 4 -4 4 -4 4 -4 4 -3 4 -4 4 -4 4 -4 4 -4 3 -3 4 -4 4 -4 4 -1 1c-1,1 -2,2 -3,3 -1,2 -2,4 -3,7 -6,10 -6,22 0,33 1,2 2,4 3,6 1,1 3,3 4,4l0 0c1,1 3,2 4,3 1,1 2,2 4,3 1,1 2,1 3,2 2,0 3,1 4,1 1,1 3,1 4,1 1,0 3,1 4,1 1,0 2,0 3,0l1 0c1,0 2,0 3,0 2,0 3,-1 4,-1 1,0 3,0 4,-1 1,0 2,-1 4,-1 1,-1 2,-2 3,-2 2,-1 3,-2 4,-3 2,-1 3,-2 4,-3 0,0 0,0 1,-1l3 -3 4 -4 3 -4 4 -4 4 -4 4 -3 4 -4 3 -4 4 -4 4 -4 4 -4 3 -4 4 -4 4 -4 4 -4 4 -3 3 -4 4 -4 4 -4 4 -4 0 0c1,-1 2,-3 3,-5 2,-2 3,-4 4,-6z"/>
 </g>
</svg>
