<?xml version="1.0" encoding="UTF-8"?>
<!DOCTYPE svg PUBLIC "-//W3C//DTD SVG 1.1//EN" "http://www.w3.org/Graphics/SVG/1.1/DTD/svg11.dtd">
<!-- Creator: CorelDRAW X7 -->
<svg xmlns="http://www.w3.org/2000/svg" xml:space="preserve" width="1.73333in" height="1.73333in" version="1.1" style="shape-rendering:geometricPrecision; text-rendering:geometricPrecision; image-rendering:optimizeQuality; fill-rule:evenodd; clip-rule:evenodd"
viewBox="0 0 1733 1733"
 xmlns:xlink="http://www.w3.org/1999/xlink">
 <defs>
  <style type="text/css">
   <![CDATA[
    .fil0 {fill:#E72B6A}
   ]]>
  </style>
 </defs>
 <g id="Layer_x0020_1">
  <metadata id="CorelCorpID_0Corel-Layer"/>
  <path class="fil0" d="M866 15c471,0 853,382 853,854 0,471 -382,853 -853,853 -472,0 -854,-382 -854,-853 0,-472 382,-854 854,-854zm0 72c431,0 781,350 781,782 0,431 -350,781 -781,781 -432,0 -782,-350 -782,-781 0,-432 350,-782 782,-782z"/>
  <path class="fil0" d="M534 1165c0,18 14,32 32,32l48 0c18,0 32,-14 32,-32l0 -328c0,-18 -14,-32 -32,-32l-48 0c-18,0 -32,14 -32,32l0 328zm32 -424l48 0c11,0 21,1 30,4l159 -247 21 -29 2 -2c18,-18 42,-29 68,-29 54,0 97,44 97,97 0,11 -2,21 -5,31l-1 2 -1 2c-5,10 -10,21 -16,32 -14,29 -38,76 -42,91 3,17 25,27 41,27l212 0c50,0 91,41 91,91 0,17 -4,33 -12,47 21,17 35,43 35,72 0,23 -8,45 -23,62 -4,5 -9,9 -13,12 7,14 12,29 12,45 0,35 -20,66 -49,81 6,12 9,25 9,38 0,54 -39,94 -92,94l-315 0c-18,0 -32,-15 -32,-32 0,-18 14,-33 32,-33l315 0c25,0 27,-20 27,-29 0,-14 -11,-21 -14,-23 -18,-10 -21,-24 -21,-32 0,-20 18,-36 40,-36l7 0c16,0 28,-12 28,-28 0,-9 -5,-18 -14,-23 0,0 -1,-1 -1,-1 -14,-8 -22,-19 -22,-33 0,-12 9,-33 39,-34 12,-1 23,-14 23,-28 0,-12 -9,-23 -21,-26 -19,-5 -32,-20 -32,-38 0,-9 3,-21 18,-32 8,-5 12,-14 12,-23 0,-15 -12,-27 -27,-27l-212 0c-49,0 -103,-35 -105,-91l0 -1c0,-19 14,-49 49,-119 5,-10 10,-20 14,-29 1,-3 2,-6 2,-9 0,-18 -15,-32 -33,-32 -8,0 -15,3 -21,8l-16 23 -162 251c10,15 16,33 16,52l0 328c0,53 -44,97 -97,97l-48 0c-53,0 -96,-44 -96,-97l0 -328c0,-53 43,-96 96,-96z"/>
 </g>
</svg>
