<?xml version="1.0" encoding="UTF-8"?>
<!DOCTYPE svg PUBLIC "-//W3C//DTD SVG 1.1//EN" "http://www.w3.org/Graphics/SVG/1.1/DTD/svg11.dtd">
<!-- Creator: CorelDRAW X7 -->
<svg xmlns="http://www.w3.org/2000/svg" xml:space="preserve" width="1.74999in" height="1.74999in" version="1.1" style="shape-rendering:geometricPrecision; text-rendering:geometricPrecision; image-rendering:optimizeQuality; fill-rule:evenodd; clip-rule:evenodd"
viewBox="0 0 1750 1750"
 xmlns:xlink="http://www.w3.org/1999/xlink">
 <defs>
  <style type="text/css">
   <![CDATA[
    .fil0 {fill:#333333}
    .fil1 {fill:#E72B6A}
   ]]>
  </style>
 </defs>
 <g id="Layer_x0020_1">
  <metadata id="CorelCorpID_0Corel-Layer"/>
  <path class="fil0" d="M875 20c471,0 853,382 853,854 0,471 -382,853 -853,853 -472,0 -854,-382 -854,-853 0,-472 382,-854 854,-854zm0 71c432,0 782,351 782,783 0,432 -350,782 -782,782 -432,0 -783,-350 -783,-782 0,-432 351,-783 783,-783z"/>
  <path class="fil1" d="M868 253l0 0c-20,0 -37,17 -37,37l0 675c0,20 17,37 37,37l0 0c20,0 37,-17 37,-37l0 -675c0,-20 -17,-37 -37,-37z"/>
  <path class="fil1" d="M1359 884l0 0c0,-20 -16,-37 -37,-37l-531 0c-21,0 -37,17 -37,37l0 0c0,21 16,37 37,37l531 0c21,0 37,-16 37,-37z"/>
 </g>
</svg>
